{
.appVersion = "3418";
.formatVersion = 3;
DisplayStrings = (
INVhsbonndnnlnognnnrpqWMHB,
"AÆE",
"a/Placeholder a b/Placeholder b c/Placeholder c d/Placeholder d e/Placeholder e f/Placeholder f g/Placeholder g h/Placeholder h i/Placeholder i jjj k/Placeholder k l/Placeholder l m/Placeholder m n/Placeholder n o/Placeholder o p/Placeholder p q/Placeholder q r/Placeholder r s/Placeholder s t/Placeholder t u/Placeholder u v/Placeholder v w/Placeholder w n  x/Placeholder x y/Placeholder y z/Placeholder z
nnhnonnmonnn/Placeholder no/Placeholder oonnnmhnomnh

abcdefghijklmnopqrstuvwxyz

fear fall kilo long ovoide want wind oxo zapato

Twombli Tgmaiwan Taiwan Tomato Temperture Tiro Twardock Walking Wonder Wc Wd Wrcnder You Family Fear Furor Vocal Viajar Zusam Pearl Point Pain Ayuda 
Kilo Londres Leon Lio Month Lyon Tt Valor

Thng Tt tt Nht Vng Đng Bt Đc k. ngi Ngng",
"A/Placeholder  B/Placeholder  C/Placeholder  D/Placeholder  E/Placeholder  F/Placeholder  G/Placeholder  H/Placeholder  I/Placeholder  J/Placeholder  K/Placeholder  L/Placeholder  M/Placeholder  N/Placeholder  O/Placeholder  P/Placeholder  Q/Placeholder  R/Placeholder  S/Placeholder  T/Placeholder  U/Placeholder  V/Placeholder  X/Placeholder  Y/Placeholder  Z/Placeholder 
abcdefghijklmnopqrstuvwxyz
fear fall kilo long ovoide want wind oxo zapato

Twombli Tgmaiwan Taiwan You Year Tomato Temperture Tiro Twardock Walking Wonder Wc Wd Wrcnder You Family Fear Furor Vocal Viajar Zusam Pearl Point Pain Ayuda Volver  Tv Wonder
Kilo Londres Leon Lio Month Lyon Tt Thng Tt tt Nht Vng Bt Đc Tng Tng Tt Tt Tt Valor Oculto Andrés
Sergio Tomás Páez Santiago",
"HH/Placeholder HO/Placeholder OOFAF GAG

glyphs = (
{
glyphname = .notdef;
lastChange = "2025-07-10 17:04:08 +0000";
layers = (
{
layerId = m01;
shapes = (
{
closed = 1;
nodes = (
(81,0,l),
(664,0,l),
(664,639,l),
(81,639,l),
(81,0,l)
);
},
{
closed = 1;
nodes = (
(535,106,l),
(371,271,l),
(210,110,l),
(181,139,o),
(167,153,o),
(167,153,c),
(328,314,l),
(163,479,l),
(208,523,l),
(373,358,l),
(533,519,l),
(576,476,l),
(416,315,l),
(580,150,l),
(535,106,l)
);
}
);
userData = {
assembly = "NPUSHB[ ]	/* 6 values pushed */
14 8 0 2 2 13
CALL[ ]	/* CallFunction */";
};
width = 746;
},
{
associatedMasterId = "792D4558-F830-44B3-9794-52A6ACE12B02";
layerId = "6B1252CF-E426-46DC-A9C6-391C8BFD5F20";
shapes = (
{
closed = 1;
nodes = (
(1360,0,l),
(1360,1307,l),
(170,1307,l),
(170,0,l)
);
},
{
closed = 1;
nodes = (
(762,545,l),
(431,214,l),
(334,311,l),
(665,642,l),
(326,982,l),
(426,1082,l),
(765,742,l),
(1096,1073,l),
(1193,976,l),
(862,645,l),
(1201,305,l),
(1101,205,l)
);
}
);
width = 1528;
},
{
layerId = "792D4558-F830-44B3-9794-52A6ACE12B02";
shapes = (
{
closed = 1;
nodes = (
(83,0,l),
(664,0,l),
(664,638,l),
(83,638,l),
(83,0,l)
);
},
{
closed = 1;
nodes = (
(538,100,l),
(372,266,l),
(210,104,l),
(163,152,l),
(325,313,l),
(159,479,l),
(208,528,l),
(374,362,l),
(535,524,l),
(583,477,l),
(421,315,l),
(586,149,l),
(538,100,l)
);
}
);
width = 746;
}
);
note = .notdef;
},
{
glyphname = exclam;
lastChange = "2025-07-10 17:04:25 +0000";
layers = (
{
layerId = m01;
shapes = (
{
closed = 1;
nodes = (
(191,230,o),
(192,298,o),
(201,372,cs),
(221,542,ls),
(225,572,o),
(231,616,o),
(238,671,cs),
(241,689,o),
(244,705,o),
(247,720,cs),
(250,736,o),
(251,747,o),
(251,755,cs),
(251,768,o),
(244,775,o),
(230,775,cs),
(167,771,l),
(104,775,ls),
(90,775,o),
(83,768,o),
(83,755,cs),
(83,746,o),
(85,733,o),
(88,716,cs),
(91,699,o),
(94,682,o),
(97,664,cs),
(107,585,ls),
(112,552,o),
(121,479,o),
(133,369,cs),
(142,301,o),
(141,230,o),
(167,230,cs)
);
},
{
closed = 1;
nodes = (
(189,-12,o),
(205,-5,o),
(218,7,cs),
(232,20,o),
(241,38,o),
(241,57,cs),
(241,73,o),
(235,90,o),
(222,105,cs),
(209,121,o),
(189,129,o),
(169,129,cs),
(150,129,o),
(130,122,o),
(116,107,cs),
(103,95,o),
(96,75,o),
(96,59,cs),
(96,30,o),
(112,-12,o),
(173,-12,cs)
);
}
);
userData = {
assembly = "NPUSHB[ ]	/* 14 values pushed */
1 0 39 38 31 30 12 11 0 24 1 22 5 8
CALL[ ]	/* CallFunction */
MPPEM[ ]	/* MeasurePixelPerEm */
PUSHB[ ]	/* 1 value pushed */
9
LT[ ]	/* LessThan */
IF[ ]	/* If */
NPUSHB[ ]	/* 27 values pushed */
0 1 1 0 1 0 39 4 1 0 0 12 34 0 2 2 3 1 0 39 0 3 3 13 3 35 4
ELSE[ ]	/* Else */
MPPEM[ ]	/* MeasurePixelPerEm */
PUSHB[ ]	/* 1 value pushed */
13
LT[ ]	/* LessThan */
IF[ ]	/* If */
NPUSHB[ ]	/* 27 values pushed */
0 1 1 0 1 0 39 4 1 0 0 12 34 0 2 2 3 1 0 39 0 3 3 16 3 35 4
ELSE[ ]	/* Else */
MPPEM[ ]	/* MeasurePixelPerEm */
PUSHB[ ]	/* 1 value pushed */
17
LT[ ]	/* LessThan */
IF[ ]	/* If */
NPUSHB[ ]	/* 27 values pushed */
0 1 1 0 1 0 39 4 1 0 0 12 34 0 2 2 3 1 0 39 0 3 3 13 3 35 4
ELSE[ ]	/* Else */
MPPEM[ ]	/* MeasurePixelPerEm */
PUSHB[ ]	/* 1 value pushed */
21
LT[ ]	/* LessThan */
IF[ ]	/* If */
NPUSHB[ ]	/* 27 values pushed */
0 1 1 0 1 0 39 4 1 0 0 12 34 0 2 2 3 1 0 39 0 3 3 16 3 35 4
ELSE[ ]	/* Else */
NPUSHB[ ]	/* 27 values pushed */
0 1 1 0 1 0 39 4 1 0 0 12 34 0 2 2 3 1 0 39 0 3 3 13 3 35 4
EIF[ ]	/* EndIf */
EIF[ ]	/* EndIf */
EIF[ ]	/* EndIf */
EIF[ ]	/* EndIf */
PUSHB[ ]	/* 1 value pushed */
59
CALL[ ]	/* CallFunction */";
};
width = 334;
},
{
associatedMasterId = "792D4558-F830-44B3-9794-52A6ACE12B02";
layerId = "6B1252CF-E426-46DC-A9C6-391C8BFD5F20";
shapes = (
{
closed = 1;
nodes = (
(358,467,o),
(376,532,o),
(400,780,o),
(439,1093,qs),
(450,1185,o),
(474,1357,qs),
(482,1409,o),
(500,1504,o),
(500,1527,qs),
(500,1561,o),
(464,1561,q),
(336,1553,l),
(206,1561,l),
(170,1561,o),
(170,1527,qs),
(170,1501,o),
(186,1415,qs),
(196,1366,o),
(215,1216,qs),
(235,1062,ls),
(245,978,o),
(272,743,qs),
(281,664,o),
(293,532,o),
(312,467,o),
(335,467,qs)
);
},
{
closed = 1;
nodes = (
(454,30,o),
(477,79,o),
(477,164,o),
(443,206,qs),
(426,227,o),
(374,253,o),
(277,253,o),
(235,210,qs),
(216,190,o),
(195,139,o),
(195,89,o),
(211,41,o),
(246,2,o),
(299,-24,o),
(394,-24,o),
(434,12,qs)
);
}
);
width = 670;
},
{
layerId = "792D4558-F830-44B3-9794-52A6ACE12B02";
shapes = (
{
closed = 1;
nodes = (
(182,228,o),
(184,259,o),
(190,321,cs),
(193,360,o),
(201,431,o),
(214,534,cs),
(218,564,o),
(224,608,o),
(231,663,cs),
(234,680,o),
(237,696,o),
(240,711,cs),
(243,727,o),
(244,738,o),
(244,746,cs),
(244,757,o),
(238,762,o),
(227,762,cs),
(164,758,l),
(101,762,ls),
(89,762,o),
(83,757,o),
(83,746,cs),
(83,737,o),
(86,718,o),
(91,691,cs),
(94,676,o),
(99,643,o),
(105,594,cs),
(115,519,ls),
(118,492,o),
(124,440,o),
(133,363,cs),
(140,291,o),
(140,228,o),
(164,228,cs)
);
},
{
closed = 1;
nodes = (
(184,-12,o),
(199,-6,o),
(212,6,cs),
(225,18,o),
(233,36,o),
(233,55,cs),
(233,70,o),
(228,86,o),
(216,101,cs),
(204,116,o),
(185,125,o),
(166,125,cs),
(147,125,o),
(129,118,o),
(115,103,cs),
(102,90,o),
(95,72,o),
(95,56,cs),
(95,24,o),
(114,-12,o),
(169,-12,cs)
);
}
);
width = 327;
}
);
note = exclam;
unicode = 33;
},
{
glyphname = numbersign;
lastChange = "2025-07-10 17:04:25 +0000";
layers = (
{
layerId = m01;
shapes = (
{
closed = 1;
nodes = (
(194,-12,o),
(210,5,o),
(214,24,cs),
(266,248,l),
(431,248,l),
(392,81,ls),
(389,70,o),
(387,61,o),
(386,56,cs),
(383,39,ls),
(382,36,o),
(381,32,o),
(381,30,cs),
(381,27,o),
(381,23,o),
(381,18,cs),
(381,7,o),
(393,-12,o),
(415,-12,cs),
(437,-12,o),
(452,6,o),
(457,24,cs),
(508,248,l),
(609,248,ls),
(637,248,o),
(651,266,o),
(651,285,cs),
(651,303,o),
(637,321,o),
(608,321,cs),
(525,321,l),
(556,454,l),
(659,454,ls),
(687,454,o),
(701,473,o),
(701,491,cs),
(701,509,o),
(687,527,o),
(658,527,cs),
(573,527,l),
(613,701,ls),
(617,720,o),
(619,735,o),
(619,748,cs),
(619,761,o),
(604,775,o),
(587,775,cs),
(564,775,o),
(548,752,o),
(538,706,cs),
(496,527,l),
(332,527,l),
(372,701,ls),
(375,719,o),
(377,735,o),
(377,748,cs),
(377,762,o),
(362,775,o),
(346,775,cs),
(340,775,o),
(335,774,o),
(330,771,cs),
(316,764,o),
(305,742,o),
(296,706,cs),
(254,527,l),
(129,527,ls),
(100,527,o),
(86,509,o),
(86,491,cs),
(86,473,o),
(101,454,o),
(128,454,cs),
(237,454,l),
(206,321,l),
(85,321,ls),
(56,321,o),
(42,303,o),
(42,285,cs),
(42,266,o),
(56,248,o),
(84,248,cs),
(189,248,l),
(150,81,ls),
(147,70,o),
(145,61,o),
(144,56,cs),
(141,39,ls),
(140,32,o),
(139,29,o),
(139,18,cs),
(139,7,o),
(152,-12,o),
(173,-12,cs)
);
},
{
closed = 1;
nodes = (
(283,321,l),
(314,454,l),
(479,454,l),
(447,321,l),
(283,321,l)
);
}
);
userData = {
assembly = "NPUSHB[ ]	/* 42 values pushed */
75 75 0 0 75 78 75 78 77 76 0 74 0 74 71 70 62 61 58 56 53 51 50 48 45 43 38 36 34 33 28 27 23 21 18 16 15 13 10 8 18 8
CALL[ ]	/* CallFunction */
MPPEM[ ]	/* MeasurePixelPerEm */
PUSHB[ ]	/* 1 value pushed */
9
LT[ ]	/* LessThan */
IF[ ]	/* If */
NPUSHB[ ]	/* 46 values pushed */
17 15 9 3 1 12 10 2 0 11 1 0 1 0 41 6 1 4 4 12 34 14 8 2 2 2 3 1 0 39 7 5 2 3 3 15 34 16 13 2 11 11 13 11 35 5
ELSE[ ]	/* Else */
MPPEM[ ]	/* MeasurePixelPerEm */
PUSHB[ ]	/* 1 value pushed */
11
LT[ ]	/* LessThan */
IF[ ]	/* If */
NPUSHB[ ]	/* 46 values pushed */
17 15 9 3 1 12 10 2 0 11 1 0 1 0 41 6 1 4 4 12 34 14 8 2 2 2 3 1 0 39 7 5 2 3 3 21 34 16 13 2 11 11 16 11 35 5
ELSE[ ]	/* Else */
MPPEM[ ]	/* MeasurePixelPerEm */
PUSHB[ ]	/* 1 value pushed */
13
LT[ ]	/* LessThan */
IF[ ]	/* If */
NPUSHB[ ]	/* 46 values pushed */
17 15 9 3 1 12 10 2 0 11 1 0 1 0 41 6 1 4 4 12 34 14 8 2 2 2 3 1 0 39 7 5 2 3 3 15 34 16 13 2 11 11 16 11 35 5
ELSE[ ]	/* Else */
MPPEM[ ]	/* MeasurePixelPerEm */
PUSHB[ ]	/* 1 value pushed */
17
LT[ ]	/* LessThan */
IF[ ]	/* If */
NPUSHB[ ]	/* 46 values pushed */
17 15 9 3 1 12 10 2 0 11 1 0 1 0 41 6 1 4 4 12 34 14 8 2 2 2 3 1 0 39 7 5 2 3 3 21 34 16 13 2 11 11 13 11 35 5
ELSE[ ]	/* Else */
MPPEM[ ]	/* MeasurePixelPerEm */
PUSHB[ ]	/* 1 value pushed */
21
LT[ ]	/* LessThan */
IF[ ]	/* If */
NPUSHB[ ]	/* 46 values pushed */
17 15 9 3 1 12 10 2 0 11 1 0 1 0 41 6 1 4 4 12 34 14 8 2 2 2 3 1 0 39 7 5 2 3 3 21 34 16 13 2 11 11 16 11 35 5
ELSE[ ]	/* Else */
NPUSHB[ ]	/* 46 values pushed */
17 15 9 3 1 12 10 2 0 11 1 0 1 0 41 6 1 4 4 12 34 14 8 2 2 2 3 1 0 39 7 5 2 3 3 21 34 16 13 2 11 11 13 11 35 5
EIF[ ]	/* EndIf */
EIF[ ]	/* EndIf */
EIF[ ]	/* EndIf */
EIF[ ]	/* EndIf */
EIF[ ]	/* EndIf */
PUSHB[ ]	/* 1 value pushed */
59
CALL[ ]	/* CallFunction */";
};
width = 745;
},
{
associatedMasterId = "792D4558-F830-44B3-9794-52A6ACE12B02";
layerId = "6B1252CF-E426-46DC-A9C6-391C8BFD5F20";
shapes = (
{
closed = 1;
nodes = (
(546,503,l),
(889,503,l),
(809,159,ls),
(794,96,o),
(790,72,qs),
(788,60,o),
(787,47,o),
(787,17,o),
(820,-24,o),
(883,-24,o),
(924,17,o),
(930,44,qs),
(1036,503,l),
(1245,503,ls),
(1277,503,o),
(1326,540,o),
(1326,606,o),
(1275,640,o),
(1243,640,qs),
(1068,640,l),
(1134,921,l),
(1345,921,ls),
(1377,921,o),
(1426,958,o),
(1426,1024,o),
(1375,1058,o),
(1343,1058,qs),
(1166,1058,l),
(1249,1417,ls),
(1254,1436,o),
(1258,1466,qs),
(1259,1478,o),
(1261,1497,o),
(1261,1529,o),
(1223,1561,o),
(1185,1561,o),
(1172,1556,qs),
(1133,1539,o),
(1106,1425,qs),
(1019,1058,l),
(676,1058,l),
(759,1417,ls),
(764,1436,o),
(768,1466,qs),
(769,1478,o),
(771,1497,o),
(771,1529,o),
(733,1561,o),
(695,1561,o),
(682,1556,qs),
(643,1539,o),
(616,1425,qs),
(529,1058,l),
(273,1058,ls),
(241,1058,o),
(190,1024,o),
(190,958,o),
(239,921,o),
(271,921,qs),
(497,921,l),
(431,640,l),
(183,640,ls),
(151,640,o),
(100,606,o),
(100,540,o),
(149,503,o),
(181,503,qs),
(399,503,l),
(319,159,ls),
(304,96,o),
(300,72,qs),
(298,60,o),
(297,47,o),
(297,17,o),
(330,-24,o),
(393,-24,o),
(434,17,o),
(440,44,qs)
);
},
{
closed = 1;
nodes = (
(644,921,l),
(987,921,l),
(921,640,l),
(578,640,l)
);
}
);
width = 1526;
},
{
layerId = "792D4558-F830-44B3-9794-52A6ACE12B02";
shapes = (
{
closed = 1;
nodes = (
(197,-12,o),
(211,4,o),
(215,21,cs),
(267,246,l),
(434,246,l),
(395,78,ls),
(390,57,o),
(387,42,o),
(386,35,cs),
(385,30,o),
(385,27,o),
(385,26,c),
(384,24,o),
(384,21,o),
(384,16,cs),
(384,6,o),
(395,-12,o),
(416,-12,cs),
(436,-12,o),
(450,4,o),
(454,21,cs),
(506,246,l),
(608,246,ls),
(634,246,o),
(647,263,o),
(647,280,cs),
(647,296,o),
(634,313,o),
(607,313,cs),
(521,313,l),
(554,450,l),
(657,450,ls),
(683,450,o),
(696,467,o),
(696,484,cs),
(696,500,o),
(683,517,o),
(656,517,cs),
(569,517,l),
(610,692,ls),
(611,697,o),
(613,707,o),
(614,716,cs),
(615,723,o),
(616,728,o),
(616,739,cs),
(616,746,o),
(605,762,o),
(585,762,cs),
(581,762,o),
(577,761,o),
(572,760,c),
(559,754,o),
(549,733,o),
(540,696,cs),
(498,517,l),
(330,517,l),
(371,692,ls),
(372,697,o),
(374,707,o),
(375,716,cs),
(375,720,o),
(375,723,o),
(376,727,cs),
(376,729,o),
(376,734,o),
(376,739,cs),
(376,750,o),
(361,762,o),
(345,762,cs),
(341,762,o),
(337,761,o),
(333,760,c),
(320,754,o),
(310,733,o),
(301,696,cs),
(258,517,l),
(133,517,ls),
(106,517,o),
(93,500,o),
(93,484,cs),
(93,467,o),
(106,450,o),
(132,450,cs),
(243,450,l),
(210,313,l),
(89,313,ls),
(62,313,o),
(49,296,o),
(49,280,cs),
(49,263,o),
(62,246,o),
(88,246,cs),
(195,246,l),
(156,78,ls),
(151,58,o),
(147,42,o),
(146,35,cs),
(146,31,o),
(146,27,o),
(146,26,c),
(145,24,o),
(145,21,o),
(145,16,cs),
(145,6,o),
(156,-12,o),
(177,-12,cs)
);
},
{
closed = 1;
nodes = (
(282,313,l),
(314,450,l),
(482,450,l),
(450,313,l),
(282,313,l)
);
}
);
width = 745;
}
);
note = numbersign;
unicode = 35;
},
{
glyphname = dollar;
lastChange = "2025-07-10 17:04:25 +0000";
layers = (
{
layerId = m01;
shapes = (
{
closed = 1;
nodes = (
(360,-141,o),
(368,-128,o),
(368,-103,cs),
(368,-11,l),
(449,-8,o),
(515,14,o),
(562,54,cs),
(611,94,o),
(632,152,o),
(632,209,cs),
(632,237,o),
(627,264,o),
(618,289,cs),
(589,363,o),
(506,418,o),
(368,453,c),
(368,712,l),
(457,704,o),
(521,662,o),
(560,583,cs),
(568,564,o),
(574,556,o),
(583,556,cs),
(593,556,o),
(598,563,o),
(598,577,cs),
(598,591,o),
(593,619,o),
(582,663,cs),
(574,693,o),
(569,724,o),
(567,756,cs),
(566,776,o),
(562,787,o),
(554,787,cs),
(547,787,o),
(537,779,o),
(525,762,cs),
(518,752,o),
(513,748,o),
(508,748,cs),
(508,748,o),
(507,748,o),
(507,748,cs),
(505,748,o),
(502,749,o),
(495,752,cs),
(459,765,o),
(415,773,o),
(368,774,c),
(368,865,ls),
(368,891,o),
(359,904,o),
(342,904,cs),
(324,904,o),
(315,891,o),
(315,865,cs),
(315,773,l),
(239,767,o),
(180,743,o),
(138,700,cs),
(101,663,o),
(82,617,o),
(82,564,cs),
(82,511,o),
(99,467,o),
(134,429,cs),
(173,387,o),
(233,355,o),
(315,334,c),
(315,54,l),
(257,61,o),
(213,83,o),
(181,120,cs),
(149,155,o),
(130,207,o),
(125,256,cs),
(122,281,o),
(116,293,o),
(105,293,cs),
(92,293,o),
(85,273,o),
(85,234,cs),
(85,63,l),
(169,19,o),
(245,-5,o),
(315,-10,c),
(315,-101,ls),
(315,-128,o),
(324,-141,o),
(343,-141,cs)
);
},
{
closed = 1;
nodes = (
(368,321,l),
(424,306,o),
(465,285,o),
(490,258,cs),
(516,232,o),
(526,200,o),
(526,171,cs),
(526,154,o),
(523,138,o),
(518,124,cs),
(503,78,o),
(454,55,o),
(368,52,c)
);
},
{
closed = 1;
nodes = (
(315,468,l),
(289,477,o),
(267,487,o),
(250,498,cs),
(207,526,o),
(185,564,o),
(185,611,cs),
(185,669,o),
(228,702,o),
(315,711,c),
(315,468,l)
);
}
);
userData = {
assembly = "NPUSHB[ ]	/* 22 values pushed */
68 67 58 56 54 53 41 39 33 32 29 28 26 25 23 22 6 4 1 0 10 8
CALL[ ]	/* CallFunction */
MPPEM[ ]	/* MeasurePixelPerEm */
PUSHB[ ]	/* 1 value pushed */
19
LT[ ]	/* LessThan */
IF[ ]	/* If */
NPUSHB[ ]	/* 82 values pushed */
20 1 3 2 35 1 4 3 60 45 2 6 4 75 66 46 12 4 1 6 2 1 9 1 11 1 0 9 6 33 0 4 3 6 3 4 6 53 0 6 1 3 6 1 51 0 1 9 3 1 9 51 0 2 0 8 2 8 1 0 40 5 1 3 3 12 34 0 9 9 0 1 2 39 7 1 0 0 13 0 35 8
ELSE[ ]	/* Else */
NPUSHB[ ]	/* 86 values pushed */
20 1 3 5 35 1 4 3 60 45 2 6 4 75 66 46 12 4 1 6 2 1 9 1 11 1 0 9 6 33 0 4 3 6 3 4 6 53 0 6 1 3 6 1 51 0 1 9 3 1 9 51 0 2 0 8 2 8 1 0 40 0 5 5 18 34 0 3 3 12 34 0 9 9 0 1 2 39 7 1 0 0 13 0 35 9
EIF[ ]	/* EndIf */
PUSHB[ ]	/* 1 value pushed */
59
CALL[ ]	/* CallFunction */";
};
width = 707;
},
{
associatedMasterId = "792D4558-F830-44B3-9794-52A6ACE12B02";
layerId = "6B1252CF-E426-46DC-A9C6-391C8BFD5F20";
shapes = (
{
closed = 1;
nodes = (
(774,-285,o),
(774,-213,qs),
(774,-22,l),
(1023,-14,o),
(1168,106,qs),
(1237,164,o),
(1310,324,o),
(1310,507,o),
(1283,580,qs),
(1199,809,o),
(774,910,q),
(774,1464,l),
(1045,1445,o),
(1173,1181,qs),
(1197,1128,o),
(1215,1128,qs),
(1240,1128,o),
(1240,1203,o),
(1216,1304,qs),
(1201,1363,o),
(1190,1424,qs),
(1185,1456,o),
(1179,1510,o),
(1176,1584,o),
(1151,1584,qs),
(1137,1584,o),
(1102,1536,qs),
(1081,1507,o),
(1056,1507,qs),
(1046,1507,o),
(1024,1514,qs),
(996,1524,ls),
(898,1557,o),
(774,1560,q),
(774,1749,ls),
(774,1823,o),
(723,1823,qs),
(677,1823,o),
(677,1748,qs),
(677,1558,l),
(448,1541,o),
(318,1412,qs),
(203,1298,o),
(203,1138,qs),
(203,981,o),
(309,867,qs),
(430,737,o),
(677,677,q),
(677,78,l),
(585,88,o),
(515,126,qs),
(311,235,o),
(279,529,q),
(270,585,o),
(247,585,qs),
(211,585,o),
(211,470,qs),
(211,125,l),
(461,-8,o),
(677,-21,q),
(677,-210,ls),
(677,-285,o),
(728,-285,qs)
);
},
{
closed = 1;
nodes = (
(774,653,l),
(1122,558,o),
(1122,344,qs),
(1122,86,o),
(774,75,q)
);
},
{
closed = 1;
nodes = (
(510,988,o),
(440,1068,qs),
(408,1106,o),
(383,1189,o),
(383,1278,o),
(402,1318,qs),
(465,1444,o),
(677,1462,q),
(677,936,l)
);
}
);
width = 1447;
},
{
layerId = "792D4558-F830-44B3-9794-52A6ACE12B02";
shapes = (
{
closed = 1;
nodes = (
(370,-139,o),
(378,-127,o),
(378,-104,cs),
(378,-11,l),
(460,-8,o),
(524,13,o),
(570,52,cs),
(619,92,o),
(641,149,o),
(641,205,cs),
(641,232,o),
(636,258,o),
(626,283,cs),
(599,357,o),
(517,411,o),
(378,444,c),
(378,715,l),
(466,709,o),
(531,663,o),
(573,577,cs),
(580,560,o),
(587,551,o),
(593,551,cs),
(601,551,o),
(605,557,o),
(605,569,cs),
(605,581,o),
(601,604,o),
(594,637,cs),
(589,656,o),
(584,676,o),
(581,695,cs),
(576,736,o),
(579,773,o),
(562,773,cs),
(557,773,o),
(549,765,o),
(538,750,cs),
(531,740,o),
(524,736,o),
(516,736,cs),
(513,736,o),
(507,737,o),
(500,739,cs),
(486,744,ls),
(453,755,o),
(417,761,o),
(378,762,c),
(378,854,ls),
(378,878,o),
(370,890,o),
(353,890,cs),
(338,890,o),
(331,878,o),
(331,854,cs),
(331,761,l),
(256,755,o),
(198,731,o),
(155,689,cs),
(117,652,o),
(99,608,o),
(99,556,cs),
(99,505,o),
(116,461,o),
(151,423,cs),
(191,380,o),
(251,350,o),
(331,331,c),
(331,38,l),
(302,41,o),
(275,49,o),
(251,62,cs),
(184,98,o),
(147,162,o),
(136,258,cs),
(133,277,o),
(128,286,o),
(121,286,cs),
(109,286,o),
(103,267,o),
(103,229,cs),
(103,61,l),
(184,18,o),
(260,-6,o),
(331,-10,c),
(331,-103,ls),
(331,-127,o),
(339,-139,o),
(355,-139,cs)
);
},
{
closed = 1;
nodes = (
(378,319,l),
(491,288,o),
(548,237,o),
(548,168,cs),
(548,84,o),
(491,40,o),
(378,37,c)
);
},
{
closed = 1;
nodes = (
(331,457,l),
(276,474,o),
(237,496,o),
(215,521,cs),
(196,544,o),
(187,572,o),
(187,599,cs),
(187,615,o),
(190,630,o),
(196,644,cs),
(217,685,o),
(262,708,o),
(331,714,c),
(331,457,l)
);
}
);
width = 707;
}
);
note = dollar;
unicode = 36;
},
{
glyphname = percent;
lastChange = "2025-07-10 17:04:25 +0000";
layers = (
{
layerId = m01;
shapes = (
{
closed = 1;
nodes = (
(195,-12,o),
(210,-1,o),
(229,23,cs),
(755,700,ls),
(771,721,o),
(778,737,o),
(778,750,cs),
(778,758,o),
(769,776,o),
(751,776,cs),
(737,776,o),
(717,765,o),
(691,730,cs),
(183,77,ls),
(160,48,o),
(149,28,o),
(149,15,cs),
(149,0,o),
(160,-12,o),
(184,-12,cs)
);
},
{
closed = 1;
nodes = (
(292,421,o),
(338,437,o),
(373,469,cs),
(410,503,o),
(429,548,o),
(429,604,cs),
(429,653,o),
(413,693,o),
(378,725,cs),
(343,758,o),
(297,775,o),
(242,775,cs),
(189,775,o),
(145,758,o),
(108,723,cs),
(71,687,o),
(54,646,o),
(54,598,cs),
(54,551,o),
(68,512,o),
(96,479,cs),
(125,446,o),
(175,421,o),
(235,421,cs)
);
},
{
closed = 1;
nodes = (
(728,-12,o),
(772,4,o),
(807,36,cs),
(844,70,o),
(862,115,o),
(862,171,cs),
(862,220,o),
(846,260,o),
(813,292,cs),
(779,325,o),
(733,342,o),
(676,342,cs),
(623,342,o),
(578,324,o),
(542,289,cs),
(509,257,o),
(488,212,o),
(488,168,cs),
(488,119,o),
(501,80,o),
(529,47,cs),
(563,8,o),
(612,-12,o),
(677,-12,cs)
);
},
{
closed = 1;
nodes = (
(669,31,o),
(643,47,o),
(621,78,cs),
(596,112,o),
(586,156,o),
(586,193,cs),
(586,210,o),
(588,227,o),
(592,240,cs),
(603,279,o),
(625,298,o),
(659,298,cs),
(686,298,o),
(710,283,o),
(731,251,cs),
(756,217,o),
(765,171,o),
(765,132,cs),
(765,114,o),
(763,97,o),
(759,84,cs),
(749,49,o),
(729,31,o),
(698,31,cs)
);
},
{
closed = 1;
nodes = (
(210,464,o),
(151,537,o),
(151,623,cs),
(151,643,o),
(153,660,o),
(157,673,cs),
(168,710,o),
(191,730,o),
(225,730,cs),
(253,730,o),
(277,715,o),
(298,684,cs),
(321,650,o),
(331,606,o),
(331,566,cs),
(331,533,o),
(324,503,o),
(311,486,cs),
(297,469,o),
(283,464,o),
(260,464,cs)
);
}
);
userData = {
assembly = "NPUSHB[ ]	/* 30 values pushed */
16 15 0 0 80 78 72 70 62 60 54 52 43 41 34 33 25 23 15 31 16 31 0 14 0 14 8 7 12 8
CALL[ ]	/* CallFunction */
MPPEM[ ]	/* MeasurePixelPerEm */
PUSHB[ ]	/* 1 value pushed */
9
LT[ ]	/* LessThan */
IF[ ]	/* If */
NPUSHB[ ]	/* 50 values pushed */
0 4 11 1 2 6 4 2 1 0 41 0 6 0 9 8 6 9 1 0 41 0 5 5 0 1 0 39 3 1 0 0 12 34 0 8 8 1 1 2 39 7 10 2 1 1 13 1 35 6
ELSE[ ]	/* Else */
MPPEM[ ]	/* MeasurePixelPerEm */
PUSHB[ ]	/* 1 value pushed */
13
LT[ ]	/* LessThan */
IF[ ]	/* If */
NPUSHB[ ]	/* 50 values pushed */
0 4 11 1 2 6 4 2 1 0 41 0 6 0 9 8 6 9 1 0 41 0 5 5 0 1 0 39 3 1 0 0 12 34 0 8 8 1 1 2 39 7 10 2 1 1 16 1 35 6
ELSE[ ]	/* Else */
MPPEM[ ]	/* MeasurePixelPerEm */
PUSHB[ ]	/* 1 value pushed */
17
LT[ ]	/* LessThan */
IF[ ]	/* If */
NPUSHB[ ]	/* 50 values pushed */
0 4 11 1 2 6 4 2 1 0 41 0 6 0 9 8 6 9 1 0 41 0 5 5 0 1 0 39 3 1 0 0 12 34 0 8 8 1 1 2 39 7 10 2 1 1 13 1 35 6
ELSE[ ]	/* Else */
MPPEM[ ]	/* MeasurePixelPerEm */
PUSHB[ ]	/* 1 value pushed */
21
LT[ ]	/* LessThan */
IF[ ]	/* If */
NPUSHB[ ]	/* 50 values pushed */
0 4 11 1 2 6 4 2 1 0 41 0 6 0 9 8 6 9 1 0 41 0 5 5 0 1 0 39 3 1 0 0 12 34 0 8 8 1 1 2 39 7 10 2 1 1 16 1 35 6
ELSE[ ]	/* Else */
NPUSHB[ ]	/* 50 values pushed */
0 4 11 1 2 6 4 2 1 0 41 0 6 0 9 8 6 9 1 0 41 0 5 5 0 1 0 39 3 1 0 0 12 34 0 8 8 1 1 2 39 7 10 2 1 1 13 1 35 6
EIF[ ]	/* EndIf */
EIF[ ]	/* EndIf */
EIF[ ]	/* EndIf */
EIF[ ]	/* EndIf */
PUSHB[ ]	/* 1 value pushed */
59
CALL[ ]	/* CallFunction */";
};
width = 916;
},
{
associatedMasterId = "792D4558-F830-44B3-9794-52A6ACE12B02";
layerId = "6B1252CF-E426-46DC-A9C6-391C8BFD5F20";
shapes = (
{
closed = 1;
nodes = (
(1543,1417,ls),
(1589,1477,o),
(1589,1514,qs),
(1589,1533,o),
(1556,1561,o),
(1519,1561,o),
(1508,1557,qs),
(1475,1546,o),
(1422,1473,q),
(356,104,ls),
(343,86,o),
(330,59,o),
(325,38,o),
(325,5,o),
(354,-24,o),
(392,-24,o),
(430,-13,o),
(475,44,qs)
);
},
{
closed = 1;
nodes = (
(663,854,o),
(768,950,qs),
(880,1052,o),
(880,1219,qs),
(880,1365,o),
(780,1462,qs),
(676,1561,o),
(506,1561,qs),
(349,1561,o),
(239,1456,qs),
(130,1353,o),
(130,1207,qs),
(130,1067,o),
(214,970,qs),
(258,919,o),
(403,854,o),
(492,854,qs)
);
},
{
closed = 1;
nodes = (
(630,952,o),
(579,931,o),
(508,931,o),
(424,982,o),
(359,1072,o),
(319,1194,o),
(319,1321,o),
(331,1362,qs),
(367,1482,o),
(472,1482,qs),
(558,1482,o),
(624,1386,qs),
(655,1340,o),
(692,1215,o),
(692,1028,o),
(650,976,qs)
);
},
{
closed = 1;
nodes = (
(1543,-24,o),
(1648,72,qs),
(1760,174,o),
(1760,341,qs),
(1760,487,o),
(1660,584,qs),
(1556,683,o),
(1386,683,qs),
(1229,683,o),
(1119,578,qs),
(1068,530,o),
(1010,401,o),
(1010,335,qs),
(1010,189,o),
(1094,92,qs),
(1194,-24,o),
(1388,-24,qs)
);
},
{
closed = 1;
nodes = (
(1341,53,o),
(1272,149,qs),
(1239,194,o),
(1199,316,o),
(1199,443,o),
(1211,484,qs),
(1247,604,o),
(1352,604,qs),
(1438,604,o),
(1504,508,qs),
(1572,408,o),
(1572,263,qs),
(1572,53,o),
(1432,53,qs)
);
}
);
width = 1890;
},
{
layerId = "792D4558-F830-44B3-9794-52A6ACE12B02";
shapes = (
{
closed = 1;
nodes = (
(188,-12,o),
(195,-11,o),
(201,-9,cs),
(207,-7,o),
(218,4,o),
(232,21,cs),
(753,692,ls),
(768,711,o),
(776,727,o),
(776,739,cs),
(776,754,o),
(763,762,o),
(748,762,cs),
(744,762,o),
(740,761,o),
(736,760,cs),
(726,757,o),
(712,744,o),
(694,719,cs),
(174,51,ls),
(162,36,o),
(159,25,o),
(159,11,cs),
(159,-1,o),
(170,-12,o),
(182,-12,cs)
);
},
{
closed = 1;
nodes = (
(296,417,o),
(340,432,o),
(375,464,cs),
(411,497,o),
(430,541,o),
(430,595,cs),
(430,643,o),
(413,683,o),
(381,714,cs),
(347,746,o),
(302,762,o),
(247,762,cs),
(196,762,o),
(152,745,o),
(117,711,cs),
(80,677,o),
(63,637,o),
(63,589,cs),
(63,544,o),
(77,505,o),
(104,474,cs),
(133,441,o),
(183,417,o),
(240,417,cs)
);
},
{
closed = 1;
nodes = (
(728,-12,o),
(771,4,o),
(805,35,cs),
(842,69,o),
(859,112,o),
(859,167,cs),
(859,214,o),
(844,253,o),
(811,285,cs),
(777,317,o),
(732,333,o),
(677,333,cs),
(626,333,o),
(582,316,o),
(546,282,cs),
(512,251,o),
(493,207,o),
(493,164,cs),
(493,116,o),
(507,76,o),
(534,45,cs),
(566,8,o),
(615,-12,o),
(678,-12,cs)
);
},
{
closed = 1;
nodes = (
(670,26,o),
(644,41,o),
(621,73,cs),
(595,108,o),
(585,153,o),
(585,191,cs),
(585,208,o),
(587,224,o),
(591,236,cs),
(603,275,o),
(626,295,o),
(660,295,cs),
(688,295,o),
(713,279,o),
(734,248,cs),
(757,215,o),
(768,175,o),
(768,128,cs),
(768,60,o),
(745,26,o),
(699,26,cs)
);
},
{
closed = 1;
nodes = (
(214,455,o),
(156,525,o),
(156,614,cs),
(156,635,o),
(158,652,o),
(162,665,cs),
(173,704,o),
(196,724,o),
(230,724,cs),
(258,724,o),
(283,708,o),
(305,677,cs),
(328,641,o),
(339,597,o),
(339,557,cs),
(339,524,o),
(331,494,o),
(317,477,cs),
(305,461,o),
(289,455,o),
(266,455,cs)
);
}
);
width = 923;
}
);
note = percent;
unicode = 37;
},
{
glyphname = ampersand;
lastChange = "2025-07-10 17:04:25 +0000";
layers = (
{
layerId = m01;
shapes = (
{
closed = 1;
nodes = (
(418,-11,o),
(498,26,o),
(574,101,c),
(663,16,ls),
(676,4,o),
(689,-2,o),
(702,-2,cs),
(751,0,l),
(821,-4,ls),
(857,-4,o),
(875,5,o),
(875,23,cs),
(875,32,o),
(867,39,o),
(855,39,c),
(831,35,l),
(812,35,o),
(797,40,o),
(787,51,cs),
(647,188,l),
(682,230,o),
(717,283,o),
(750,343,cs),
(769,383,o),
(790,404,o),
(815,405,c),
(839,402,l),
(852,402,o),
(862,419,o),
(862,436,cs),
(862,444,o),
(860,452,o),
(854,458,cs),
(848,463,o),
(838,467,o),
(818,467,cs),
(807,467,o),
(796,466,o),
(786,464,cs),
(774,461,o),
(762,460,o),
(749,460,cs),
(736,460,o),
(722,461,o),
(707,464,cs),
(691,466,o),
(675,467,o),
(656,467,cs),
(619,467,o),
(601,457,o),
(601,436,cs),
(601,415,o),
(612,403,o),
(625,403,cs),
(657,406,l),
(678,406,o),
(689,398,o),
(689,382,cs),
(689,343,o),
(663,291,o),
(610,224,c),
(500,327,ls),
(468,358,o),
(438,388,o),
(414,413,c),
(533,464,o),
(591,535,o),
(591,627,cs),
(591,670,o),
(574,706,o),
(542,733,cs),
(508,762,o),
(459,777,o),
(396,777,cs),
(326,777,o),
(270,759,o),
(229,724,cs),
(193,692,o),
(174,647,o),
(174,609,cs),
(174,590,o),
(175,573,o),
(178,558,cs),
(186,512,o),
(216,461,o),
(269,403,c),
(203,374,o),
(154,341,o),
(125,307,cs),
(97,274,o),
(83,233,o),
(83,184,cs),
(83,129,o),
(106,82,o),
(149,46,cs),
(195,8,o),
(256,-11,o),
(331,-11,cs)
);
},
{
closed = 1;
nodes = (
(310,62,o),
(273,73,o),
(245,96,cs),
(218,119,o),
(202,156,o),
(202,192,cs),
(202,268,o),
(235,326,o),
(303,367,c),
(537,137,l),
(485,87,o),
(426,62,o),
(359,62,cs)
);
},
{
closed = 1;
nodes = (
(318,524,ls),
(310,535,o),
(305,542,o),
(300,550,cs),
(288,569,o),
(282,592,o),
(282,618,cs),
(282,646,o),
(291,669,o),
(311,688,cs),
(330,707,o),
(353,716,o),
(381,716,cs),
(409,716,o),
(432,707,o),
(449,690,cs),
(466,674,o),
(483,642,o),
(483,603,cs),
(483,579,o),
(477,553,o),
(461,526,cs),
(442,496,o),
(414,470,o),
(379,451,c)
);
}
);
userData = {
assembly = "NPUSHB[ ]	/* 30 values pushed */
90 88 76 74 65 61 58 57 56 55 50 49 48 47 42 41 40 39 38 36 33 32 31 30 19 17 3 1 14 8
CALL[ ]	/* CallFunction */
MPPEM[ ]	/* MeasurePixelPerEm */
PUSHB[ ]	/* 1 value pushed */
13
LT[ ]	/* LessThan */
IF[ ]	/* If */
NPUSHB[ ]	/* 72 values pushed */
67 24 2 2 4 92 91 53 27 10 0 6 13 2 2 33 6 5 2 4 8 7 3 3 2 13 4 2 1 0 41 0 12 12 1 1 0 39 0 1 1 12 34 0 13 13 0 1 0 39 11 1 0 0 13 34 10 1 9 9 0 1 2 39 11 1 0 0 13 0 35 8
ELSE[ ]	/* Else */
MPPEM[ ]	/* MeasurePixelPerEm */
PUSHB[ ]	/* 1 value pushed */
17
LT[ ]	/* LessThan */
IF[ ]	/* If */
NPUSHB[ ]	/* 72 values pushed */
67 24 2 2 4 92 91 53 27 10 0 6 13 2 2 33 6 5 2 4 8 7 3 3 2 13 4 2 1 0 41 0 12 12 1 1 0 39 0 1 1 12 34 0 13 13 0 1 0 39 11 1 0 0 16 34 10 1 9 9 0 1 2 39 11 1 0 0 16 0 35 8
ELSE[ ]	/* Else */
MPPEM[ ]	/* MeasurePixelPerEm */
PUSHB[ ]	/* 1 value pushed */
21
LT[ ]	/* LessThan */
IF[ ]	/* If */
NPUSHB[ ]	/* 72 values pushed */
67 24 2 2 4 92 91 53 27 10 0 6 13 2 2 33 6 5 2 4 8 7 3 3 2 13 4 2 1 0 41 0 12 12 1 1 0 39 0 1 1 12 34 0 13 13 0 1 0 39 11 1 0 0 13 34 10 1 9 9 0 1 2 39 11 1 0 0 13 0 35 8
ELSE[ ]	/* Else */
NPUSHB[ ]	/* 72 values pushed */
67 24 2 2 4 92 91 53 27 10 0 6 13 2 2 33 6 5 2 4 8 7 3 3 2 13 4 2 1 0 41 0 12 12 1 1 0 39 0 1 1 12 34 0 13 13 0 1 0 39 11 1 0 0 16 34 10 1 9 9 0 1 2 39 11 1 0 0 16 0 35 8
EIF[ ]	/* EndIf */
EIF[ ]	/* EndIf */
EIF[ ]	/* EndIf */
PUSHB[ ]	/* 1 value pushed */
59
CALL[ ]	/* CallFunction */";
};
width = 918;
},
{
associatedMasterId = "792D4558-F830-44B3-9794-52A6ACE12B02";
layerId = "6B1252CF-E426-46DC-A9C6-391C8BFD5F20";
shapes = (
{
closed = 1;
nodes = (
(904,-19,o),
(1123,204,q),
(1227,102,ls),
(1289,42,o),
(1324,19,qs),
(1340,8,o),
(1372,-2,o),
(1426,2,qs),
(1439,3,o),
(1467,5,o),
(1479,5,qs),
(1620,-3,l),
(1723,-3,o),
(1723,49,qs),
(1723,74,o),
(1690,74,q),
(1640,66,l),
(1579,66,o),
(1546,99,qs),
(1263,374,l),
(1366,520,o),
(1476,750,qs),
(1534,871,o),
(1617,871,q),
(1666,864,l),
(1698,864,o),
(1698,892,qs),
(1698,910,o),
(1658,937,o),
(1595,937,o),
(1543,928,qs),
(1513,923,o),
(1479,923,q),
(1286,937,l),
(1232,937,o),
(1188,910,o),
(1188,893,qs),
(1188,865,o),
(1221,865,qs),
(1234,865,o),
(1250,870,qs),
(1260,874,o),
(1287,874,qs),
(1358,874,o),
(1358,820,qs),
(1358,673,o),
(1194,439,q),
(963,657,ls),
(861,753,o),
(785,834,q),
(1149,989,o),
(1149,1261,qs),
(1149,1392,o),
(1051,1474,qs),
(945,1561,o),
(759,1561,qs),
(545,1561,o),
(424,1454,qs),
(368,1406,o),
(312,1280,o),
(312,1166,o),
(320,1122,qs),
(346,988,o),
(509,811,q),
(304,720,o),
(216,617,qs),
(130,516,o),
(130,368,qs),
(130,203,o),
(262,94,qs),
(400,-19,o),
(626,-19,qs)
);
},
{
closed = 1;
nodes = (
(537,81,o),
(372,253,o),
(372,410,qs),
(372,495,o),
(414,580,qs),
(467,684,o),
(571,746,q),
(1054,272,l),
(859,81,o),
(683,81,qs)
);
},
{
closed = 1;
nodes = (
(602,1046,o),
(552,1145,qs),
(522,1205,o),
(522,1293,qs),
(522,1380,o),
(576,1432,qs),
(631,1486,o),
(719,1486,qs),
(801,1486,o),
(860,1418,qs),
(890,1382,o),
(930,1273,o),
(930,1133,o),
(889,1060,qs),
(834,963,o),
(724,903,q)
);
}
);
width = 1803;
},
{
layerId = "792D4558-F830-44B3-9794-52A6ACE12B02";
shapes = (
{
closed = 1;
nodes = (
(396,-9,o),
(477,28,o),
(548,100,c),
(599,50,ls),
(620,30,o),
(635,17,o),
(646,9,cs),
(651,6,o),
(657,3,o),
(662,2,cs),
(665,1,o),
(670,0,o),
(678,0,cs),
(683,0,o),
(689,1,o),
(696,1,cs),
(701,1,o),
(704,1,o),
(710,2,cs),
(713,2,o),
(718,2,o),
(722,2,cs),
(791,-1,ls),
(824,-1,o),
(841,7,o),
(841,24,cs),
(841,32,o),
(836,36,o),
(825,36,c),
(801,32,l),
(781,32,o),
(766,37,o),
(755,48,cs),
(617,183,l),
(650,230,o),
(685,291,o),
(721,366,cs),
(740,406,o),
(763,425,o),
(790,425,c),
(813,422,l),
(824,422,o),
(829,427,o),
(829,436,cs),
(829,449,o),
(815,457,o),
(790,457,cs),
(779,457,o),
(767,456,o),
(753,453,cs),
(744,452,o),
(733,451,o),
(722,451,cs),
(628,458,l),
(611,458,o),
(599,456,o),
(591,451,cs),
(583,446,o),
(580,441,o),
(580,436,cs),
(580,427,o),
(585,422,o),
(596,422,cs),
(601,422,o),
(605,423,o),
(610,425,cs),
(613,426,o),
(619,427,o),
(628,427,cs),
(651,427,o),
(663,418,o),
(663,400,cs),
(663,353,o),
(636,290,o),
(583,214,c),
(470,321,ls),
(437,352,o),
(407,382,o),
(383,407,c),
(502,458,o),
(561,527,o),
(561,616,cs),
(561,659,o),
(544,694,o),
(513,720,cs),
(478,748,o),
(431,762,o),
(371,762,cs),
(301,762,o),
(247,745,o),
(207,710,cs),
(172,680,o),
(152,634,o),
(152,597,cs),
(152,578,o),
(153,563,o),
(156,548,cs),
(165,503,o),
(196,453,o),
(249,396,c),
(182,367,o),
(133,334,o),
(105,301,cs),
(77,268,o),
(63,228,o),
(63,180,cs),
(63,126,o),
(85,81,o),
(128,46,cs),
(173,9,o),
(232,-9,o),
(306,-9,cs)
);
},
{
closed = 1;
nodes = (
(238,40,o),
(182,99,o),
(182,200,cs),
(182,228,o),
(189,256,o),
(202,283,cs),
(220,318,o),
(245,344,o),
(279,364,c),
(515,133,l),
(451,71,o),
(390,40,o),
(333,40,cs)
);
},
{
closed = 1;
nodes = (
(314,488,o),
(286,527,o),
(270,559,cs),
(260,578,o),
(255,602,o),
(255,631,cs),
(255,660,o),
(263,682,o),
(281,699,cs),
(299,717,o),
(322,726,o),
(351,726,cs),
(378,726,o),
(401,714,o),
(420,692,cs),
(439,671,o),
(454,634,o),
(454,594,cs),
(454,569,o),
(448,543,o),
(434,518,cs),
(416,486,o),
(389,460,o),
(354,441,c)
);
}
);
width = 880;
}
);
note = ampersand;
unicode = 38;
},
{
glyphname = quotesingle;
lastChange = "2025-07-10 17:04:21 +0000";
layers = (
{
layerId = m01;
shapes = (
{
closed = 1;
nodes = (
(183,457,l),
(190,492,o),
(196,520,o),
(203,547,cs),
(219,617,ls),
(227,657,o),
(233,685,o),
(233,717,cs),
(233,749,o),
(206,775,o),
(170,775,cs),
(134,775,o),
(104,750,o),
(104,714,cs),
(104,695,o),
(109,662,o),
(118,617,cs),
(132,547,ls),
(137,522,o),
(143,490,o),
(148,457,c)
);
}
);
userData = {
assembly = "NPUSHB[ ]	/* 6 values pushed */
13 12 5 4 2 8
CALL[ ]	/* CallFunction */
NPUSHB[ ]	/* 14 values pushed */
0 1 1 0 1 0 39 0 0 0 12 1 35 2
PUSHB[ ]	/* 1 value pushed */
59
CALL[ ]	/* CallFunction */";
};
width = 332;
},
{
associatedMasterId = "792D4558-F830-44B3-9794-52A6ACE12B02";
layerId = "6B1252CF-E426-46DC-A9C6-391C8BFD5F20";
shapes = (
{
closed = 1;
nodes = (
(280,927,l),
(306,1052,ls),
(320,1115,o),
(369,1331,qs),
(381,1382,o),
(381,1450,qs),
(381,1495,o),
(311,1561,o),
(204,1561,o),
(168,1528,qs),
(150,1512,o),
(130,1465,o),
(130,1404,o),
(147,1314,qs),
(154,1277,o),
(175,1172,o),
(199,1042,qs),
(209,985,o),
(218,927,q)
);
}
);
width = 512;
},
{
layerId = "792D4558-F830-44B3-9794-52A6ACE12B02";
shapes = (
{
closed = 1;
nodes = (
(137,453,l),
(149,514,ls),
(154,535,o),
(164,579,o),
(180,650,cs),
(184,667,o),
(186,686,o),
(186,708,cs),
(186,742,o),
(156,762,o),
(125,762,cs),
(110,762,o),
(94,757,o),
(82,746,cs),
(71,736,o),
(63,720,o),
(63,701,cs),
(63,691,o),
(66,671,o),
(72,642,cs),
(74,630,o),
(77,615,o),
(80,598,cs),
(83,581,o),
(89,551,o),
(97,509,cs),
(100,491,o),
(103,472,o),
(106,453,c)
);
}
);
width = 250;
}
);
note = quotesingle;
unicode = 39;
},
{
glyphname = parenleft;
lastChange = "2025-07-10 17:04:08 +0000";
layers = (
{
layerId = m01;
shapes = (
{
closed = 1;
nodes = (
(392,-141,o),
(406,-138,o),
(415,-133,cs),
(425,-128,o),
(429,-123,o),
(429,-117,cs),
(429,-115,o),
(429,-113,o),
(428,-109,cs),
(425,-99,o),
(420,-93,o),
(413,-93,cs),
(383,-95,ls),
(331,-95,o),
(289,-61,o),
(258,6,cs),
(223,84,o),
(205,201,o),
(205,355,cs),
(205,438,o),
(210,508,o),
(219,564,cs),
(246,724,o),
(301,805,o),
(383,805,c),
(413,803,ls),
(416,803,o),
(418,804,o),
(423,808,cs),
(428,812,o),
(429,818,o),
(429,827,cs),
(429,834,o),
(425,839,o),
(415,844,cs),
(405,849,o),
(392,851,o),
(375,851,cs),
(296,851,o),
(223,808,o),
(170,726,cs),
(111,636,o),
(81,512,o),
(81,355,cs),
(81,198,o),
(111,74,o),
(170,-16,cs),
(223,-98,o),
(296,-141,o),
(375,-141,cs)
);
}
);
userData = {
assembly = "NPUSHB[ ]	/* 18 values pushed */
0 0 0 31 0 31 25 24 23 22 18 16 9 7 2 1 7 8
CALL[ ]	/* CallFunction */
NPUSHB[ ]	/* 26 values pushed */
6 5 2 0 0 1 0 1 1 0 40 4 1 3 3 2 1 0 39 0 2 2 14 3 35 3
PUSHB[ ]	/* 1 value pushed */
59
CALL[ ]	/* CallFunction */";
};
width = 501;
},
{
associatedMasterId = "792D4558-F830-44B3-9794-52A6ACE12B02";
layerId = "6B1252CF-E426-46DC-A9C6-391C8BFD5F20";
shapes = (
{
closed = 1;
nodes = (
(781,-285,o),
(836,-259,o),
(836,-242,qs),
(836,-218,o),
(808,-218,q),
(748,-223,l),
(588,-223,o),
(490,-6,qs),
(380,240,o),
(380,715,qs),
(380,1190,o),
(490,1436,qs),
(588,1653,o),
(748,1653,q),
(808,1648,l),
(836,1648,o),
(836,1672,qs),
(836,1689,o),
(781,1715,o),
(730,1715,qs),
(613,1715,o),
(400,1589,o),
(318,1464,qs),
(140,1190,o),
(140,715,qs),
(140,240,o),
(318,-34,qs),
(400,-159,o),
(613,-285,o),
(730,-285,qs)
);
}
);
width = 836;
},
{
layerId = "792D4558-F830-44B3-9794-52A6ACE12B02";
shapes = (
{
closed = 1;
nodes = (
(373,-139,o),
(385,-137,o),
(395,-132,cs),
(404,-128,o),
(408,-123,o),
(408,-118,cs),
(408,-110,o),
(404,-106,o),
(395,-106,cs),
(365,-109,l),
(313,-109,o),
(271,-74,o),
(239,-3,cs),
(204,76,o),
(186,194,o),
(186,349,cs),
(186,504,o),
(204,622,o),
(239,701,cs),
(271,772,o),
(313,807,o),
(365,807,cs),
(395,805,ls),
(404,805,o),
(408,809,o),
(408,816,cs),
(408,822,o),
(404,827,o),
(395,831,cs),
(386,835,o),
(373,837,o),
(356,837,cs),
(280,837,o),
(208,796,o),
(155,715,cs),
(97,626,o),
(68,504,o),
(68,349,cs),
(68,194,o),
(97,72,o),
(155,-17,cs),
(208,-98,o),
(280,-139,o),
(356,-139,cs)
);
}
);
width = 408;
}
);
note = parenleft;
unicode = 40;
},
{
glyphname = asterisk;
lastChange = "2025-07-10 17:04:53 +0000";
layers = (
{
layerId = m01;
shapes = (
{
closed = 1;
nodes = (
(354,365,o),
(368,370,o),
(382,381,cs),
(395,391,o),
(404,405,o),
(404,421,cs),
(404,437,o),
(394,457,o),
(369,477,cs),
(331,505,ls),
(318,515,o),
(302,529,o),
(284,548,c),
(305,551,o),
(326,552,o),
(351,552,cs),
(402,551,ls),
(441,551,o),
(465,573,o),
(465,606,cs),
(465,623,o),
(460,637,o),
(450,649,cs),
(440,660,o),
(427,669,o),
(410,669,cs),
(396,669,o),
(378,663,o),
(357,647,cs),
(324,622,ls),
(309,610,o),
(292,600,o),
(270,591,c),
(270,610,o),
(276,635,o),
(289,667,cs),
(300,692,o),
(309,713,o),
(309,744,cs),
(309,775,o),
(284,794,o),
(252,794,cs),
(219,794,o),
(193,774,o),
(193,744,cs),
(193,729,o),
(200,699,o),
(213,656,cs),
(220,633,o),
(225,611,o),
(227,594,c),
(216,597,o),
(206,602,o),
(194,611,cs),
(161,639,ls),
(132,663,o),
(109,676,o),
(88,676,cs),
(81,676,o),
(74,674,o),
(67,671,cs),
(44,659,o),
(34,640,o),
(34,611,cs),
(34,575,o),
(62,557,o),
(119,557,cs),
(160,557,o),
(191,555,o),
(211,551,c),
(187,526,o),
(163,507,o),
(139,493,cs),
(125,485,o),
(114,477,o),
(106,469,cs),
(96,458,o),
(87,442,o),
(87,425,cs),
(87,412,o),
(92,398,o),
(106,386,cs),
(117,376,o),
(133,370,o),
(150,370,cs),
(164,370,o),
(178,374,o),
(188,386,c),
(211,419,o),
(216,468,o),
(247,523,c),
(256,505,ls),
(261,492,o),
(267,479,o),
(271,466,cs),
(277,447,o),
(282,410,o),
(302,383,cs),
(311,372,o),
(325,365,o),
(341,365,cs)
);
}
);
userData = {
assembly = "NPUSHB[ ]	/* 20 values pushed */
2 0 67 66 56 55 45 44 40 38 27 26 13 12 0 72 2 72 8 8
CALL[ ]	/* CallFunction */
NPUSHB[ ]	/* 43 values pushed */
62 50 2 0 4 21 3 2 1 0 2 33 37 1 0 1 32 2 1 1 0 1 56 6 1 4 3 7 2 0 1 4 0 1 0 41 0 5 5 18 5 35 5
PUSHB[ ]	/* 1 value pushed */
59
CALL[ ]	/* CallFunction */";
};
width = 500;
},
{
associatedMasterId = "792D4558-F830-44B3-9794-52A6ACE12B02";
layerId = "6B1252CF-E426-46DC-A9C6-391C8BFD5F20";
shapes = (
{
closed = 1;
nodes = (
(779,820,o),
(800,859,o),
(801,912,o),
(782,940,q),
(754,974,o),
(671,1029,qs),
(628,1058,o),
(575,1117,q),
(633,1127,o),
(701,1127,qs),
(803,1123,ls),
(854,1123,o),
(915,1174,o),
(915,1261,o),
(888,1296,qs),
(875,1311,o),
(839,1330,o),
(788,1330,o),
(758,1313,qs),
(742,1304,o),
(704,1277,o),
(628,1216,o),
(553,1182,q),
(564,1272,o),
(590,1337,qs),
(615,1403,ls),
(627,1434,o),
(627,1514,o),
(568,1561,o),
(483,1561,o),
(423,1511,o),
(423,1431,o),
(461,1322,qs),
(480,1265,o),
(486,1187,q),
(422,1221,o),
(369,1261,qs),
(338,1287,ls),
(321,1301,o),
(285,1326,o),
(246,1342,o),
(205,1342,o),
(188,1334,qs),
(130,1304,o),
(130,1228,qs),
(130,1164,o),
(196,1143,qs),
(225,1134,o),
(291,1133,o),
(393,1135,o),
(463,1121,q),
(403,1061,o),
(355,1029,qs),
(315,1004,ls),
(293,990,o),
(254,957,o),
(228,916,o),
(228,846,o),
(262,816,qs),
(277,803,o),
(317,788,o),
(382,788,o),
(406,818,qs),
(420,835,o),
(446,895,o),
(482,1014,o),
(517,1078,q),
(534,1042,ls),
(543,1023,o),
(559,982,o),
(572,944,o),
(596,845,o),
(622,811,qs),
(636,794,o),
(669,779,o),
(730,779,o),
(763,806,qs)
);
}
);
width = 1045;
},
{
layerId = "792D4558-F830-44B3-9794-52A6ACE12B02";
shapes = (
{
closed = 1;
nodes = (
(349,380,o),
(361,384,o),
(373,394,cs),
(383,403,o),
(390,416,o),
(390,432,cs),
(390,440,o),
(388,450,o),
(382,459,c),
(373,470,o),
(354,485,o),
(328,502,cs),
(314,512,o),
(298,527,o),
(281,545,c),
(299,548,o),
(320,550,o),
(342,550,cs),
(392,548,ls),
(430,548,o),
(447,571,o),
(447,595,cs),
(447,608,o),
(443,622,o),
(434,633,c),
(425,642,o),
(413,649,o),
(399,649,cs),
(390,649,o),
(381,647,o),
(370,641,cs),
(342,627,o),
(329,604,o),
(270,577,c),
(273,606,o),
(279,631,o),
(288,653,cs),
(300,685,ls),
(304,695,o),
(306,705,o),
(306,716,cs),
(306,730,o),
(302,743,o),
(292,751,cs),
(282,758,o),
(270,762,o),
(257,762,cs),
(229,762,o),
(207,745,o),
(207,719,cs),
(207,706,o),
(213,681,o),
(225,646,cs),
(231,627,o),
(235,605,o),
(237,580,c),
(216,591,o),
(197,603,o),
(180,616,cs),
(165,628,ls),
(151,640,o),
(129,655,o),
(109,655,cs),
(103,655,o),
(97,654,o),
(92,651,cs),
(73,642,o),
(63,625,o),
(63,600,cs),
(63,579,o),
(73,565,o),
(96,558,cs),
(115,553,o),
(133,554,o),
(156,554,cs),
(175,554,o),
(198,553,o),
(226,547,c),
(207,528,o),
(188,512,o),
(173,502,cs),
(154,490,ls),
(140,481,o),
(127,471,o),
(118,457,cs),
(115,452,o),
(111,443,o),
(111,433,cs),
(111,422,o),
(115,409,o),
(128,398,cs),
(136,391,o),
(151,385,o),
(166,385,cs),
(178,385,o),
(190,389,o),
(198,399,cs),
(220,427,o),
(223,473,o),
(252,526,c),
(261,509,ls),
(266,498,o),
(272,482,o),
(276,470,cs),
(282,452,o),
(285,421,o),
(304,396,cs),
(313,386,o),
(325,380,o),
(338,380,cs)
);
}
);
width = 510;
}
);
note = asterisk;
unicode = 42;
},
{
glyphname = plus;
lastChange = "2025-07-10 17:04:04 +0000";
layers = (
{
layerId = m01;
shapes = (
{
closed = 1;
nodes = (
(276,70,l),
(351,70,l),
(351,283,l),
(559,283,l),
(559,356,l),
(351,356,l),
(351,570,l),
(276,570,l),
(276,356,l),
(68,356,l),
(68,283,l),
(276,283,l),
(276,70,l)
);
}
);
userData = {
assembly = "NPUSHB[ ]	/* 14 values pushed */
11 10 9 8 7 6 5 4 3 2 1 0 6 8
CALL[ ]	/* CallFunction */
NPUSHB[ ]	/* 35 values pushed */
0 2 1 5 2 0 0 38 3 1 1 4 1 0 5 1 0 0 0 41 0 2 2 5 0 0 39 0 5 2 5 0 0 36 4
PUSHB[ ]	/* 1 value pushed */
59
CALL[ ]	/* CallFunction */";
};
width = 627;
},
{
associatedMasterId = "792D4558-F830-44B3-9794-52A6ACE12B02";
layerId = "6B1252CF-E426-46DC-A9C6-391C8BFD5F20";
shapes = (
{
closed = 1;
nodes = (
(713,141,l),
(713,575,l),
(1135,575,l),
(1135,712,l),
(713,712,l),
(713,1146,l),
(572,1146,l),
(572,712,l),
(150,712,l),
(150,575,l),
(572,575,l),
(572,141,l)
);
}
);
width = 1285;
},
{
layerId = "792D4558-F830-44B3-9794-52A6ACE12B02";
shapes = (
{
closed = 1;
nodes = (
(279,69,l),
(348,69,l),
(348,281,l),
(554,281,l),
(554,348,l),
(348,348,l),
(348,560,l),
(279,560,l),
(279,348,l),
(73,348,l),
(73,281,l),
(279,281,l),
(279,69,l)
);
}
);
width = 627;
}
);
note = plus;
unicode = 43;
},
{
glyphname = comma;
kernLeft = period;
lastChange = "2025-07-10 17:04:25 +0000";
layers = (
{
layerId = m01;
shapes = (
{
closed = 1;
nodes = (
(174,-168,o),
(251,-67,o),
(251,18,cs),
(251,94,o),
(216,135,o),
(159,135,cs),
(147,135,o),
(136,133,o),
(127,129,cs),
(98,117,o),
(83,95,o),
(83,62,cs),
(83,27,o),
(101,4,o),
(139,-7,cs),
(165,-15,o),
(178,-27,o),
(178,-43,cs),
(178,-55,o),
(171,-68,o),
(159,-83,cs),
(131,-118,o),
(84,-120,o),
(84,-147,cs),
(84,-161,o),
(93,-168,o),
(111,-168,cs)
);
}
);
userData = {
assembly = "NPUSHB[ ]	/* 10 values pushed */
1 0 17 15 0 21 1 21 3 8
CALL[ ]	/* CallFunction */
NPUSHB[ ]	/* 24 values pushed */
0 1 0 0 1 1 0 38 0 1 1 0 1 0 39 2 1 0 1 0 1 0 36 3
PUSHB[ ]	/* 1 value pushed */
59
CALL[ ]	/* CallFunction */";
};
width = 334;
},
{
associatedMasterId = "792D4558-F830-44B3-9794-52A6ACE12B02";
layerId = "6B1252CF-E426-46DC-A9C6-391C8BFD5F20";
shapes = (
{
closed = 1;
nodes = (
(234,-392,o),
(328,-270,qs),
(421,-148,o),
(421,-20,qs),
(421,95,o),
(324,214,o),
(239,214,qs),
(204,214,o),
(176,202,qs),
(90,166,o),
(90,70,qs),
(90,-32,o),
(200,-66,qs),
(251,-81,o),
(279,-112,o),
(283,-179,o),
(248,-222,qs),
(230,-245,o),
(176,-287,o),
(94,-324,o),
(94,-353,qs),
(94,-392,o),
(134,-392,qs)
);
}
);
width = 512;
},
{
layerId = "792D4558-F830-44B3-9794-52A6ACE12B02";
shapes = (
{
closed = 1;
nodes = (
(98,-191,o),
(129,-172,o),
(160,-132,cs),
(190,-93,o),
(206,-51,o),
(206,-10,cs),
(206,65,o),
(172,104,o),
(117,104,cs),
(106,104,o),
(95,102,o),
(86,99,cs),
(58,87,o),
(44,65,o),
(44,34,cs),
(44,1,o),
(61,-21,o),
(98,-32,cs),
(133,-43,o),
(137,-51,o),
(137,-74,cs),
(137,-84,o),
(132,-94,o),
(121,-108,cs),
(91,-148,o),
(46,-147,o),
(46,-172,cs),
(46,-185,o),
(52,-191,o),
(65,-191,cs)
);
}
);
width = 250;
}
);
note = comma;
unicode = 44;
},
{
glyphname = hyphen;
lastChange = "2025-07-10 17:04:25 +0000";
layers = (
{
layerId = m01;
shapes = (
{
closed = 1;
nodes = (
(325,273,ls),
(351,273,o),
(364,290,o),
(364,308,cs),
(364,326,o),
(350,345,o),
(324,345,cs),
(103,345,ls),
(77,345,o),
(63,326,o),
(63,308,cs),
(63,290,o),
(76,273,o),
(102,273,cs)
);
}
);
userData = {
assembly = "NPUSHB[ ]	/* 10 values pushed */
0 0 0 11 0 9 6 3 3 8
CALL[ ]	/* CallFunction */
NPUSHB[ ]	/* 24 values pushed */
0 0 1 1 0 1 0 38 0 0 0 1 1 0 39 2 1 1 0 1 1 0 36 3
PUSHB[ ]	/* 1 value pushed */
59
CALL[ ]	/* CallFunction */";
};
width = 427;
},
{
associatedMasterId = "792D4558-F830-44B3-9794-52A6ACE12B02";
layerId = "6B1252CF-E426-46DC-A9C6-391C8BFD5F20";
shapes = (
{
closed = 1;
nodes = (
(664,553,ls),
(696,553,o),
(735,590,o),
(735,622,qs),
(735,690,o),
(662,690,qs),
(213,690,ls),
(140,690,o),
(140,622,qs),
(140,590,o),
(179,553,o),
(211,553,qs)
);
}
);
width = 875;
},
{
layerId = "792D4558-F830-44B3-9794-52A6ACE12B02";
shapes = (
{
closed = 1;
nodes = (
(324,270,ls),
(345,270,o),
(359,283,o),
(359,304,cs),
(359,326,o),
(347,337,o),
(323,337,cs),
(104,337,ls),
(80,337,o),
(68,326,o),
(68,304,cs),
(68,283,o),
(82,270,o),
(103,270,cs)
);
}
);
width = 427;
}
);
note = hyphen;
unicode = 45;
},
{
glyphname = period;
kernLeft = period;
kernRight = period;
lastChange = "2025-07-10 17:04:08 +0000";
layers = (
{
layerId = m01;
shapes = (
{
closed = 1;
nodes = (
(193,-12,o),
(211,-3,o),
(228,14,cs),
(242,29,o),
(250,47,o),
(250,66,cs),
(250,89,o),
(244,107,o),
(230,124,cs),
(215,142,o),
(194,152,o),
(169,152,cs),
(144,152,o),
(124,144,o),
(107,126,cs),
(92,111,o),
(83,89,o),
(83,70,cs),
(83,37,o),
(102,-12,o),
(174,-12,cs)
);
}
);
userData = {
assembly = "NPUSHB[ ]	/* 6 values pushed */
14 13 7 5 2 8
CALL[ ]	/* CallFunction */
MPPEM[ ]	/* MeasurePixelPerEm */
PUSHB[ ]	/* 1 value pushed */
9
LT[ ]	/* LessThan */
IF[ ]	/* If */
NPUSHB[ ]	/* 14 values pushed */
0 0 0 1 1 0 39 0 1 1 13 1 35 2
ELSE[ ]	/* Else */
MPPEM[ ]	/* MeasurePixelPerEm */
PUSHB[ ]	/* 1 value pushed */
13
LT[ ]	/* LessThan */
IF[ ]	/* If */
NPUSHB[ ]	/* 14 values pushed */
0 0 0 1 1 0 39 0 1 1 16 1 35 2
ELSE[ ]	/* Else */
MPPEM[ ]	/* MeasurePixelPerEm */
PUSHB[ ]	/* 1 value pushed */
17
LT[ ]	/* LessThan */
IF[ ]	/* If */
NPUSHB[ ]	/* 14 values pushed */
0 0 0 1 1 0 39 0 1 1 13 1 35 2
ELSE[ ]	/* Else */
MPPEM[ ]	/* MeasurePixelPerEm */
PUSHB[ ]	/* 1 value pushed */
21
LT[ ]	/* LessThan */
IF[ ]	/* If */
NPUSHB[ ]	/* 14 values pushed */
0 0 0 1 1 0 39 0 1 1 16 1 35 2
ELSE[ ]	/* Else */
NPUSHB[ ]	/* 14 values pushed */
0 0 0 1 1 0 39 0 1 1 13 1 35 2
EIF[ ]	/* EndIf */
EIF[ ]	/* EndIf */
EIF[ ]	/* EndIf */
EIF[ ]	/* EndIf */
PUSHB[ ]	/* 1 value pushed */
59
CALL[ ]	/* CallFunction */";
};
width = 334;
},
{
associatedMasterId = "792D4558-F830-44B3-9794-52A6ACE12B02";
layerId = "6B1252CF-E426-46DC-A9C6-391C8BFD5F20";
shapes = (
{
closed = 1;
nodes = (
(419,73,o),
(419,129,qs),
(419,193,o),
(380,242,qs),
(335,298,o),
(259,298,qs),
(186,298,o),
(138,248,qs),
(116,225,o),
(92,165,o),
(92,107,o),
(111,52,o),
(151,6,o),
(212,-24,o),
(325,-24,o),
(374,27,qs)
);
}
);
width = 512;
},
{
layerId = "792D4558-F830-44B3-9794-52A6ACE12B02";
shapes = (
{
closed = 1;
nodes = (
(150,-12,o),
(167,-4,o),
(183,13,cs),
(198,29,o),
(205,45,o),
(205,63,cs),
(205,84,o),
(198,103,o),
(186,118,cs),
(171,137,o),
(151,146,o),
(126,146,cs),
(103,146,o),
(83,138,o),
(67,121,cs),
(54,107,o),
(45,86,o),
(45,67,cs),
(45,29,o),
(68,-12,o),
(132,-12,cs)
);
}
);
width = 250;
}
);
note = period;
unicode = 46;
},
{
glyphname = slash;
lastChange = "2025-07-10 17:04:25 +0000";
layers = (
{
layerId = m01;
shapes = (
{
closed = 1;
nodes = (
(62,-137,o),
(72,-142,o),
(82,-142,cs),
(97,-142,o),
(113,-132,o),
(123,-105,cs),
(437,771,ls),
(444,788,o),
(448,805,o),
(448,818,cs),
(448,831,o),
(432,845,o),
(413,845,cs),
(409,845,o),
(404,844,o),
(399,842,cs),
(385,837,o),
(370,815,o),
(356,776,cs),
(71,-19,ls),
(55,-62,o),
(44,-87,o),
(44,-104,cs),
(44,-114,o),
(48,-122,o),
(55,-130,cs)
);
}
);
userData = {
assembly = "NPUSHB[ ]	/* 10 values pushed */
0 0 0 14 0 14 8 7 3 8
CALL[ ]	/* CallFunction */
NPUSHB[ ]	/* 13 values pushed */
2 1 1 0 1 56 0 0 0 14 0 35 2
PUSHB[ ]	/* 1 value pushed */
59
CALL[ ]	/* CallFunction */";
};
width = 492;
},
{
associatedMasterId = "792D4558-F830-44B3-9794-52A6ACE12B02";
layerId = "6B1252CF-E426-46DC-A9C6-391C8BFD5F20";
shapes = (
{
closed = 1;
nodes = (
(886,1559,ls),
(908,1615,o),
(908,1654,qs),
(908,1672,o),
(880,1703,o),
(840,1703,o),
(826,1698,qs),
(787,1681,o),
(743,1567,qs),
(135,-102,ls),
(123,-134,o),
(116,-154,qs),
(106,-188,ls),
(102,-200,o),
(100,-214,o),
(100,-244,o),
(130,-285,o),
(214,-285,o),
(240,-217,qs)
);
}
);
width = 1008;
},
{
layerId = "792D4558-F830-44B3-9794-52A6ACE12B02";
shapes = (
{
closed = 1;
nodes = (
(97,-139,o),
(108,-129,o),
(117,-106,cs),
(433,761,ls),
(440,780,o),
(443,795,o),
(443,808,cs),
(443,822,o),
(432,832,o),
(417,832,cs),
(413,832,o),
(408,831,o),
(403,829,cs),
(391,824,o),
(377,802,o),
(363,765,cs),
(66,-50,ls),
(62,-60,o),
(59,-68,o),
(57,-75,cs),
(52,-92,ls),
(49,-101,o),
(49,-101,o),
(49,-111,cs),
(49,-121,o),
(56,-139,o),
(84,-139,cs)
);
}
);
width = 492;
}
);
note = slash;
unicode = 47;
},
{
glyphname = zero;
lastChange = "2025-07-10 17:04:08 +0000";
layers = (
{
layerId = m01;
shapes = (
{
closed = 1;
nodes = (
(474,-11,o),
(545,23,o),
(600,92,cs),
(660,169,o),
(689,273,o),
(689,406,cs),
(689,507,o),
(663,592,o),
(611,663,cs),
(555,738,o),
(479,777,o),
(384,777,cs),
(287,777,o),
(210,740,o),
(152,663,cs),
(98,592,o),
(68,486,o),
(68,391,cs),
(68,228,o),
(122,111,o),
(229,39,cs),
(277,6,o),
(330,-11,o),
(387,-11,cs)
);
},
{
closed = 1;
nodes = (
(362,62,o),
(302,97,o),
(260,165,cs),
(217,234,o),
(189,329,o),
(189,472,cs),
(189,543,o),
(205,602,o),
(235,645,cs),
(264,685,o),
(304,706,o),
(353,706,cs),
(416,706,o),
(466,673,o),
(506,604,cs),
(547,534,o),
(567,444,o),
(567,331,cs),
(567,236,o),
(551,165,o),
(521,120,cs),
(493,77,o),
(458,62,o),
(410,62,cs)
);
}
);
userData = {
assembly = "NPUSHB[ ]	/* 10 values pushed */
28 26 19 18 14 12 6 4 4 8
CALL[ ]	/* CallFunction */
MPPEM[ ]	/* MeasurePixelPerEm */
PUSHB[ ]	/* 1 value pushed */
13
LT[ ]	/* LessThan */
IF[ ]	/* If */
NPUSHB[ ]	/* 26 values pushed */
0 3 3 0 1 0 39 0 0 0 12 34 0 2 2 1 1 0 39 0 1 1 13 1 35 4
ELSE[ ]	/* Else */
MPPEM[ ]	/* MeasurePixelPerEm */
PUSHB[ ]	/* 1 value pushed */
17
LT[ ]	/* LessThan */
IF[ ]	/* If */
NPUSHB[ ]	/* 26 values pushed */
0 3 3 0 1 0 39 0 0 0 12 34 0 2 2 1 1 0 39 0 1 1 16 1 35 4
ELSE[ ]	/* Else */
MPPEM[ ]	/* MeasurePixelPerEm */
PUSHB[ ]	/* 1 value pushed */
21
LT[ ]	/* LessThan */
IF[ ]	/* If */
NPUSHB[ ]	/* 26 values pushed */
0 3 3 0 1 0 39 0 0 0 12 34 0 2 2 1 1 0 39 0 1 1 13 1 35 4
ELSE[ ]	/* Else */
NPUSHB[ ]	/* 26 values pushed */
0 3 3 0 1 0 39 0 0 0 12 34 0 2 2 1 1 0 39 0 1 1 16 1 35 4
EIF[ ]	/* EndIf */
EIF[ ]	/* EndIf */
EIF[ ]	/* EndIf */
PUSHB[ ]	/* 1 value pushed */
59
CALL[ ]	/* CallFunction */";
};
width = 749;
},
{
associatedMasterId = "792D4558-F830-44B3-9794-52A6ACE12B02";
layerId = "6B1252CF-E426-46DC-A9C6-391C8BFD5F20";
shapes = (
{
closed = 1;
nodes = (
(1043,-20,o),
(1208,187,qs),
(1389,414,o),
(1389,818,qs),
(1389,1120,o),
(1231,1333,qs),
(1062,1561,o),
(776,1561,qs),
(482,1561,o),
(308,1332,qs),
(226,1225,o),
(140,930,o),
(140,786,qs),
(140,418,o),
(332,196,qs),
(521,-20,o),
(780,-20,qs)
);
},
{
closed = 1;
nodes = (
(1012,155,o),
(902,93,o),
(752,93,o),
(583,207,o),
(453,423,o),
(375,733,o),
(375,1175,o),
(470,1316,qs),
(562,1452,o),
(712,1452,qs),
(904,1452,o),
(1026,1234,qs),
(1150,1016,o),
(1150,667,qs),
(1150,375,o),
(1055,224,qs)
);
}
);
width = 1529;
},
{
layerId = "792D4558-F830-44B3-9794-52A6ACE12B02";
shapes = (
{
closed = 1;
nodes = (
(466,-10,o),
(536,24,o),
(590,91,cs),
(648,164,o),
(678,268,o),
(678,399,cs),
(678,498,o),
(652,582,o),
(601,651,cs),
(547,724,o),
(472,762,o),
(379,762,cs),
(283,762,o),
(207,725,o),
(150,650,cs),
(97,581,o),
(68,477,o),
(68,384,cs),
(68,264,o),
(100,167,o),
(162,96,cs),
(223,26,o),
(296,-10,o),
(381,-10,cs)
);
},
{
closed = 1;
nodes = (
(355,45,o),
(296,83,o),
(253,154,cs),
(210,225,o),
(183,322,o),
(183,466,cs),
(183,538,o),
(199,598,o),
(229,643,cs),
(259,687,o),
(299,709,o),
(348,709,cs),
(410,709,o),
(461,674,o),
(501,603,cs),
(542,531,o),
(562,439,o),
(562,326,cs),
(562,231,o),
(546,158,o),
(515,109,cs),
(487,65,o),
(452,45,o),
(404,45,cs)
);
}
);
width = 747;
}
);
note = zero;
unicode = 48;
},
{
glyphname = one;
lastChange = "2025-07-10 17:04:25 +0000";
layers = (
{
layerId = m01;
shapes = (
{
closed = 1;
nodes = (
(310,-7,o),
(318,-7,o),
(325,-7,cs),
(348,-7,o),
(364,-4,o),
(372,3,cs),
(378,9,o),
(381,17,o),
(381,24,cs),
(381,34,o),
(375,43,o),
(363,43,c),
(331,40,l),
(308,40,o),
(296,47,o),
(285,71,cs),
(279,83,o),
(276,110,o),
(276,153,cs),
(276,613,ls),
(276,648,o),
(277,679,o),
(279,707,cs),
(281,721,o),
(284,737,o),
(284,750,cs),
(284,764,o),
(280,775,o),
(270,775,cs),
(265,775,o),
(261,774,o),
(256,771,cs),
(229,750,ls),
(215,740,o),
(192,728,o),
(162,715,cs),
(107,689,o),
(33,670,o),
(33,650,cs),
(33,639,o),
(42,636,o),
(55,636,cs),
(74,636,o),
(100,643,o),
(117,643,cs),
(134,643,o),
(147,633,o),
(153,615,cs),
(160,595,o),
(163,565,o),
(163,524,cs),
(163,153,ls),
(163,133,o),
(162,116,o),
(160,101,cs),
(156,60,o),
(138,40,o),
(107,40,c),
(61,45,l),
(53,45,o),
(42,35,o),
(42,24,cs),
(42,17,o),
(46,10,o),
(55,3,cs),
(66,-4,o),
(78,-7,o),
(101,-7,cs),
(116,-7,o),
(135,-6,o),
(161,-4,cs),
(189,-1,ls),
(199,0,o),
(208,0,o),
(219,0,cs),
(229,0,o),
(238,0,o),
(247,-1,cs),
(273,-4,ls),
(282,-5,o),
(290,-5,o),
(301,-6,cs)
);
}
);
userData = {
assembly = "NPUSHB[ ]	/* 26 values pushed */
0 0 0 55 0 55 46 44 35 34 33 31 25 24 23 22 17 16 13 12 9 8 2 1 11 8
CALL[ ]	/* CallFunction */
NPUSHB[ ]	/* 40 values pushed */
49 1 6 8 1 33 7 1 6 8 0 8 6 0 53 0 8 8 12 34 10 9 5 4 4 0 0 1 1 0 39 3 2 2 1 1 13 1 35 5
PUSHB[ ]	/* 1 value pushed */
59
CALL[ ]	/* CallFunction */";
};
width = 416;
},
{
associatedMasterId = "792D4558-F830-44B3-9794-52A6ACE12B02";
layerId = "6B1252CF-E426-46DC-A9C6-391C8BFD5F20";
shapes = (
{
closed = 1;
nodes = (
(790,0,o),
(827,30,o),
(827,46,qs),
(827,73,o),
(794,73,q),
(730,66,l),
(673,66,o),
(652,102,qs),
(642,120,o),
(614,197,o),
(614,321,qs),
(614,1238,ls),
(614,1338,o),
(619,1423,qs),
(621,1457,o),
(627,1506,o),
(627,1561,o),
(590,1561,o),
(525,1514,qs),
(483,1483,o),
(389,1440,qs),
(347,1420,o),
(259,1385,o),
(189,1360,o),
(130,1332,o),
(130,1314,qs),
(130,1289,o),
(158,1289,q),
(295,1303,l),
(350,1303,o),
(392,1185,o),
(392,1058,qs),
(392,321,ls),
(392,279,o),
(385,157,o),
(354,102,qs),
(333,66,o),
(276,66,q),
(182,76,l),
(149,76,o),
(149,44,qs),
(149,30,o),
(203,-4,o),
(318,2,qs),
(336,3,o),
(368,6,o),
(425,15,o),
(503,15,qs),
(532,15,o),
(568,13,qs),
(585,12,o),
(617,9,o),
(692,0,o),
(750,0,qs)
);
}
);
width = 930;
},
{
layerId = "792D4558-F830-44B3-9794-52A6ACE12B02";
shapes = (
{
closed = 1;
nodes = (
(379,0,o),
(389,3,o),
(395,8,cs),
(402,13,o),
(404,17,o),
(404,22,cs),
(404,31,o),
(399,36,o),
(388,36,c),
(356,32,l),
(338,32,o),
(326,37,o),
(318,50,cs),
(314,57,o),
(311,66,o),
(307,78,cs),
(302,90,o),
(300,116,o),
(300,157,cs),
(300,604,ls),
(300,637,o),
(301,668,o),
(302,695,cs),
(303,712,o),
(306,733,o),
(306,749,cs),
(306,758,o),
(304,762,o),
(298,762,cs),
(290,762,o),
(277,754,o),
(256,739,cs),
(243,729,o),
(221,717,o),
(190,703,cs),
(163,690,o),
(132,678,o),
(109,670,cs),
(86,662,o),
(63,653,o),
(63,642,cs),
(63,633,o),
(68,629,o),
(77,629,c),
(144,636,l),
(162,636,o),
(175,626,o),
(181,608,cs),
(188,588,o),
(191,558,o),
(191,517,cs),
(191,157,ls),
(191,129,o),
(193,86,o),
(173,50,cs),
(167,39,o),
(154,32,o),
(135,32,c),
(89,37,l),
(78,37,o),
(73,32,o),
(73,21,cs),
(73,17,o),
(77,13,o),
(86,7,cs),
(92,3,o),
(107,0,o),
(130,0,cs),
(137,0,o),
(146,1,o),
(155,1,cs),
(181,1,o),
(184,7,o),
(246,7,cs),
(255,7,o),
(265,7,o),
(277,6,cs),
(287,6,o),
(302,4,o),
(320,2,cs),
(331,1,o),
(347,0,o),
(366,0,cs)
);
}
);
width = 454;
}
);
note = one;
unicode = 49;
},
{
glyphname = two;
lastChange = "2025-07-10 17:04:25 +0000";
layers = (
{
layerId = m01;
shapes = (
{
closed = 1;
nodes = (
(544,0,l),
(551,32,o),
(558,59,o),
(565,80,cs),
(583,128,o),
(606,167,o),
(606,185,cs),
(606,194,o),
(602,198,o),
(593,198,cs),
(588,198,o),
(581,193,o),
(569,180,cs),
(516,125,o),
(442,97,o),
(347,97,cs),
(163,97,l),
(176,124,o),
(202,157,o),
(240,196,cs),
(266,223,o),
(310,259,o),
(371,305,cs),
(452,366,o),
(509,419,o),
(541,462,cs),
(573,504,o),
(589,547,o),
(589,592,cs),
(589,649,o),
(566,694,o),
(521,727,cs),
(478,759,o),
(420,777,o),
(329,777,cs),
(284,777,o),
(236,768,o),
(189,751,cs),
(160,740,o),
(127,720,o),
(90,690,c),
(90,553,ls),
(90,537,o),
(96,529,o),
(109,529,cs),
(111,529,o),
(115,531,o),
(120,535,cs),
(125,539,o),
(129,546,o),
(132,558,cs),
(143,603,o),
(166,639,o),
(201,666,cs),
(234,692,o),
(274,706,o),
(318,706,cs),
(361,706,o),
(396,696,o),
(419,678,cs),
(444,657,o),
(456,629,o),
(456,592,cs),
(456,549,o),
(445,510,o),
(421,473,cs),
(399,438,o),
(358,395,o),
(298,343,cs),
(211,267,o),
(148,201,o),
(112,148,cs),
(81,101,o),
(67,60,o),
(67,34,cs),
(67,12,o),
(76,0,o),
(91,0,cs)
);
}
);
userData = {
assembly = "NPUSHB[ ]	/* 18 values pushed */
1 0 52 50 38 37 32 30 25 23 10 8 0 54 1 54 7 8
CALL[ ]	/* CallFunction */
NPUSHB[ ]	/* 48 values pushed */
34 1 3 2 1 33 0 3 2 0 2 3 0 53 6 1 0 5 2 0 5 51 0 2 2 4 1 0 39 0 4 4 12 34 0 5 5 1 1 0 39 0 1 1 13 1 35 7
PUSHB[ ]	/* 1 value pushed */
59
CALL[ ]	/* CallFunction */";
};
width = 668;
},
{
associatedMasterId = "792D4558-F830-44B3-9794-52A6ACE12B02";
layerId = "6B1252CF-E426-46DC-A9C6-391C8BFD5F20";
shapes = (
{
closed = 1;
nodes = (
(1116,0,l),
(1141,105,o),
(1159,158,qs),
(1170,190,o),
(1196,252,o),
(1240,348,o),
(1240,391,o),
(1204,391,o),
(1174,358,qs),
(1016,187,o),
(721,187,qs),
(335,187,l),
(415,352,o),
(765,618,qs),
(1008,801,o),
(1109,934,qs),
(1206,1061,o),
(1206,1196,qs),
(1206,1367,o),
(1070,1464,qs),
(1005,1511,o),
(820,1561,o),
(545,1561,o),
(402,1512,qs),
(314,1482,o),
(204,1392,q),
(204,1116,ls),
(204,1073,o),
(237,1073,qs),
(250,1073,o),
(274,1110,o),
(278,1128,qs),
(314,1272,o),
(420,1363,qs),
(526,1454,o),
(661,1454,qs),
(791,1454,o),
(869,1384,qs),
(946,1314,o),
(946,1196,qs),
(946,1063,o),
(874,951,qs),
(806,846,o),
(624,686,qs),
(351,447,o),
(249,294,qs),
(198,218,o),
(160,94,o),
(160,20,o),
(184,0,o),
(201,0,qs)
);
}
);
width = 1380;
},
{
layerId = "792D4558-F830-44B3-9794-52A6ACE12B02";
shapes = (
{
closed = 1;
nodes = (
(545,0,l),
(553,34,o),
(560,60,o),
(566,77,cs),
(578,115,o),
(605,162,o),
(605,181,cs),
(605,188,o),
(602,191,o),
(597,191,cs),
(591,191,o),
(583,186,o),
(573,175,cs),
(521,118,o),
(448,91,o),
(352,91,cs),
(164,91,l),
(190,145,o),
(261,216,o),
(374,302,cs),
(452,361,o),
(509,413,o),
(542,456,cs),
(573,497,o),
(589,540,o),
(589,584,cs),
(589,639,o),
(567,683,o),
(522,715,cs),
(482,745,o),
(418,763,o),
(345,763,cs),
(297,763,o),
(246,755,o),
(196,738,cs),
(168,729,o),
(135,709,o),
(100,680,c),
(100,545,ls),
(100,531,o),
(105,524,o),
(116,524,cs),
(124,524,o),
(133,538,o),
(136,551,cs),
(147,597,o),
(170,636,o),
(205,666,cs),
(239,695,o),
(279,710,o),
(323,710,cs),
(365,710,o),
(398,699,o),
(424,676,cs),
(450,653,o),
(462,623,o),
(462,584,cs),
(462,541,o),
(450,500,o),
(427,464,cs),
(405,430,o),
(364,387,o),
(305,335,cs),
(216,257,o),
(155,194,o),
(122,144,cs),
(89,94,o),
(77,56,o),
(77,32,cs),
(77,11,o),
(86,0,o),
(98,0,cs)
);
}
);
width = 674;
}
);
note = two;
unicode = 50;
},
{
glyphname = three;
lastChange = "2025-07-10 17:04:25 +0000";
layers = (
{
layerId = m01;
shapes = (
{
closed = 1;
nodes = (
(389,-12,o),
(452,11,o),
(508,56,cs),
(568,104,o),
(598,164,o),
(598,235,cs),
(598,290,o),
(581,335,o),
(546,373,cs),
(514,408,o),
(471,430,o),
(419,439,c),
(460,458,o),
(494,483,o),
(521,514,cs),
(548,546,o),
(561,577,o),
(561,608,cs),
(561,661,o),
(540,702,o),
(497,732,cs),
(451,765,o),
(387,777,o),
(331,777,cs),
(308,777,o),
(286,775,o),
(268,772,cs),
(205,762,o),
(149,741,o),
(100,708,c),
(100,577,ls),
(100,561,o),
(105,553,o),
(114,553,cs),
(134,553,o),
(131,600,o),
(160,639,cs),
(192,684,o),
(240,706,o),
(305,706,cs),
(348,706,o),
(382,696,o),
(407,677,cs),
(433,657,o),
(446,629,o),
(446,593,cs),
(446,520,o),
(395,468,o),
(296,439,cs),
(247,424,o),
(223,411,o),
(223,398,cs),
(223,391,o),
(225,385,o),
(228,380,cs),
(231,373,o),
(235,370,o),
(244,370,cs),
(251,370,o),
(260,372,o),
(275,376,cs),
(282,378,o),
(289,379,o),
(296,379,cs),
(345,379,o),
(389,362,o),
(428,328,cs),
(468,293,o),
(489,250,o),
(489,199,cs),
(489,155,o),
(473,121,o),
(438,95,cs),
(408,73,o),
(370,62,o),
(324,62,cs),
(276,62,o),
(235,72,o),
(200,93,cs),
(163,115,o),
(134,149,o),
(123,194,cs),
(117,217,o),
(108,227,o),
(101,227,cs),
(94,227,o),
(88,218,o),
(88,203,cs),
(88,55,l),
(151,11,o),
(230,-12,o),
(321,-12,cs)
);
}
);
userData = {
assembly = "NPUSHB[ ]	/* 22 values pushed */
1 0 47 46 41 39 35 33 22 21 19 17 11 9 5 4 0 62 1 62 9 8
CALL[ ]	/* CallFunction */
MPPEM[ ]	/* MeasurePixelPerEm */
PUSHB[ ]	/* 1 value pushed */
9
LT[ ]	/* LessThan */
IF[ ]	/* If */
NPUSHB[ ]	/* 64 values pushed */
43 1 5 7 55 1 3 6 2 1 0 2 3 33 0 6 5 3 5 6 3 53 4 1 3 1 5 3 1 51 0 1 2 5 1 2 51 0 5 5 7 1 0 39 0 7 7 12 34 0 2 2 0 1 0 39 8 1 0 0 13 0 35 8
ELSE[ ]	/* Else */
MPPEM[ ]	/* MeasurePixelPerEm */
PUSHB[ ]	/* 1 value pushed */
13
LT[ ]	/* LessThan */
IF[ ]	/* If */
NPUSHB[ ]	/* 64 values pushed */
43 1 5 7 55 1 3 6 2 1 0 2 3 33 0 6 5 3 5 6 3 53 4 1 3 1 5 3 1 51 0 1 2 5 1 2 51 0 5 5 7 1 0 39 0 7 7 12 34 0 2 2 0 1 0 39 8 1 0 0 16 0 35 8
ELSE[ ]	/* Else */
MPPEM[ ]	/* MeasurePixelPerEm */
PUSHB[ ]	/* 1 value pushed */
17
LT[ ]	/* LessThan */
IF[ ]	/* If */
NPUSHB[ ]	/* 64 values pushed */
43 1 5 7 55 1 3 6 2 1 0 2 3 33 0 6 5 3 5 6 3 53 4 1 3 1 5 3 1 51 0 1 2 5 1 2 51 0 5 5 7 1 0 39 0 7 7 12 34 0 2 2 0 1 0 39 8 1 0 0 13 0 35 8
ELSE[ ]	/* Else */
MPPEM[ ]	/* MeasurePixelPerEm */
PUSHB[ ]	/* 1 value pushed */
21
LT[ ]	/* LessThan */
IF[ ]	/* If */
NPUSHB[ ]	/* 64 values pushed */
43 1 5 7 55 1 3 6 2 1 0 2 3 33 0 6 5 3 5 6 3 53 4 1 3 1 5 3 1 51 0 1 2 5 1 2 51 0 5 5 7 1 0 39 0 7 7 12 34 0 2 2 0 1 0 39 8 1 0 0 16 0 35 8
ELSE[ ]	/* Else */
NPUSHB[ ]	/* 64 values pushed */
43 1 5 7 55 1 3 6 2 1 0 2 3 33 0 6 5 3 5 6 3 53 4 1 3 1 5 3 1 51 0 1 2 5 1 2 51 0 5 5 7 1 0 39 0 7 7 12 34 0 2 2 0 1 0 39 8 1 0 0 13 0 35 8
EIF[ ]	/* EndIf */
EIF[ ]	/* EndIf */
EIF[ ]	/* EndIf */
EIF[ ]	/* EndIf */
PUSHB[ ]	/* 1 value pushed */
59
CALL[ ]	/* CallFunction */";
};
width = 666;
},
{
associatedMasterId = "792D4558-F830-44B3-9794-52A6ACE12B02";
layerId = "6B1252CF-E426-46DC-A9C6-391C8BFD5F20";
shapes = (
{
closed = 1;
nodes = (
(790,-24,o),
(917,38,qs),
(1051,104,o),
(1128,212,qs),
(1215,332,o),
(1215,473,qs),
(1215,640,o),
(1105,752,qs),
(1001,858,o),
(841,883,q),
(970,937,o),
(1054,1034,qs),
(1138,1131,o),
(1138,1229,qs),
(1138,1385,o),
(1011,1474,qs),
(885,1561,o),
(667,1561,qs),
(414,1561,o),
(215,1428,q),
(215,1165,ls),
(215,1122,o),
(238,1122,qs),
(249,1122,o),
(265,1143,o),
(291,1249,o),
(325,1302,qs),
(425,1460,o),
(625,1460,qs),
(753,1460,o),
(916,1312,o),
(916,1198,qs),
(916,1081,o),
(757,924,o),
(585,874,qs),
(463,837,o),
(463,798,qs),
(463,770,o),
(498,770,qs),
(517,770,o),
(554,783,qs),
(572,789,o),
(607,789,qs),
(756,789,o),
(876,674,qs),
(1002,556,o),
(1002,398,qs),
(1002,258,o),
(896,168,qs),
(797,84,o),
(664,84,qs),
(519,84,o),
(408,161,qs),
(352,200,o),
(268,317,o),
(237,450,o),
(213,450,qs),
(190,450,o),
(190,407,qs),
(190,110,l),
(383,-24,o),
(657,-24,qs)
);
}
);
width = 1355;
},
{
layerId = "792D4558-F830-44B3-9794-52A6ACE12B02";
shapes = (
{
closed = 1;
nodes = (
(364,-12,o),
(406,-2,o),
(448,19,cs),
(491,40,o),
(526,69,o),
(551,104,cs),
(579,143,o),
(593,185,o),
(593,231,cs),
(593,286,o),
(576,330,o),
(540,367,cs),
(506,402,o),
(463,423,o),
(411,431,c),
(453,449,o),
(488,474,o),
(515,505,cs),
(542,536,o),
(556,568,o),
(556,600,cs),
(556,651,o),
(535,691,o),
(494,720,cs),
(453,748,o),
(397,762,o),
(326,762,cs),
(243,762,o),
(169,740,o),
(105,697,c),
(105,569,ls),
(105,555,o),
(109,548,o),
(116,548,cs),
(136,548,o),
(129,590,o),
(159,636,cs),
(192,688,o),
(240,713,o),
(305,713,cs),
(389,713,o),
(447,660,o),
(447,585,cs),
(447,509,o),
(398,459,o),
(286,427,cs),
(246,415,o),
(226,403,o),
(226,390,cs),
(226,381,o),
(232,376,o),
(243,376,cs),
(249,376,o),
(258,378,o),
(271,382,cs),
(276,384,o),
(285,385,o),
(296,385,cs),
(345,385,o),
(389,366,o),
(428,329,cs),
(469,290,o),
(489,245,o),
(489,194,cs),
(489,149,o),
(473,112,o),
(438,82,cs),
(406,55,o),
(367,41,o),
(324,41,cs),
(277,41,o),
(236,53,o),
(199,79,cs),
(162,105,o),
(134,144,o),
(124,188,cs),
(119,208,o),
(112,220,o),
(104,220,cs),
(97,220,o),
(93,213,o),
(93,199,cs),
(93,54,l),
(156,10,o),
(232,-12,o),
(321,-12,cs)
);
}
);
width = 662;
}
);
note = three;
unicode = 51;
},
{
glyphname = four;
lastChange = "2025-07-10 17:04:25 +0000";
layers = (
{
layerId = m01;
shapes = (
{
closed = 1;
nodes = (
(501,-7,o),
(509,-7,o),
(516,-7,cs),
(539,-7,o),
(555,-4,o),
(563,3,cs),
(569,9,o),
(572,17,o),
(572,25,cs),
(572,34,o),
(566,43,o),
(553,43,c),
(522,40,l),
(499,40,o),
(487,49,o),
(476,76,cs),
(470,89,o),
(467,118,o),
(467,161,cs),
(467,228,l),
(504,228,o),
(533,225,o),
(558,218,cs),
(586,210,o),
(602,192,o),
(610,192,cs),
(614,192,o),
(620,204,o),
(629,230,cs),
(651,292,o),
(668,313,o),
(668,320,cs),
(668,328,o),
(664,332,o),
(655,332,cs),
(651,332,o),
(644,329,o),
(635,323,cs),
(630,320,o),
(623,316,o),
(617,313,cs),
(596,302,o),
(568,296,o),
(535,296,cs),
(467,296,l),
(467,746,ls),
(467,768,o),
(461,779,o),
(450,779,cs),
(438,779,o),
(422,759,o),
(403,736,c),
(403,737,l),
(40,294,ls),
(24,275,o),
(15,259,o),
(15,249,cs),
(15,244,o),
(18,239,o),
(24,235,cs),
(29,231,o),
(42,228,o),
(59,228,cs),
(353,228,l),
(353,161,ls),
(353,118,o),
(349,87,o),
(342,70,cs),
(335,51,o),
(320,40,o),
(298,40,c),
(251,45,l),
(244,45,o),
(233,35,o),
(233,23,cs),
(233,16,o),
(237,9,o),
(245,3,cs),
(256,-4,o),
(269,-7,o),
(292,-7,cs),
(307,-7,o),
(327,-6,o),
(352,-4,cs),
(380,-1,ls),
(390,0,o),
(399,0,o),
(410,0,cs),
(420,0,o),
(429,0,o),
(438,-1,cs),
(464,-4,ls),
(473,-5,o),
(481,-5,o),
(492,-6,cs)
);
},
{
closed = 1;
nodes = (
(141,296,l),
(128,296,o),
(121,297,o),
(121,300,cs),
(121,305,o),
(125,313,o),
(134,325,cs),
(353,592,l),
(353,296,l),
(141,296,l)
);
}
);
userData = {
assembly = "NPUSHB[ ]	/* 34 values pushed */
0 0 75 73 0 69 0 69 65 64 59 57 51 49 45 43 41 39 31 29 25 24 23 22 17 16 13 12 9 8 2 1 15 8
CALL[ ]	/* CallFunction */
NPUSHB[ ]	/* 61 values pushed */
76 37 36 3 9 7 1 33 0 9 7 8 7 9 8 53 0 10 6 0 6 10 0 53 13 1 8 11 1 6 10 8 6 1 0 41 0 7 7 12 34 14 12 5 4 4 0 0 1 1 0 39 3 2 2 1 1 13 1 35 7
PUSHB[ ]	/* 1 value pushed */
59
CALL[ ]	/* CallFunction */";
};
width = 669;
},
{
associatedMasterId = "792D4558-F830-44B3-9794-52A6ACE12B02";
layerId = "6B1252CF-E426-46DC-A9C6-391C8BFD5F20";
shapes = (
{
closed = 1;
nodes = (
(1164,0,o),
(1201,30,o),
(1201,46,qs),
(1201,73,o),
(1168,73,q),
(1104,66,l),
(1047,66,o),
(1026,102,qs),
(1016,120,o),
(988,197,o),
(988,321,qs),
(988,462,l),
(999,462,ls),
(1115,462,o),
(1184,444,qs),
(1214,436,o),
(1250,416,o),
(1273,389,o),
(1283,389,qs),
(1298,389,o),
(1306,429,qs),
(1325,525,o),
(1374,599,qs),
(1395,632,o),
(1395,643,qs),
(1395,663,o),
(1375,663,qs),
(1364,663,o),
(1336,646,qs),
(1319,635,o),
(1299,624,qs),
(1235,591,o),
(1130,591,qs),
(988,591,l),
(988,1508,ls),
(988,1570,o),
(959,1570,qs),
(938,1570,o),
(885,1507,qs),
(131,588,ls),
(80,526,o),
(80,499,qs),
(80,462,o),
(166,462,qs),
(766,462,l),
(766,321,ls),
(766,279,o),
(759,157,o),
(728,102,qs),
(707,66,o),
(650,66,q),
(556,76,l),
(523,76,o),
(523,44,qs),
(523,30,o),
(577,-4,o),
(692,2,qs),
(710,3,o),
(742,6,o),
(799,15,o),
(877,15,qs),
(906,15,o),
(942,13,qs),
(959,12,o),
(991,9,o),
(1066,0,o),
(1124,0,qs)
);
},
{
closed = 1;
nodes = (
(286,591,o),
(286,622,o),
(315,656,qs),
(766,1209,l),
(766,591,l),
(331,591,ls)
);
}
);
width = 1445;
},
{
layerId = "792D4558-F830-44B3-9794-52A6ACE12B02";
shapes = (
{
closed = 1;
nodes = (
(574,0,o),
(586,13,o),
(586,22,cs),
(586,31,o),
(581,36,o),
(570,36,c),
(539,32,l),
(520,32,o),
(507,39,o),
(501,50,cs),
(497,57,o),
(494,65,o),
(489,78,cs),
(484,91,o),
(482,116,o),
(482,157,cs),
(482,226,l),
(488,226,ls),
(525,226,o),
(555,223,o),
(578,217,cs),
(616,207,o),
(616,190,o),
(626,190,cs),
(631,190,o),
(635,196,o),
(638,209,cs),
(644,240,o),
(655,268,o),
(671,292,cs),
(678,304,o),
(681,311,o),
(681,314,cs),
(681,321,o),
(678,324,o),
(671,324,cs),
(668,324,o),
(661,321,o),
(652,315,cs),
(647,312,o),
(640,308,o),
(634,305,cs),
(613,294,o),
(586,289,o),
(552,289,cs),
(482,289,l),
(482,736,ls),
(482,757,o),
(477,767,o),
(468,767,cs),
(461,767,o),
(449,756,o),
(432,736,cs),
(64,287,ls),
(48,268,o),
(39,253,o),
(39,244,cs),
(39,232,o),
(53,226,o),
(81,226,cs),
(374,226,l),
(374,157,ls),
(374,129,o),
(377,87,o),
(355,50,cs),
(349,39,o),
(336,32,o),
(317,32,c),
(271,37,l),
(260,37,o),
(255,32,o),
(255,21,cs),
(255,17,o),
(259,13,o),
(269,7,cs),
(275,3,o),
(290,0,o),
(313,0,cs),
(320,0,o),
(329,1,o),
(338,1,cs),
(350,1,o),
(357,2,o),
(376,5,cs),
(385,6,o),
(403,7,o),
(428,7,cs),
(437,7,o),
(447,7,o),
(460,6,cs),
(478,6,o),
(504,0,o),
(549,0,cs)
);
},
{
closed = 1;
nodes = (
(162,289,l),
(147,289,o),
(140,292,o),
(140,297,cs),
(140,302,o),
(145,310,o),
(154,320,cs),
(374,590,l),
(374,289,l),
(162,289,l)
);
}
);
width = 706;
}
);
note = four;
unicode = 52;
},
{
glyphname = five;
lastChange = "2025-07-10 17:04:25 +0000";
layers = (
{
layerId = m01;
shapes = (
{
closed = 1;
nodes = (
(375,-12,o),
(444,11,o),
(501,55,cs),
(567,104,o),
(599,169,o),
(599,251,cs),
(599,327,o),
(575,389,o),
(525,438,cs),
(472,490,o),
(391,515,o),
(312,515,cs),
(259,515,o),
(206,504,o),
(162,483,c),
(162,665,l),
(489,665,l),
(491,682,o),
(498,708,o),
(511,746,cs),
(523,782,ls),
(527,793,o),
(529,801,o),
(529,806,cs),
(529,815,o),
(525,819,o),
(516,819,cs),
(512,819,o),
(504,814,o),
(493,804,cs),
(476,788,o),
(449,776,o),
(415,769,cs),
(393,764,o),
(351,762,o),
(287,762,cs),
(134,762,ls),
(121,762,o),
(114,756,o),
(111,742,c),
(111,407,ls),
(111,392,o),
(116,384,o),
(127,384,cs),
(131,384,o),
(135,386,o),
(139,390,cs),
(154,402,ls),
(181,427,o),
(226,440,o),
(289,440,cs),
(346,440,o),
(394,419,o),
(430,380,cs),
(465,342,o),
(485,286,o),
(485,230,cs),
(485,202,o),
(483,180,o),
(478,163,cs),
(457,91,o),
(406,56,o),
(323,56,cs),
(271,56,o),
(227,68,o),
(188,94,cs),
(118,139,o),
(108,227,o),
(83,227,cs),
(74,227,o),
(69,219,o),
(69,203,cs),
(69,55,l),
(85,44,o),
(103,34,o),
(124,25,cs),
(181,0,o),
(238,-12,o),
(297,-12,cs)
);
}
);
userData = {
assembly = "NPUSHB[ ]	/* 20 values pushed */
57 56 50 48 44 41 38 36 33 31 25 23 18 16 11 9 2 1 9 8
CALL[ ]	/* CallFunction */
MPPEM[ ]	/* MeasurePixelPerEm */
PUSHB[ ]	/* 1 value pushed */
9
LT[ ]	/* LessThan */
IF[ ]	/* If */
NPUSHB[ ]	/* 72 values pushed */
40 1 8 6 0 1 4 0 14 1 1 3 3 33 0 7 6 7 55 0 5 4 2 4 5 2 53 0 2 3 4 2 3 51 0 8 8 6 1 0 39 0 6 6 12 34 0 4 4 0 1 0 39 0 0 0 15 34 0 3 3 1 1 0 39 0 1 1 13 1 35 10
ELSE[ ]	/* Else */
MPPEM[ ]	/* MeasurePixelPerEm */
PUSHB[ ]	/* 1 value pushed */
13
LT[ ]	/* LessThan */
IF[ ]	/* If */
NPUSHB[ ]	/* 72 values pushed */
40 1 8 6 0 1 4 0 14 1 1 3 3 33 0 7 6 7 55 0 5 4 2 4 5 2 53 0 2 3 4 2 3 51 0 8 8 6 1 0 39 0 6 6 12 34 0 4 4 0 1 0 39 0 0 0 15 34 0 3 3 1 1 0 39 0 1 1 16 1 35 10
ELSE[ ]	/* Else */
MPPEM[ ]	/* MeasurePixelPerEm */
PUSHB[ ]	/* 1 value pushed */
17
LT[ ]	/* LessThan */
IF[ ]	/* If */
NPUSHB[ ]	/* 72 values pushed */
40 1 8 6 0 1 4 0 14 1 1 3 3 33 0 7 6 7 55 0 5 4 2 4 5 2 53 0 2 3 4 2 3 51 0 8 8 6 1 0 39 0 6 6 12 34 0 4 4 0 1 0 39 0 0 0 15 34 0 3 3 1 1 0 39 0 1 1 13 1 35 10
ELSE[ ]	/* Else */
MPPEM[ ]	/* MeasurePixelPerEm */
PUSHB[ ]	/* 1 value pushed */
21
LT[ ]	/* LessThan */
IF[ ]	/* If */
NPUSHB[ ]	/* 72 values pushed */
40 1 8 6 0 1 4 0 14 1 1 3 3 33 0 7 6 7 55 0 5 4 2 4 5 2 53 0 2 3 4 2 3 51 0 8 8 6 1 0 39 0 6 6 12 34 0 4 4 0 1 0 39 0 0 0 15 34 0 3 3 1 1 0 39 0 1 1 16 1 35 10
ELSE[ ]	/* Else */
NPUSHB[ ]	/* 72 values pushed */
40 1 8 6 0 1 4 0 14 1 1 3 3 33 0 7 6 7 55 0 5 4 2 4 5 2 53 0 2 3 4 2 3 51 0 8 8 6 1 0 39 0 6 6 12 34 0 4 4 0 1 0 39 0 0 0 15 34 0 3 3 1 1 0 39 0 1 1 13 1 35 10
EIF[ ]	/* EndIf */
EIF[ ]	/* EndIf */
EIF[ ]	/* EndIf */
EIF[ ]	/* EndIf */
PUSHB[ ]	/* 1 value pushed */
59
CALL[ ]	/* CallFunction */";
};
width = 666;
},
{
associatedMasterId = "792D4558-F830-44B3-9794-52A6ACE12B02";
layerId = "6B1252CF-E426-46DC-A9C6-391C8BFD5F20";
shapes = (
{
closed = 1;
nodes = (
(849,-24,o),
(1027,109,qs),
(1224,256,o),
(1224,504,qs),
(1224,732,o),
(1076,878,qs),
(1004,950,o),
(794,1033,o),
(466,1033,o),
(338,967,q),
(338,1326,l),
(1001,1326,l),
(1012,1411,o),
(1058,1531,qs),
(1081,1589,o),
(1081,1608,qs),
(1081,1629,o),
(1061,1629,qs),
(1051,1629,o),
(1014,1596,qs),
(961,1547,o),
(855,1526,qs),
(790,1513,o),
(596,1513,qs),
(286,1513,ls),
(250,1513,o),
(245,1477,q),
(245,841,ls),
(245,800,o),
(273,800,qs),
(287,800,o),
(323,834,qs),
(426,929,o),
(579,929,qs),
(755,929,o),
(879,788,qs),
(936,723,o),
(1002,548,o),
(1002,341,o),
(970,270,qs),
(885,84,o),
(670,84,qs),
(514,84,o),
(393,171,qs),
(336,212,o),
(250,326,o),
(201,450,o),
(183,450,qs),
(160,450,o),
(160,407,qs),
(160,110,l),
(209,75,o),
(268,50,qs),
(441,-24,o),
(617,-24,qs)
);
}
);
width = 1364;
},
{
layerId = "792D4558-F830-44B3-9794-52A6ACE12B02";
shapes = (
{
closed = 1;
nodes = (
(377,-12,o),
(444,10,o),
(501,53,cs),
(566,101,o),
(598,165,o),
(598,246,cs),
(598,320,o),
(574,381,o),
(525,429,cs),
(473,481,o),
(393,505,o),
(314,505,cs),
(260,505,o),
(207,494,o),
(165,472,c),
(165,647,l),
(489,647,l),
(492,674,o),
(502,709,o),
(517,748,cs),
(524,766,o),
(528,779,o),
(528,785,cs),
(528,792,o),
(525,795,o),
(518,795,cs),
(515,795,o),
(506,789,o),
(495,779,cs),
(478,763,o),
(452,752,o),
(417,745,cs),
(396,741,o),
(354,739,o),
(291,739,cs),
(140,739,ls),
(128,739,o),
(121,732,o),
(120,721,c),
(120,411,ls),
(120,398,o),
(124,391,o),
(133,391,cs),
(138,391,o),
(147,397,o),
(158,407,cs),
(191,438,o),
(233,454,o),
(283,454,cs),
(340,454,o),
(389,431,o),
(429,385,cs),
(473,335,o),
(489,271,o),
(489,216,cs),
(489,183,o),
(483,154,o),
(474,132,cs),
(446,71,o),
(397,41,o),
(327,41,cs),
(276,41,o),
(231,55,o),
(192,83,cs),
(155,111,o),
(126,149,o),
(110,190,cs),
(102,210,o),
(95,220,o),
(89,220,cs),
(82,220,o),
(78,213,o),
(78,199,cs),
(78,54,l),
(95,42,o),
(111,33,o),
(131,24,cs),
(187,0,o),
(244,-12,o),
(301,-12,cs)
);
}
);
width = 666;
}
);
note = five;
unicode = 53;
},
{
glyphname = six;
lastChange = "2025-07-10 17:04:21 +0000";
layers = (
{
layerId = m01;
shapes = (
{
closed = 1;
nodes = (
(409,-12,o),
(471,13,o),
(524,61,cs),
(585,116,o),
(615,188,o),
(615,278,cs),
(615,347,o),
(594,402,o),
(550,447,cs),
(510,490,o),
(448,514,o),
(388,514,cs),
(358,514,o),
(331,511,o),
(309,506,cs),
(236,488,o),
(185,448,o),
(158,389,c),
(162,493,o),
(184,573,o),
(224,628,cs),
(262,680,o),
(313,706,o),
(376,706,cs),
(453,706,o),
(505,681,o),
(531,632,cs),
(538,617,o),
(545,611,o),
(554,611,cs),
(558,611,o),
(561,613,o),
(566,618,cs),
(569,621,o),
(572,630,o),
(572,643,cs),
(572,661,o),
(566,679,o),
(554,698,cs),
(535,730,o),
(500,758,o),
(442,771,cs),
(422,775,o),
(399,777,o),
(371,777,cs),
(342,777,o),
(313,772,o),
(285,763,cs),
(226,743,o),
(177,709,o),
(136,660,cs),
(71,583,o),
(38,490,o),
(38,382,cs),
(38,259,o),
(66,162,o),
(121,92,cs),
(175,23,o),
(248,-12,o),
(340,-12,cs)
);
},
{
closed = 1;
nodes = (
(321,59,o),
(280,75,o),
(243,109,cs),
(206,144,o),
(180,196,o),
(167,261,c),
(177,318,o),
(198,362,o),
(230,395,cs),
(260,425,o),
(295,440,o),
(334,440,cs),
(377,440,o),
(415,421,o),
(446,384,cs),
(479,346,o),
(501,290,o),
(501,206,cs),
(501,122,o),
(449,59,o),
(370,59,cs)
);
}
);
userData = {
assembly = "NPUSHB[ ]	/* 20 values pushed */
1 0 51 49 44 42 31 30 24 22 20 18 10 9 0 38 1 38 8 8
CALL[ ]	/* CallFunction */
MPPEM[ ]	/* MeasurePixelPerEm */
PUSHB[ ]	/* 1 value pushed */
9
LT[ ]	/* LessThan */
IF[ ]	/* If */
NPUSHB[ ]	/* 54 values pushed */
39 27 2 5 6 1 33 0 2 3 4 3 2 4 53 0 3 3 1 1 0 39 0 1 1 12 34 0 6 6 4 1 0 39 0 4 4 15 34 0 5 5 0 1 0 39 7 1 0 0 13 0 35 8
ELSE[ ]	/* Else */
MPPEM[ ]	/* MeasurePixelPerEm */
PUSHB[ ]	/* 1 value pushed */
13
LT[ ]	/* LessThan */
IF[ ]	/* If */
NPUSHB[ ]	/* 54 values pushed */
39 27 2 5 6 1 33 0 2 3 4 3 2 4 53 0 3 3 1 1 0 39 0 1 1 12 34 0 6 6 4 1 0 39 0 4 4 15 34 0 5 5 0 1 0 39 7 1 0 0 16 0 35 8
ELSE[ ]	/* Else */
MPPEM[ ]	/* MeasurePixelPerEm */
PUSHB[ ]	/* 1 value pushed */
17
LT[ ]	/* LessThan */
IF[ ]	/* If */
NPUSHB[ ]	/* 54 values pushed */
39 27 2 5 6 1 33 0 2 3 4 3 2 4 53 0 3 3 1 1 0 39 0 1 1 12 34 0 6 6 4 1 0 39 0 4 4 15 34 0 5 5 0 1 0 39 7 1 0 0 13 0 35 8
ELSE[ ]	/* Else */
MPPEM[ ]	/* MeasurePixelPerEm */
PUSHB[ ]	/* 1 value pushed */
21
LT[ ]	/* LessThan */
IF[ ]	/* If */
NPUSHB[ ]	/* 54 values pushed */
39 27 2 5 6 1 33 0 2 3 4 3 2 4 53 0 3 3 1 1 0 39 0 1 1 12 34 0 6 6 4 1 0 39 0 4 4 15 34 0 5 5 0 1 0 39 7 1 0 0 16 0 35 8
ELSE[ ]	/* Else */
NPUSHB[ ]	/* 54 values pushed */
39 27 2 5 6 1 33 0 2 3 4 3 2 4 53 0 3 3 1 1 0 39 0 1 1 12 34 0 6 6 4 1 0 39 0 4 4 15 34 0 5 5 0 1 0 39 7 1 0 0 13 0 35 8
EIF[ ]	/* EndIf */
EIF[ ]	/* EndIf */
EIF[ ]	/* EndIf */
EIF[ ]	/* EndIf */
PUSHB[ ]	/* 1 value pushed */
59
CALL[ ]	/* CallFunction */";
};
width = 667;
},
{
associatedMasterId = "792D4558-F830-44B3-9794-52A6ACE12B02";
layerId = "6B1252CF-E426-46DC-A9C6-391C8BFD5F20";
shapes = (
{
closed = 1;
nodes = (
(973,-24,o),
(1136,122,qs),
(1319,284,o),
(1319,560,qs),
(1319,762,o),
(1180,892,qs),
(1114,953,o),
(934,1021,o),
(749,1021,o),
(680,1001,qs),
(476,941,o),
(391,762,q),
(399,1093,o),
(529,1283,qs),
(654,1465,o),
(850,1465,qs),
(1073,1465,o),
(1158,1300,qs),
(1179,1259,o),
(1205,1259,qs),
(1232,1259,o),
(1232,1321,o),
(1215,1379,o),
(1178,1437,o),
(1118,1492,o),
(1031,1535,o),
(914,1561,o),
(743,1561,o),
(656,1532,qs),
(482,1476,o),
(356,1328,qs),
(160,1096,o),
(160,771,qs),
(160,397,o),
(326,184,qs),
(490,-24,o),
(768,-24,qs)
);
},
{
closed = 1;
nodes = (
(680,90,o),
(568,202,qs),
(450,320,o),
(409,524,q),
(439,705,o),
(530,808,qs),
(622,911,o),
(755,911,qs),
(885,911,o),
(986,786,qs),
(1036,724,o),
(1098,542,o),
(1098,280,o),
(1024,186,qs),
(948,90,o),
(828,90,qs)
);
}
);
width = 1459;
},
{
layerId = "792D4558-F830-44B3-9794-52A6ACE12B02";
shapes = (
{
closed = 1;
nodes = (
(442,-12,o),
(502,12,o),
(555,60,cs),
(615,113,o),
(644,184,o),
(644,273,cs),
(644,339,o),
(622,393,o),
(576,436,cs),
(525,482,o),
(462,499,o),
(405,499,cs),
(379,499,o),
(354,495,o),
(332,489,cs),
(265,469,o),
(218,429,o),
(191,372,c),
(194,481,o),
(216,565,o),
(258,626,cs),
(299,686,o),
(351,715,o),
(415,715,cs),
(488,715,o),
(538,688,o),
(565,635,cs),
(572,622,o),
(580,615,o),
(588,615,cs),
(599,615,o),
(603,623,o),
(603,634,cs),
(603,642,o),
(601,651,o),
(598,659,cs),
(592,677,o),
(580,698,o),
(561,716,cs),
(542,733,o),
(513,748,o),
(475,756,cs),
(457,760,o),
(435,762,o),
(412,762,cs),
(383,762,o),
(352,758,o),
(320,748,cs),
(263,730,o),
(215,697,o),
(174,648,cs),
(110,573,o),
(78,482,o),
(78,376,cs),
(78,255,o),
(105,159,o),
(159,90,cs),
(213,21,o),
(284,-12,o),
(375,-12,cs)
);
},
{
closed = 1;
nodes = (
(356,44,o),
(314,62,o),
(277,99,cs),
(239,137,o),
(213,190,o),
(200,256,c),
(209,314,o),
(229,361,o),
(259,395,cs),
(289,428,o),
(326,445,o),
(369,445,cs),
(411,445,o),
(448,425,o),
(481,384,cs),
(515,343,o),
(536,286,o),
(536,201,cs),
(536,158,o),
(524,122,o),
(500,91,cs),
(475,59,o),
(443,44,o),
(404,44,cs)
);
}
);
width = 712;
}
);
note = six;
unicode = 54;
},
{
glyphname = seven;
lastChange = "2025-07-10 17:04:25 +0000";
layers = (
{
layerId = m01;
shapes = (
{
closed = 1;
nodes = (
(250,0,l),
(305,-4,ls),
(316,-4,o),
(323,2,o),
(325,15,cs),
(342,114,o),
(368,217,o),
(404,328,cs),
(441,443,o),
(521,650,o),
(565,739,c),
(568,744,o),
(570,748,o),
(570,751,cs),
(570,758,o),
(561,762,o),
(538,762,cs),
(173,762,ls),
(144,762,o),
(126,766,o),
(120,773,cs),
(109,787,o),
(101,793,o),
(94,793,cs),
(75,793,o),
(76,752,o),
(63,705,cs),
(37,622,ls),
(34,612,o),
(33,604,o),
(33,596,cs),
(33,587,o),
(37,583,o),
(45,583,cs),
(50,583,o),
(56,587,o),
(64,595,c),
(103,642,o),
(145,665,o),
(191,665,cs),
(472,665,l),
(398,518,l),
(325,366,ls),
(300,313,o),
(261,226,o),
(209,107,cs),
(184,48,o),
(174,15,o),
(177,8,cs),
(180,-1,o),
(186,-4,o),
(197,-4,cs)
);
}
);
userData = {
assembly = "NPUSHB[ ]	/* 14 values pushed */
38 37 28 25 23 21 15 13 11 9 2 1 6 8
CALL[ ]	/* CallFunction */
NPUSHB[ ]	/* 39 values pushed */
0 1 0 2 1 33 0 2 1 0 1 2 0 53 0 3 3 18 34 0 1 1 4 1 0 39 0 4 4 12 34 5 1 0 0 13 0 35 6
PUSHB[ ]	/* 1 value pushed */
59
CALL[ ]	/* CallFunction */";
};
width = 583;
},
{
associatedMasterId = "792D4558-F830-44B3-9794-52A6ACE12B02";
layerId = "6B1252CF-E426-46DC-A9C6-391C8BFD5F20";
shapes = (
{
closed = 1;
nodes = (
(504,8,l),
(615,0,l),
(646,0,o),
(651,34,qs),
(699,321,o),
(837,734,qs),
(921,984,o),
(1118,1425,qs),
(1137,1467,ls),
(1145,1484,o),
(1145,1508,o),
(1119,1513,o),
(1087,1513,qs),
(347,1513,ls),
(290,1513,o),
(266,1519,qs),
(254,1522,o),
(241,1531,o),
(205,1576,o),
(188,1576,qs),
(179,1576,o),
(162,1557,o),
(139,1428,o),
(103,1314,qs),
(89,1270,o),
(70,1205,o),
(70,1160,o),
(105,1160,o),
(123,1183,qs),
(238,1326,o),
(384,1326,qs),
(962,1326,l),
(810,1029,l),
(674,752,l),
(556,504,l),
(462,296,ls),
(421,203,o),
(369,68,o),
(357,20,o),
(377,0,o),
(397,0,q)
);
}
);
width = 1175;
},
{
layerId = "792D4558-F830-44B3-9794-52A6ACE12B02";
shapes = (
{
closed = 1;
nodes = (
(246,4,l),
(300,0,ls),
(310,0,o),
(316,6,o),
(318,17,cs),
(333,110,o),
(364,225,o),
(409,358,cs),
(436,439,o),
(482,552,o),
(546,696,cs),
(555,716,ls),
(558,722,o),
(559,726,o),
(559,730,cs),
(559,738,o),
(551,739,o),
(531,739,cs),
(169,739,ls),
(151,739,o),
(138,740,o),
(130,742,cs),
(112,745,o),
(109,770,o),
(92,770,cs),
(75,770,o),
(73,712,o),
(50,642,cs),
(41,614,o),
(37,592,o),
(37,578,cs),
(37,568,o),
(39,563,o),
(43,563,cs),
(47,563,o),
(53,568,o),
(60,578,cs),
(98,625,o),
(140,647,o),
(188,647,cs),
(470,647,l),
(396,502,l),
(329,367,l),
(271,246,l),
(226,145,ls),
(196,77,o),
(177,35,o),
(177,15,cs),
(177,5,o),
(182,0,o),
(194,0,c)
);
}
);
width = 574;
}
);
note = seven;
unicode = 55;
},
{
glyphname = eight;
lastChange = "2025-07-10 17:04:21 +0000";
layers = (
{
layerId = m01;
shapes = (
{
closed = 1;
nodes = (
(426,-12,o),
(498,11,o),
(555,57,cs),
(608,100,o),
(635,153,o),
(635,215,cs),
(635,292,o),
(581,358,o),
(474,413,c),
(510,431,o),
(539,457,o),
(560,489,cs),
(582,522,o),
(594,559,o),
(594,597,cs),
(594,646,o),
(570,688,o),
(525,722,cs),
(476,759,o),
(413,777,o),
(336,777,cs),
(258,777,o),
(195,757,o),
(145,716,cs),
(101,680,o),
(78,633,o),
(78,589,cs),
(78,522,o),
(118,462,o),
(200,409,c),
(153,394,o),
(114,369,o),
(83,333,cs),
(51,296,o),
(34,253,o),
(34,207,cs),
(34,147,o),
(58,97,o),
(104,58,cs),
(157,12,o),
(236,-12,o),
(337,-12,cs)
);
},
{
closed = 1;
nodes = (
(298,62,o),
(244,76,o),
(203,104,cs),
(164,131,o),
(141,169,o),
(141,214,cs),
(141,236,o),
(144,256,o),
(150,273,cs),
(168,324,o),
(204,358,o),
(261,375,c),
(294,360,ls),
(362,332,o),
(412,306,o),
(445,282,cs),
(486,253,o),
(515,218,o),
(515,176,cs),
(515,155,o),
(512,138,o),
(504,123,cs),
(483,83,o),
(436,62,o),
(364,62,cs)
);
},
{
closed = 1;
nodes = (
(408,442,o),
(398,446,o),
(390,449,cs),
(319,476,o),
(268,506,o),
(233,541,cs),
(205,569,o),
(191,595,o),
(191,619,cs),
(191,675,o),
(239,706,o),
(326,706,cs),
(437,706,o),
(492,664,o),
(492,580,cs),
(492,568,o),
(490,555,o),
(487,542,cs),
(478,497,o),
(455,463,o),
(416,439,c)
);
}
);
userData = {
assembly = "NPUSHB[ ]	/* 10 values pushed */
51 49 32 30 22 20 7 5 4 8
CALL[ ]	/* CallFunction */
MPPEM[ ]	/* MeasurePixelPerEm */
PUSHB[ ]	/* 1 value pushed */
9
LT[ ]	/* LessThan */
IF[ ]	/* If */
NPUSHB[ ]	/* 35 values pushed */
59 40 14 0 4 3 2 1 33 0 2 2 1 1 0 39 0 1 1 12 34 0 3 3 0 1 0 39 0 0 0 13 0 35 5
ELSE[ ]	/* Else */
MPPEM[ ]	/* MeasurePixelPerEm */
PUSHB[ ]	/* 1 value pushed */
13
LT[ ]	/* LessThan */
IF[ ]	/* If */
NPUSHB[ ]	/* 35 values pushed */
59 40 14 0 4 3 2 1 33 0 2 2 1 1 0 39 0 1 1 12 34 0 3 3 0 1 0 39 0 0 0 16 0 35 5
ELSE[ ]	/* Else */
MPPEM[ ]	/* MeasurePixelPerEm */
PUSHB[ ]	/* 1 value pushed */
17
LT[ ]	/* LessThan */
IF[ ]	/* If */
NPUSHB[ ]	/* 35 values pushed */
59 40 14 0 4 3 2 1 33 0 2 2 1 1 0 39 0 1 1 12 34 0 3 3 0 1 0 39 0 0 0 13 0 35 5
ELSE[ ]	/* Else */
MPPEM[ ]	/* MeasurePixelPerEm */
PUSHB[ ]	/* 1 value pushed */
21
LT[ ]	/* LessThan */
IF[ ]	/* If */
NPUSHB[ ]	/* 35 values pushed */
59 40 14 0 4 3 2 1 33 0 2 2 1 1 0 39 0 1 1 12 34 0 3 3 0 1 0 39 0 0 0 16 0 35 5
ELSE[ ]	/* Else */
NPUSHB[ ]	/* 35 values pushed */
59 40 14 0 4 3 2 1 33 0 2 2 1 1 0 39 0 1 1 12 34 0 3 3 0 1 0 39 0 0 0 13 0 35 5
EIF[ ]	/* EndIf */
EIF[ ]	/* EndIf */
EIF[ ]	/* EndIf */
EIF[ ]	/* EndIf */
PUSHB[ ]	/* 1 value pushed */
59
CALL[ ]	/* CallFunction */";
};
width = 667;
},
{
associatedMasterId = "792D4558-F830-44B3-9794-52A6ACE12B02";
layerId = "6B1252CF-E426-46DC-A9C6-391C8BFD5F20";
shapes = (
{
closed = 1;
nodes = (
(1005,-24,o),
(1176,114,qs),
(1338,245,o),
(1338,431,qs),
(1338,668,o),
(1007,833,q),
(1060,859,o),
(1106,898,qs),
(1255,1026,o),
(1255,1205,qs),
(1255,1351,o),
(1118,1452,qs),
(971,1561,o),
(738,1561,qs),
(501,1561,o),
(353,1442,qs),
(218,1334,o),
(218,1189,qs),
(218,973,o),
(469,821,q),
(327,780,o),
(230,670,qs),
(130,555,o),
(130,414,qs),
(130,235,o),
(269,116,qs),
(432,-24,o),
(740,-24,qs)
);
},
{
closed = 1;
nodes = (
(598,66,o),
(464,176,qs),
(404,226,o),
(336,359,o),
(336,498,o),
(355,552,qs),
(411,714,o),
(579,763,q),
(615,746,ls),
(634,738,o),
(738,695,o),
(820,656,qs),
(1114,515,o),
(1114,338,qs),
(1114,216,o),
(1023,140,qs),
(933,66,o),
(793,66,qs)
);
},
{
closed = 1;
nodes = (
(845,901,ls),
(623,980,o),
(516,1095,qs),
(472,1143,o),
(439,1229,o),
(439,1303,o),
(454,1342,qs),
(506,1470,o),
(696,1470,qs),
(859,1470,o),
(959,1385,qs),
(1006,1345,o),
(1058,1235,o),
(1058,1135,o),
(1050,1094,qs),
(1019,950,o),
(899,880,q)
);
}
);
width = 1468;
},
{
layerId = "792D4558-F830-44B3-9794-52A6ACE12B02";
shapes = (
{
closed = 1;
nodes = (
(448,-12,o),
(519,11,o),
(574,56,cs),
(627,99,o),
(653,150,o),
(653,210,cs),
(653,287,o),
(599,353,o),
(492,407,c),
(509,415,o),
(525,425,o),
(540,438,cs),
(589,480,o),
(613,530,o),
(613,588,cs),
(613,636,o),
(591,676,o),
(546,709,cs),
(497,745,o),
(436,762,o),
(360,762,cs),
(283,762,o),
(221,743,o),
(172,704,cs),
(127,668,o),
(106,628,o),
(106,581,cs),
(106,510,o),
(146,451,o),
(229,401,c),
(184,388,o),
(144,363,o),
(112,327,cs),
(79,289,o),
(63,248,o),
(63,202,cs),
(63,144,o),
(85,96,o),
(131,57,cs),
(184,11,o),
(261,-12,o),
(361,-12,cs)
);
},
{
closed = 1;
nodes = (
(324,32,o),
(270,50,o),
(227,86,cs),
(181,123,o),
(164,171,o),
(164,215,cs),
(164,235,o),
(168,254,o),
(173,270,cs),
(192,323,o),
(228,357,o),
(283,373,c),
(300,364,ls),
(307,361,o),
(318,357,o),
(335,350,cs),
(351,343,o),
(373,333,o),
(400,320,cs),
(496,274,o),
(544,222,o),
(544,165,cs),
(544,125,o),
(530,93,o),
(500,68,cs),
(471,44,o),
(433,32,o),
(387,32,cs)
);
},
{
closed = 1;
nodes = (
(413,440,ls),
(340,466,o),
(287,497,o),
(252,535,cs),
(225,563,o),
(214,590,o),
(214,616,cs),
(214,629,o),
(217,642,o),
(222,655,cs),
(239,698,o),
(278,718,o),
(340,718,cs),
(393,718,o),
(435,704,o),
(468,676,cs),
(506,645,o),
(517,604,o),
(517,570,cs),
(517,557,o),
(515,545,o),
(513,534,cs),
(503,487,o),
(479,453,o),
(439,430,c)
);
}
);
width = 717;
}
);
note = eight;
unicode = 56;
},
{
glyphname = nine;
lastChange = "2025-07-10 17:04:21 +0000";
layers = (
{
layerId = m01;
shapes = (
{
closed = 1;
nodes = (
(387,-12,o),
(469,29,o),
(529,108,cs),
(589,187,o),
(618,286,o),
(618,409,cs),
(618,520,o),
(591,608,o),
(537,675,cs),
(483,742,o),
(408,777,o),
(315,777,cs),
(242,777,o),
(180,753,o),
(129,706,cs),
(74,656,o),
(48,592,o),
(48,513,cs),
(48,439,o),
(73,377,o),
(122,328,cs),
(166,283,o),
(230,257,o),
(286,257,cs),
(313,257,o),
(337,260,o),
(356,265,cs),
(416,280,o),
(463,312,o),
(497,359,c),
(493,258,o),
(468,182,o),
(420,129,cs),
(376,81,o),
(322,62,o),
(257,62,cs),
(192,62,o),
(145,83,o),
(124,130,cs),
(117,145,o),
(109,152,o),
(99,152,cs),
(94,152,o),
(89,148,o),
(86,141,cs),
(83,134,o),
(83,129,o),
(83,114,cs),
(83,98,o),
(98,64,o),
(131,36,cs),
(170,4,o),
(221,-12,o),
(286,-12,cs)
);
},
{
closed = 1;
nodes = (
(251,336,o),
(166,432,o),
(166,553,cs),
(166,584,o),
(169,607,o),
(176,626,cs),
(196,679,o),
(240,706,o),
(308,706,cs),
(356,706,o),
(395,687,o),
(426,648,cs),
(460,607,o),
(481,545,o),
(489,462,c),
(474,417,o),
(455,386,o),
(433,367,cs),
(408,347,o),
(376,336,o),
(337,336,cs)
);
}
);
userData = {
assembly = "NPUSHB[ ]	/* 16 values pushed */
49 47 40 39 36 34 28 26 19 18 11 10 7 5 7 8
CALL[ ]	/* CallFunction */
MPPEM[ ]	/* MeasurePixelPerEm */
PUSHB[ ]	/* 1 value pushed */
9
LT[ ]	/* LessThan */
IF[ ]	/* If */
NPUSHB[ ]	/* 51 values pushed */
44 15 2 5 6 1 33 0 0 2 1 2 0 1 53 0 5 0 2 0 5 2 1 0 41 0 6 6 3 1 0 39 0 3 3 12 34 0 1 1 4 1 0 39 0 4 4 13 4 35 7
ELSE[ ]	/* Else */
MPPEM[ ]	/* MeasurePixelPerEm */
PUSHB[ ]	/* 1 value pushed */
13
LT[ ]	/* LessThan */
IF[ ]	/* If */
NPUSHB[ ]	/* 51 values pushed */
44 15 2 5 6 1 33 0 0 2 1 2 0 1 53 0 5 0 2 0 5 2 1 0 41 0 6 6 3 1 0 39 0 3 3 12 34 0 1 1 4 1 0 39 0 4 4 16 4 35 7
ELSE[ ]	/* Else */
MPPEM[ ]	/* MeasurePixelPerEm */
PUSHB[ ]	/* 1 value pushed */
17
LT[ ]	/* LessThan */
IF[ ]	/* If */
NPUSHB[ ]	/* 51 values pushed */
44 15 2 5 6 1 33 0 0 2 1 2 0 1 53 0 5 0 2 0 5 2 1 0 41 0 6 6 3 1 0 39 0 3 3 12 34 0 1 1 4 1 0 39 0 4 4 13 4 35 7
ELSE[ ]	/* Else */
MPPEM[ ]	/* MeasurePixelPerEm */
PUSHB[ ]	/* 1 value pushed */
21
LT[ ]	/* LessThan */
IF[ ]	/* If */
NPUSHB[ ]	/* 51 values pushed */
44 15 2 5 6 1 33 0 0 2 1 2 0 1 53 0 5 0 2 0 5 2 1 0 41 0 6 6 3 1 0 39 0 3 3 12 34 0 1 1 4 1 0 39 0 4 4 16 4 35 7
ELSE[ ]	/* Else */
NPUSHB[ ]	/* 51 values pushed */
44 15 2 5 6 1 33 0 0 2 1 2 0 1 53 0 5 0 2 0 5 2 1 0 41 0 6 6 3 1 0 39 0 3 3 12 34 0 1 1 4 1 0 39 0 4 4 13 4 35 7
EIF[ ]	/* EndIf */
EIF[ ]	/* EndIf */
EIF[ ]	/* EndIf */
EIF[ ]	/* EndIf */
PUSHB[ ]	/* 1 value pushed */
59
CALL[ ]	/* CallFunction */";
};
width = 667;
},
{
associatedMasterId = "792D4558-F830-44B3-9794-52A6ACE12B02";
layerId = "6B1252CF-E426-46DC-A9C6-391C8BFD5F20";
shapes = (
{
closed = 1;
nodes = (
(922,-24,o),
(1106,218,qs),
(1285,452,o),
(1285,825,qs),
(1285,1159,o),
(1122,1359,qs),
(957,1562,o),
(675,1562,qs),
(454,1562,o),
(302,1422,qs),
(140,1273,o),
(140,1035,qs),
(140,812,o),
(286,664,qs),
(354,596,o),
(533,521,o),
(701,521,o),
(763,537,qs),
(944,584,o),
(1049,738,q),
(1041,413,o),
(914,234,qs),
(856,152,o),
(701,72,o),
(496,72,o),
(406,116,qs),
(362,138,o),
(298,199,o),
(264,278,o),
(208,278,o),
(208,240,qs),
(208,150,o),
(305,72,qs),
(423,-24,o),
(617,-24,qs)
);
},
{
closed = 1;
nodes = (
(890,683,o),
(790,651,o),
(669,651,o),
(544,718,o),
(438,843,o),
(368,1021,o),
(368,1210,o),
(387,1272,qs),
(447,1466,o),
(650,1466,qs),
(798,1466,o),
(906,1320,qs),
(1019,1167,o),
(1044,910,q),
(999,775,o),
(928,715,qs)
);
}
);
width = 1445;
},
{
layerId = "792D4558-F830-44B3-9794-52A6ACE12B02";
shapes = (
{
closed = 1;
nodes = (
(400,-12,o),
(480,27,o),
(540,106,cs),
(598,183,o),
(627,282,o),
(627,403,cs),
(627,512,o),
(601,598,o),
(548,664,cs),
(494,730,o),
(421,763,o),
(330,763,cs),
(258,763,o),
(197,740,o),
(147,694,cs),
(94,646,o),
(68,583,o),
(68,505,cs),
(68,432,o),
(92,372,o),
(140,324,cs),
(184,280,o),
(246,254,o),
(301,254,cs),
(328,254,o),
(353,257,o),
(373,262,cs),
(431,277,o),
(478,310,o),
(512,360,c),
(509,254,o),
(487,172,o),
(446,114,cs),
(409,62,o),
(352,34,o),
(292,34,cs),
(260,34,o),
(228,42,o),
(198,57,cs),
(171,70,o),
(149,91,o),
(138,117,cs),
(132,130,o),
(123,137,o),
(116,137,cs),
(108,137,o),
(102,130,o),
(102,117,cs),
(102,88,o),
(118,60,o),
(149,35,cs),
(187,4,o),
(238,-12,o),
(301,-12,cs)
);
},
{
closed = 1;
nodes = (
(271,318,o),
(180,424,o),
(180,545,cs),
(180,576,o),
(183,601,o),
(189,621,cs),
(208,684,o),
(251,716,o),
(317,716,cs),
(366,716,o),
(407,693,o),
(442,645,cs),
(480,594,o),
(502,528,o),
(510,444,c),
(495,399,o),
(476,368,o),
(453,349,cs),
(428,327,o),
(396,318,o),
(357,318,cs)
);
}
);
width = 706;
}
);
note = nine;
unicode = 57;
},
{
glyphname = less;
lastChange = "2025-07-10 17:04:04 +0000";
layers = (
{
layerId = m01;
shapes = (
{
closed = 1;
nodes = (
(423,43,l),
(423,132,l),
(197,272,l),
(423,410,l),
(423,496,l),
(78,287,l),
(78,254,l),
(423,43,l)
);
}
);
userData = {
assembly = "NPUSHB[ ]	/* 4 values pushed */
1 5 1 13
CALL[ ]	/* CallFunction */";
};
width = 501;
},
{
associatedMasterId = "792D4558-F830-44B3-9794-52A6ACE12B02";
layerId = "6B1252CF-E426-46DC-A9C6-391C8BFD5F20";
shapes = (
{
closed = 1;
nodes = (
(789,260,l),
(325,547,l),
(789,829,l),
(789,992,l),
(100,574,l),
(100,514,l),
(789,91,l)
);
}
);
width = 939;
},
{
layerId = "792D4558-F830-44B3-9794-52A6ACE12B02";
shapes = (
{
closed = 1;
nodes = (
(385,44,l),
(385,127,l),
(159,267,l),
(385,405,l),
(385,484,l),
(49,280,l),
(49,251,l),
(385,44,l)
);
}
);
width = 458;
}
);
note = less;
unicode = 60;
},
{
glyphname = equal;
lastChange = "2025-07-10 17:04:04 +0000";
layers = (
{
layerId = m01;
shapes = (
{
closed = 1;
nodes = (
(68,191,l),
(559,191,l),
(559,264,l),
(68,264,l),
(68,191,l)
);
},
{
closed = 1;
nodes = (
(68,354,l),
(559,354,l),
(559,426,l),
(68,426,l),
(68,354,l)
);
}
);
userData = {
assembly = "NPUSHB[ ]	/* 10 values pushed */
7 6 5 4 3 2 1 0 4 8
CALL[ ]	/* CallFunction */
NPUSHB[ ]	/* 33 values pushed */
0 0 0 1 2 0 1 0 0 41 0 2 3 3 2 0 0 38 0 2 2 3 0 0 39 0 3 2 3 0 0 36 4
PUSHB[ ]	/* 1 value pushed */
59
CALL[ ]	/* CallFunction */";
};
width = 627;
},
{
associatedMasterId = "792D4558-F830-44B3-9794-52A6ACE12B02";
layerId = "6B1252CF-E426-46DC-A9C6-391C8BFD5F20";
shapes = (
{
closed = 1;
nodes = (
(1135,717,l),
(1135,854,l),
(150,854,l),
(150,717,l)
);
},
{
closed = 1;
nodes = (
(1135,387,l),
(1135,524,l),
(150,524,l),
(150,387,l)
);
}
);
width = 1285;
},
{
layerId = "792D4558-F830-44B3-9794-52A6ACE12B02";
shapes = (
{
closed = 1;
nodes = (
(73,350,l),
(554,350,l),
(554,417,l),
(73,417,l),
(73,350,l)
);
},
{
closed = 1;
nodes = (
(73,189,l),
(554,189,l),
(554,256,l),
(73,256,l),
(73,189,l)
);
}
);
width = 627;
}
);
note = equal;
unicode = 61;
},
{
glyphname = greater;
lastChange = "2025-07-10 17:04:04 +0000";
layers = (
{
layerId = m01;
shapes = (
{
closed = 1;
nodes = (
(78,43,l),
(423,254,l),
(423,287,l),
(78,496,l),
(78,410,l),
(304,272,l),
(78,132,l),
(78,43,l)
);
}
);
userData = {
assembly = "NPUSHB[ ]	/* 4 values pushed */
3 6 1 13
CALL[ ]	/* CallFunction */";
};
width = 501;
},
{
associatedMasterId = "792D4558-F830-44B3-9794-52A6ACE12B02";
layerId = "6B1252CF-E426-46DC-A9C6-391C8BFD5F20";
shapes = (
{
alignment = -1;
pos = (939,0);
ref = less;
scale = (-0.9999,1);
}
);
width = 939;
},
{
layerId = "792D4558-F830-44B3-9794-52A6ACE12B02";
shapes = (
{
alignment = -1;
pos = (458,0);
ref = less;
scale = (-0.9999,1);
}
);
width = 458;
}
);
note = greater;
unicode = 62;
},
{
glyphname = question;
lastChange = "2025-07-10 17:04:25 +0000";
layers = (
{
layerId = m01;
shapes = (
{
closed = 1;
nodes = (
(278,219,o),
(289,227,o),
(289,244,cs),
(289,277,o),
(236,262,o),
(236,292,cs),
(236,322,o),
(265,361,o),
(322,408,cs),
(348,429,o),
(369,448,o),
(387,467,cs),
(442,522,o),
(469,575,o),
(469,628,cs),
(469,671,o),
(452,706,o),
(419,732,cs),
(382,761,o),
(328,775,o),
(257,775,cs),
(190,775,o),
(127,758,o),
(68,724,c),
(68,587,ls),
(68,571,o),
(74,563,o),
(86,563,cs),
(97,563,o),
(107,579,o),
(110,592,cs),
(131,673,o),
(182,717,o),
(245,717,cs),
(260,717,o),
(274,715,o),
(287,711,cs),
(328,700,o),
(349,671,o),
(349,624,cs),
(349,579,o),
(326,528,o),
(281,474,cs),
(219,399,o),
(188,339,o),
(188,294,cs),
(188,271,o),
(196,251,o),
(215,233,cs),
(224,224,o),
(238,219,o),
(255,219,cs)
);
},
{
closed = 1;
nodes = (
(269,-12,o),
(285,-5,o),
(298,7,cs),
(312,19,o),
(320,38,o),
(320,57,cs),
(320,73,o),
(314,90,o),
(302,105,cs),
(289,121,o),
(269,129,o),
(249,129,cs),
(230,129,o),
(210,122,o),
(196,107,cs),
(183,95,o),
(175,75,o),
(175,59,cs),
(175,32,o),
(191,-12,o),
(253,-12,cs)
);
}
);
userData = {
assembly = "NPUSHB[ ]	/* 14 values pushed */
54 53 46 45 26 24 21 19 15 13 3 1 6 8
CALL[ ]	/* CallFunction */
MPPEM[ ]	/* MeasurePixelPerEm */
PUSHB[ ]	/* 1 value pushed */
9
LT[ ]	/* LessThan */
IF[ ]	/* If */
NPUSHB[ ]	/* 47 values pushed */
23 1 1 3 1 33 0 2 1 0 1 2 0 53 0 0 4 1 0 4 51 0 1 1 3 1 0 39 0 3 3 12 34 0 4 4 5 1 0 39 0 5 5 13 5 35 7
ELSE[ ]	/* Else */
MPPEM[ ]	/* MeasurePixelPerEm */
PUSHB[ ]	/* 1 value pushed */
13
LT[ ]	/* LessThan */
IF[ ]	/* If */
NPUSHB[ ]	/* 47 values pushed */
23 1 1 3 1 33 0 2 1 0 1 2 0 53 0 0 4 1 0 4 51 0 1 1 3 1 0 39 0 3 3 12 34 0 4 4 5 1 0 39 0 5 5 16 5 35 7
ELSE[ ]	/* Else */
MPPEM[ ]	/* MeasurePixelPerEm */
PUSHB[ ]	/* 1 value pushed */
17
LT[ ]	/* LessThan */
IF[ ]	/* If */
NPUSHB[ ]	/* 47 values pushed */
23 1 1 3 1 33 0 2 1 0 1 2 0 53 0 0 4 1 0 4 51 0 1 1 3 1 0 39 0 3 3 12 34 0 4 4 5 1 0 39 0 5 5 13 5 35 7
ELSE[ ]	/* Else */
MPPEM[ ]	/* MeasurePixelPerEm */
PUSHB[ ]	/* 1 value pushed */
21
LT[ ]	/* LessThan */
IF[ ]	/* If */
NPUSHB[ ]	/* 47 values pushed */
23 1 1 3 1 33 0 2 1 0 1 2 0 53 0 0 4 1 0 4 51 0 1 1 3 1 0 39 0 3 3 12 34 0 4 4 5 1 0 39 0 5 5 16 5 35 7
ELSE[ ]	/* Else */
NPUSHB[ ]	/* 47 values pushed */
23 1 1 3 1 33 0 2 1 0 1 2 0 53 0 0 4 1 0 4 51 0 1 1 3 1 0 39 0 3 3 12 34 0 4 4 5 1 0 39 0 5 5 13 5 35 7
EIF[ ]	/* EndIf */
EIF[ ]	/* EndIf */
EIF[ ]	/* EndIf */
EIF[ ]	/* EndIf */
PUSHB[ ]	/* 1 value pushed */
59
CALL[ ]	/* CallFunction */";
};
width = 505;
},
{
associatedMasterId = "792D4558-F830-44B3-9794-52A6ACE12B02";
layerId = "6B1252CF-E426-46DC-A9C6-391C8BFD5F20";
shapes = (
{
closed = 1;
nodes = (
(569,443,o),
(569,490,qs),
(569,514,o),
(540,532,o),
(495,540,o),
(462,568,o),
(462,588,qs),
(462,683,o),
(638,827,qs),
(718,893,o),
(774,947,qs),
(934,1103,o),
(934,1270,qs),
(934,1399,o),
(833,1476,qs),
(720,1561,o),
(509,1561,qs),
(310,1561,o),
(130,1461,q),
(130,1185,ls),
(130,1142,o),
(163,1142,qs),
(177,1142,o),
(201,1179,o),
(205,1197,qs),
(238,1326,o),
(386,1453,o),
(483,1453,qs),
(700,1453,o),
(700,1259,qs),
(700,1117,o),
(561,953,qs),
(374,736,o),
(374,592,qs),
(374,522,o),
(427,471,qs),
(456,443,o),
(505,443,qs)
);
},
{
closed = 1;
nodes = (
(607,30,o),
(630,79,o),
(630,164,o),
(596,206,qs),
(579,227,o),
(527,253,o),
(430,253,o),
(388,210,qs),
(369,190,o),
(348,139,o),
(348,89,o),
(364,41,o),
(399,2,o),
(452,-24,o),
(547,-24,o),
(588,12,qs)
);
}
);
width = 1034;
},
{
layerId = "792D4558-F830-44B3-9794-52A6ACE12B02";
shapes = (
{
closed = 1;
nodes = (
(268,216,o),
(278,224,o),
(278,239,cs),
(278,275,o),
(226,251,o),
(226,287,cs),
(226,318,o),
(255,357,o),
(312,404,cs),
(339,426,o),
(359,444,o),
(378,462,cs),
(431,514,o),
(456,566,o),
(456,620,cs),
(456,662,o),
(439,696,o),
(407,721,cs),
(371,748,o),
(318,762,o),
(249,762,cs),
(184,762,o),
(122,746,o),
(63,713,c),
(63,579,ls),
(63,565,o),
(69,558,o),
(80,558,cs),
(88,558,o),
(97,573,o),
(100,584,cs),
(121,667,o),
(172,709,o),
(236,709,cs),
(307,709,o),
(342,678,o),
(342,615,cs),
(342,568,o),
(319,518,o),
(274,465,cs),
(213,394,o),
(183,336,o),
(183,289,cs),
(183,266,o),
(191,247,o),
(208,230,cs),
(219,220,o),
(231,216,o),
(247,216,cs)
);
},
{
closed = 1;
nodes = (
(259,-12,o),
(274,-6,o),
(287,6,cs),
(298,17,o),
(308,35,o),
(308,56,cs),
(308,71,o),
(303,86,o),
(291,101,cs),
(280,115,o),
(260,124,o),
(239,124,cs),
(222,124,o),
(204,118,o),
(189,103,cs),
(177,90,o),
(170,72,o),
(170,56,cs),
(170,24,o),
(189,-12,o),
(244,-12,cs)
);
}
);
width = 505;
}
);
note = question;
unicode = 63;
},
{
glyphname = at;
lastChange = "2025-07-10 17:04:25 +0000";
layers = (
{
layerId = m01;
shapes = (
{
closed = 1;
nodes = (
(566,-257,o),
(624,-249,o),
(675,-232,cs),
(746,-210,o),
(780,-167,o),
(780,-140,cs),
(780,-121,o),
(760,-107,o),
(742,-107,cs),
(733,-107,o),
(725,-111,o),
(721,-120,c),
(719,-123,o),
(718,-126,o),
(718,-129,cs),
(718,-132,o),
(718,-134,o),
(717,-137,cs),
(710,-152,o),
(677,-167,o),
(619,-184,cs),
(585,-194,o),
(545,-199,o),
(498,-199,cs),
(398,-199,o),
(322,-172,o),
(268,-115,cs),
(213,-57,o),
(186,22,o),
(186,124,cs),
(186,205,o),
(206,283,o),
(247,358,cs),
(289,437,o),
(346,500,o),
(419,547,cs),
(500,599,o),
(590,625,o),
(689,625,cs),
(775,625,o),
(844,603,o),
(896,559,cs),
(947,515,o),
(977,452,o),
(982,373,cs),
(983,363,o),
(983,348,o),
(983,325,cs),
(983,306,o),
(980,285,o),
(973,258,cs),
(954,182,o),
(916,127,o),
(858,91,cs),
(825,70,o),
(791,59,o),
(758,59,cs),
(757,59,o),
(756,60,o),
(756,62,cs),
(756,63,l),
(808,374,l),
(768,413,o),
(713,432,o),
(640,432,cs),
(453,432,o),
(336,290,o),
(336,146,cs),
(336,138,ls),
(336,99,o),
(346,67,o),
(368,40,cs),
(393,9,o),
(434,-7,o),
(490,-7,cs),
(539,-7,o),
(586,15,o),
(631,58,c),
(631,55,o),
(631,53,o),
(631,51,cs),
(631,49,o),
(631,47,o),
(631,44,cs),
(633,18,o),
(644,5,o),
(664,5,cs),
(719,8,l),
(755,6,ls),
(803,6,o),
(852,23,o),
(904,58,cs),
(957,94,o),
(999,139,o),
(1032,193,cs),
(1068,253,o),
(1086,315,o),
(1086,378,cs),
(1086,389,ls),
(1086,392,o),
(1086,395,o),
(1086,398,cs),
(1080,489,o),
(1043,559,o),
(976,608,cs),
(910,657,o),
(825,681,o),
(720,681,cs),
(595,681,o),
(482,653,o),
(382,598,cs),
(287,546,o),
(213,475,o),
(159,386,cs),
(105,297,o),
(79,204,o),
(79,104,cs),
(79,-21,o),
(123,-115,o),
(210,-179,cs),
(283,-232,o),
(370,-257,o),
(501,-257,cs)
);
},
{
closed = 1;
nodes = (
(488,52,o),
(468,83,o),
(468,145,cs),
(468,153,ls),
(468,212,o),
(486,267,o),
(520,314,cs),
(549,355,o),
(587,381,o),
(623,381,cs),
(644,381,o),
(664,373,o),
(681,354,c),
(644,136,l),
(636,125,o),
(627,114,o),
(617,103,cs),
(587,70,o),
(557,52,o),
(529,52,cs)
);
}
);
userData = {
assembly = "NPUSHB[ ]	/* 24 values pushed */
95 94 89 87 84 82 74 72 67 63 52 50 41 40 34 33 26 24 16 14 4 2 11 8
CALL[ ]	/* CallFunction */
MPPEM[ ]	/* MeasurePixelPerEm */
PUSHB[ ]	/* 1 value pushed */
19
LT[ ]	/* LessThan */
IF[ ]	/* If */
NPUSHB[ ]	/* 73 values pushed */
55 1 10 8 93 85 11 1 4 0 10 71 1 6 0 3 33 0 3 6 2 6 3 2 53 0 5 0 1 8 5 1 1 0 41 0 8 0 10 0 8 10 1 0 41 9 1 0 0 6 1 0 39 7 1 6 6 13 34 0 2 2 4 1 0 39 0 4 4 17 4 35 8
ELSE[ ]	/* Else */
NPUSHB[ ]	/* 85 values pushed */
55 1 10 8 93 85 11 1 4 0 10 71 1 6 0 3 33 0 3 7 2 7 3 2 53 0 5 0 1 8 5 1 1 0 41 0 8 0 10 0 8 10 1 0 41 9 1 0 0 6 1 0 39 0 6 6 13 34 9 1 0 0 7 1 0 39 0 7 7 13 34 0 2 2 4 1 0 39 0 4 4 17 4 35 10
EIF[ ]	/* EndIf */
PUSHB[ ]	/* 1 value pushed */
59
CALL[ ]	/* CallFunction */";
};
width = 1135;
},
{
associatedMasterId = "792D4558-F830-44B3-9794-52A6ACE12B02";
layerId = "6B1252CF-E426-46DC-A9C6-391C8BFD5F20";
shapes = (
{
closed = 1;
nodes = (
(1133,-530,o),
(1294,-435,qs),
(1368,-391,o),
(1453,-274,o),
(1453,-176,o),
(1413,-138,o),
(1356,-138,o),
(1330,-170,o),
(1330,-190,q),
(1343,-239,l),
(1343,-297,o),
(1224,-356,qs),
(1097,-417,o),
(952,-417,qs),
(791,-417,o),
(679,-373,qs),
(364,-249,o),
(364,182,qs),
(364,434,o),
(496,678,qs),
(634,932,o),
(868,1084,qs),
(1126,1252,o),
(1444,1252,qs),
(1708,1252,o),
(1858,1118,qs),
(2010,983,o),
(2010,740,qs),
(2010,558,o),
(1931,406,qs),
(1895,336,o),
(1803,227,o),
(1703,153,o),
(1605,114,o),
(1546,114,o),
(1531,108,qs),
(1506,100,ls),
(1497,96,o),
(1490,100,o),
(1493,115,qs),
(1636,742,l),
(1530,857,o),
(1309,857,qs),
(1119,857,o),
(966,765,qs),
(895,722,o),
(782,606,o),
(703,470,o),
(662,322,o),
(662,135,o),
(712,70,qs),
(782,-24,o),
(950,-24,qs),
(1106,-24,o),
(1251,116,q),
(1231,0,o),
(1303,0,qs),
(1335,0,o),
(1362,3,qs),
(1403,6,ls),
(1432,8,o),
(1485,2,qs),
(1500,1,o),
(1534,26,qs),
(1558,44,ls),
(1569,52,o),
(1579,52,qs),
(1716,52,o),
(1864,158,qs),
(2016,267,o),
(2111,430,qs),
(2215,609,o),
(2215,793,qs),
(2215,1063,o),
(2020,1213,qs),
(1833,1356,o),
(1514,1356,qs),
(1121,1356,o),
(796,1174,qs),
(488,1003,o),
(132,434,o),
(132,120,qs),
(132,-207,o),
(369,-378,qs),
(579,-530,o),
(898,-530,qs)
);
},
{
closed = 1;
nodes = (
(972,86,o),
(938,143,qs),
(919,176,o),
(919,262,qs),
(919,458,o),
(1038,614,qs),
(1151,762,o),
(1265,762,qs),
(1341,762,o),
(1388,703,q),
(1283,255,l),
(1257,220,o),
(1227,190,qs),
(1125,86,o),
(1036,86,qs)
);
}
);
width = 2325;
},
{
layerId = "792D4558-F830-44B3-9794-52A6ACE12B02";
shapes = (
{
closed = 1;
nodes = (
(515,-259,o),
(580,-243,o),
(632,-212,cs),
(680,-184,o),
(709,-142,o),
(709,-110,cs),
(709,-78,o),
(695,-67,o),
(676,-67,cs),
(657,-67,o),
(649,-80,o),
(649,-93,c),
(656,-117,l),
(656,-136,o),
(636,-155,o),
(598,-174,cs),
(557,-194,o),
(512,-204,o),
(465,-204,cs),
(412,-204,o),
(369,-197,o),
(332,-182,cs),
(229,-142,o),
(178,-52,o),
(178,89,cs),
(178,171,o),
(199,251,o),
(242,331,cs),
(287,413,o),
(347,479,o),
(424,529,cs),
(507,583,o),
(602,611,o),
(705,611,cs),
(791,611,o),
(859,589,o),
(907,546,cs),
(956,502,o),
(981,440,o),
(981,361,cs),
(981,302,o),
(968,247,o),
(943,198,cs),
(907,130,o),
(854,84,o),
(808,66,cs),
(792,59,o),
(779,56,o),
(770,56,cs),
(760,56,o),
(753,55,o),
(748,53,cs),
(735,49,l),
(729,46,o),
(728,47,o),
(729,56,c),
(799,362,l),
(764,400,o),
(711,418,o),
(639,418,cs),
(577,418,o),
(521,403,o),
(472,374,cs),
(407,335,o),
(354,269,o),
(333,193,cs),
(326,168,o),
(323,142,o),
(323,112,cs),
(323,81,o),
(331,56,o),
(348,34,cs),
(371,3,o),
(409,-12,o),
(464,-12,cs),
(515,-12,o),
(564,11,o),
(611,57,c),
(609,48,o),
(609,41,o),
(609,34,cs),
(609,11,o),
(618,0,o),
(636,0,cs),
(647,0,o),
(656,0,o),
(665,1,cs),
(685,3,ls),
(695,4,o),
(708,3,o),
(725,1,cs),
(730,0,o),
(737,4,o),
(749,13,cs),
(761,21,ls),
(765,24,o),
(768,25,o),
(771,25,cs),
(816,25,o),
(863,43,o),
(910,77,cs),
(959,112,o),
(1000,157,o),
(1031,210,cs),
(1065,268,o),
(1082,327,o),
(1082,387,cs),
(1082,475,o),
(1049,544,o),
(986,592,cs),
(925,639,o),
(843,662,o),
(739,662,cs),
(611,662,o),
(494,632,o),
(389,573,cs),
(187,462,o),
(64,263,o),
(64,59,cs),
(64,-48,o),
(103,-129,o),
(180,-185,cs),
(248,-234,o),
(335,-259,o),
(438,-259,cs)
);
},
{
closed = 1;
nodes = (
(485,42,o),
(469,52,o),
(458,70,cs),
(452,81,o),
(449,100,o),
(449,128,cs),
(449,192,o),
(468,249,o),
(507,300,cs),
(543,347,o),
(581,372,o),
(618,372,cs),
(643,372,o),
(663,362,o),
(678,343,c),
(626,125,l),
(618,113,o),
(610,103,o),
(599,93,cs),
(565,58,o),
(535,42,o),
(506,42,cs)
);
}
);
width = 1135;
}
);
note = at;
unicode = 64;
},
{
glyphname = A;
kernLeft = A;
kernRight = A;
lastChange = "2025-07-10 18:06:38 +0000";
layers = (
{
layerId = m01;
shapes = (
{
closed = 1;
nodes = (
(96,0,l),
(194,-7,l),
(230,-7,o),
(244,11,o),
(244,25,cs),
(244,35,o),
(237,44,o),
(225,44,c),
(201,41,l),
(178,41,o),
(166,48,o),
(166,62,cs),
(167,74,o),
(175,99,o),
(192,140,cs),
(207,182,ls),
(216,203,o),
(237,213,o),
(270,213,cs),
(526,213,ls),
(561,213,o),
(575,204,o),
(583,185,c),
(617,120,ls),
(630,92,o),
(637,70,o),
(637,56,cs),
(637,45,o),
(627,39,o),
(607,39,c),
(572,43,l),
(560,43,o),
(554,36,o),
(554,22,cs),
(554,19,o),
(555,16,o),
(557,13,cs),
(564,-1,o),
(579,-7,o),
(603,-7,cs),
(724,0,l),
(820,-7,l),
(850,-7,o),
(862,9,o),
(862,23,cs),
(862,34,o),
(855,44,o),
(844,44,c),
(819,41,l),
(806,41,o),
(792,49,o),
(777,64,cs),
(766,75,o),
(753,97,o),
(736,134,cs),
(478,698,ls),
(464,730,o),
(453,752,o),
(444,765,cs),
(436,777,o),
(429,783,o),
(423,783,cs),
(413,783,o),
(404,770,o),
(393,745,cs),
(131,179,ls),
(103,119,o),
(81,79,o),
(64,58,cs),
(55,46,o),
(43,41,o),
(28,41,cs),
(4,43,ls),
(-9,43,o),
(-15,36,o),
(-15,21,cs),
(-15,9,o),
(-2,-7,o),
(26,-7,c)
);
},
{
closed = 1;
nodes = (
(312,275,l),
(276,275,o),
(258,280,o),
(258,289,cs),
(258,292,o),
(260,299,o),
(265,310,cs),
(378,568,ls),
(387,590,o),
(395,602,o),
(401,602,cs),
(406,602,o),
(415,587,o),
(427,556,cs),
(532,300,ls),
(535,294,o),
(536,291,o),
(536,289,cs),
(536,280,o),
(518,275,o),
(481,275,cs),
(312,275,l)
);
}
);
userData = {
assembly = "NPUSHB[ ]	/* 38 values pushed */
63 62 70 68 62 76 63 75 61 60 57 56 55 54 49 46 40 39 38 37 33 31 30 29 26 25 24 23 15 14 8 7 6 5 2 1 17 8
CALL[ ]	/* CallFunction */
NPUSHB[ ]	/* 54 values pushed */
0 1 0 1 1 33 0 15 3 14 3 15 14 53 16 1 14 0 10 1 14 10 1 2 41 0 3 3 12 34 12 11 9 8 5 4 2 7 1 1 0 1 0 39 13 7 6 3 0 0 13 0 35 6
PUSHB[ ]	/* 1 value pushed */
59
CALL[ ]	/* CallFunction */";
};
width = 833;
},
{
associatedMasterId = "792D4558-F830-44B3-9794-52A6ACE12B02";
layerId = "6B1252CF-E426-46DC-A9C6-391C8BFD5F20";
shapes = (
{
closed = 1;
nodes = (
(190,15,l),
(221,15,o),
(289,5,qs),
(323,0,o),
(379,0,qs),
(474,0,o),
(474,45,qs),
(474,74,o),
(442,74,q),
(393,66,l),
(316,66,o),
(316,116,qs),
(316,147,o),
(371,279,qs),
(420,395,ls),
(427,412,o),
(435,424,qs),
(459,460,o),
(533,460,qs),
(1050,460,ls),
(1102,460,o),
(1130,443,qs),
(1147,433,o),
(1162,401,qs),
(1239,240,ls),
(1263,188,o),
(1272,158,qs),
(1276,142,o),
(1280,116,o),
(1280,80,o),
(1254,63,o),
(1225,63,q),
(1154,73,l),
(1122,73,o),
(1122,45,qs),
(1122,30,o),
(1165,0,o),
(1216,0,q),
(1461,15,l),
(1655,0,l),
(1735,0,o),
(1735,45,qs),
(1735,74,o),
(1702,74,q),
(1653,66,l),
(1634,66,o),
(1616,75,qs),
(1560,103,o),
(1486,265,qs),
(965,1404,ls),
(918,1506,o),
(892,1546,qs),
(875,1570,o),
(857,1570,qs),
(839,1570,o),
(822,1545,qs),
(811,1529,o),
(778,1463,o),
(267,355,qs),
(185,174,o),
(130,104,qs),
(101,66,o),
(55,66,q),
(6,73,l),
(-27,73,o),
(-27,45,qs),
(-27,27,o),
(10,0,o),
(50,0,q)
);
},
{
closed = 1;
nodes = (
(504,547,o),
(504,578,qs),
(504,594,o),
(517,623,qs),
(746,1176,ls),
(771,1237,o),
(787,1237,qs),
(807,1237,o),
(846,1141,qs),
(1068,604,ls),
(1075,586,o),
(1075,578,qs),
(1075,570,o),
(1070,564,qs),
(1056,547,o),
(960,547,qs),
(617,547,ls)
);
}
);
width = 1707;
},
{
layerId = "792D4558-F830-44B3-9794-52A6ACE12B02";
shapes = (
{
closed = 1;
nodes = (
(92,7,l),
(102,7,o),
(119,5,o),
(140,2,cs),
(151,1,o),
(166,0,o),
(184,0,cs),
(215,0,o),
(230,7,o),
(230,22,cs),
(230,31,o),
(225,36,o),
(215,36,c),
(191,32,l),
(166,32,o),
(153,40,o),
(153,57,cs),
(153,67,o),
(162,93,o),
(180,136,cs),
(204,193,ls),
(206,198,o),
(209,204,o),
(211,207,cs),
(219,219,o),
(235,225,o),
(259,225,cs),
(512,225,ls),
(529,225,o),
(542,222,o),
(551,216,cs),
(556,213,o),
(561,207,o),
(566,196,cs),
(604,117,ls),
(612,100,o),
(617,88,o),
(620,77,cs),
(622,68,o),
(625,59,o),
(625,51,cs),
(625,39,o),
(619,31,o),
(597,31,c),
(562,36,l),
(552,36,o),
(547,31,o),
(547,22,cs),
(547,17,o),
(551,13,o),
(558,8,cs),
(565,2,o),
(576,0,o),
(593,0,cs),
(712,7,l),
(807,0,l),
(833,0,o),
(846,7,o),
(846,22,cs),
(846,31,o),
(841,36,o),
(830,36,c),
(806,32,l),
(800,32,o),
(795,33,o),
(788,37,cs),
(769,46,o),
(749,76,o),
(725,129,cs),
(470,686,ls),
(455,718,o),
(443,742,o),
(435,755,cs),
(429,763,o),
(423,767,o),
(417,767,cs),
(412,767,o),
(406,763,o),
(400,754,cs),
(397,750,o),
(392,741,o),
(387,731,cs),
(382,720,o),
(296,534,o),
(129,173,cs),
(102,114,o),
(80,74,o),
(62,51,cs),
(53,39,o),
(41,32,o),
(26,32,c),
(2,36,l),
(-9,36,o),
(-14,31,o),
(-14,22,cs),
(-14,10,o),
(-2,0,o),
(23,0,c)
);
},
{
closed = 1;
nodes = (
(300,267,l),
(263,267,o),
(245,272,o),
(245,282,cs),
(245,287,o),
(247,295,o),
(251,304,cs),
(363,574,ls),
(371,594,o),
(378,604,o),
(383,604,cs),
(390,604,o),
(399,589,o),
(412,557,cs),
(520,295,ls),
(523,288,o),
(524,285,o),
(524,282,cs),
(524,279,o),
(523,277,o),
(521,275,cs),
(517,270,o),
(499,267,o),
(468,267,cs),
(300,267,l)
);
}
);
width = 832;
}
);
note = A;
unicode = 65;
},
{
glyphname = B;
kernLeft = H;
kernRight = B;
lastChange = "2025-07-10 17:50:37 +0000";
layers = (
{
layerId = m01;
shapes = (
{
closed = 1;
nodes = (
(521,-12,o),
(595,12,o),
(649,60,cs),
(699,103,o),
(725,160,o),
(725,229,cs),
(725,276,o),
(706,317,o),
(669,353,cs),
(634,387,o),
(585,412,o),
(524,427,c),
(609,464,o),
(658,531,o),
(658,600,cs),
(658,635,o),
(652,663,o),
(638,688,cs),
(613,728,o),
(573,758,o),
(499,771,cs),
(474,775,o),
(451,777,o),
(428,777,cs),
(405,777,o),
(386,776,o),
(371,775,cs),
(323,770,ls),
(292,766,o),
(257,762,o),
(219,762,cs),
(199,762,o),
(177,763,o),
(155,766,cs),
(146,767,o),
(127,770,o),
(109,770,cs),
(91,770,o),
(72,767,o),
(62,758,c),
(55,753,o),
(52,746,o),
(52,739,cs),
(52,728,o),
(59,718,o),
(71,718,c),
(95,721,l),
(120,721,o),
(136,714,o),
(148,687,cs),
(154,674,o),
(157,645,o),
(157,602,cs),
(157,154,ls),
(157,112,o),
(154,84,o),
(147,67,cs),
(140,50,o),
(125,41,o),
(102,41,c),
(71,44,ls),
(61,44,o),
(52,35,o),
(52,23,cs),
(52,20,o),
(53,17,o),
(54,14,cs),
(60,0,o),
(75,-7,o),
(98,-7,cs),
(218,0,ls),
(243,0,o),
(289,-3,o),
(354,-8,cs),
(387,-11,o),
(411,-12,o),
(426,-12,cs)
);
},
{
closed = 1;
nodes = (
(324,62,o),
(271,84,o),
(271,129,cs),
(271,373,l),
(302,378,o),
(334,380,o),
(368,380,cs),
(401,380,o),
(433,377,o),
(462,371,cs),
(555,352,o),
(601,304,o),
(601,225,cs),
(601,165,o),
(584,122,o),
(549,96,cs),
(516,70,o),
(478,62,o),
(401,62,cs)
);
},
{
closed = 1;
nodes = (
(271,649,ls),
(271,686,o),
(302,696,o),
(390,696,cs),
(488,696,o),
(537,660,o),
(537,587,cs),
(537,538,o),
(521,501,o),
(492,477,cs),
(463,452,o),
(419,441,o),
(367,441,cs),
(337,441,o),
(305,445,o),
(271,452,c)
);
}
);
userData = {
assembly = "NPUSHB[ ]	/* 32 values pushed */
2 0 74 73 69 68 63 61 56 55 51 49 34 33 29 28 25 24 19 18 17 16 9 8 7 6 0 53 2 53 14 8
CALL[ ]	/* CallFunction */
NPUSHB[ ]	/* 84 values pushed */
54 1 9 10 42 1 11 9 70 1 12 11 3 33 0 9 0 11 12 9 11 1 0 41 4 1 3 3 5 1 0 39 7 6 2 5 5 12 34 0 10 10 5 1 0 39 7 6 2 5 5 12 34 0 12 12 0 1 0 39 8 13 2 0 0 13 34 2 1 1 1 0 1 2 39 8 13 2 0 0 13 0 35 10
PUSHB[ ]	/* 1 value pushed */
59
CALL[ ]	/* CallFunction */";
};
width = 763;
},
{
associatedMasterId = "792D4558-F830-44B3-9794-52A6ACE12B02";
layerId = "6B1252CF-E426-46DC-A9C6-391C8BFD5F20";
shapes = (
{
closed = 1;
nodes = (
(1133,-24,o),
(1298,118,qs),
(1451,250,o),
(1451,459,qs),
(1451,611,o),
(1334,728,qs),
(1218,844,o),
(1033,886,q),
(1099,910,o),
(1152,944,qs),
(1317,1052,o),
(1317,1220,qs),
(1317,1353,o),
(1194,1442,qs),
(1133,1486,o),
(949,1539,o),
(735,1539,o),
(594,1523,qs),
(514,1514,o),
(421,1514,qs),
(365,1514,o),
(296,1522,qs),
(248,1526,ls),
(223,1528,o),
(135,1528,o),
(98,1499,o),
(98,1483,qs),
(98,1455,o),
(131,1455,q),
(180,1462,l),
(248,1462,o),
(272,1418,qs),
(283,1396,o),
(311,1318,o),
(311,1195,qs),
(311,321,ls),
(311,279,o),
(304,157,o),
(273,102,qs),
(252,66,o),
(195,66,q),
(131,73,l),
(98,73,o),
(98,46,qs),
(98,30,o),
(116,15,qs),
(151,-13,o),
(298,8,qs),
(319,11,o),
(361,13,qs),
(380,14,o),
(511,18,o),
(674,-9,qs),
(766,-24,o),
(849,-24,qs)
);
},
{
closed = 1;
nodes = (
(531,76,o),
(531,231,qs),
(531,814,l),
(621,829,o),
(835,829,o),
(1015,778,o),
(1140,680,o),
(1207,539,o),
(1207,351,o),
(1179,281,qs),
(1097,76,o),
(838,76,qs)
);
},
{
closed = 1;
nodes = (
(531,1331,ls),
(531,1392,o),
(650,1447,o),
(914,1447,o),
(996,1373,qs),
(1078,1299,o),
(1078,1181,qs),
(1078,1046,o),
(987,978,qs),
(944,945,o),
(826,914,o),
(627,914,o),
(531,934,q)
);
}
);
width = 1534;
},
{
layerId = "792D4558-F830-44B3-9794-52A6ACE12B02";
shapes = (
{
closed = 1;
nodes = (
(511,-12,o),
(585,12,o),
(638,58,cs),
(688,101,o),
(712,156,o),
(712,224,cs),
(712,273,o),
(693,317,o),
(655,355,cs),
(617,394,o),
(569,419,o),
(508,433,c),
(529,440,o),
(550,450,o),
(567,461,cs),
(620,496,o),
(647,541,o),
(647,596,cs),
(647,639,o),
(626,676,o),
(587,704,cs),
(546,734,o),
(484,751,o),
(415,751,cs),
(380,751,o),
(341,749,o),
(294,744,cs),
(269,741,o),
(240,739,o),
(210,739,cs),
(191,739,o),
(172,740,o),
(149,743,cs),
(125,745,ls),
(117,746,o),
(109,746,o),
(101,746,cs),
(74,746,o),
(52,741,o),
(52,724,cs),
(52,715,o),
(57,710,o),
(68,710,c),
(92,714,l),
(114,714,o),
(129,707,o),
(137,692,cs),
(140,686,o),
(144,676,o),
(149,663,cs),
(154,650,o),
(156,624,o),
(156,583,cs),
(156,157,ls),
(156,129,o),
(157,86,o),
(137,50,cs),
(131,39,o),
(118,32,o),
(99,32,c),
(68,36,l),
(57,36,o),
(52,31,o),
(52,22,cs),
(52,17,o),
(54,13,o),
(61,7,cs),
(68,2,o),
(80,-1,o),
(97,-1,cs),
(111,-1,o),
(129,1,o),
(150,4,cs),
(157,5,o),
(166,5,o),
(180,6,cs),
(188,7,o),
(203,8,o),
(229,8,cs),
(251,8,o),
(285,4,o),
(333,-4,cs),
(362,-9,o),
(392,-12,o),
(419,-12,cs)
);
},
{
closed = 1;
nodes = (
(313,37,o),
(263,62,o),
(263,113,cs),
(263,397,l),
(293,402,o),
(323,405,o),
(353,405,cs),
(423,405,o),
(488,390,o),
(531,356,cs),
(574,322,o),
(594,269,o),
(594,214,cs),
(594,188,o),
(589,162,o),
(580,137,cs),
(553,70,o),
(498,37,o),
(413,37,cs)
);
},
{
closed = 1;
nodes = (
(263,650,ls),
(263,691,o),
(311,709,o),
(365,709,cs),
(412,709,o),
(463,695,o),
(490,670,cs),
(517,646,o),
(530,615,o),
(530,577,cs),
(530,533,o),
(515,500,o),
(486,478,cs),
(459,456,o),
(413,445,o),
(361,445,cs),
(330,445,o),
(296,449,o),
(263,456,c)
);
}
);
width = 748;
}
);
metricLeft = H;
note = B;
unicode = 66;
},
{
glyphname = C;
kernLeft = O;
kernRight = C;
lastChange = "2025-07-10 17:49:55 +0000";
layers = (
{
layerId = m01;
shapes = (
{
closed = 1;
nodes = (
(571,-11,o),
(670,27,o),
(749,102,c),
(749,243,ls),
(749,264,o),
(743,274,o),
(731,274,cs),
(718,274,o),
(709,263,o),
(704,243,cs),
(695,207,o),
(683,177,o),
(668,153,cs),
(628,90,o),
(571,60,o),
(495,60,cs),
(400,60,o),
(321,90,o),
(258,150,cs),
(191,215,o),
(158,300,o),
(158,406,cs),
(158,489,o),
(185,560,o),
(240,620,cs),
(289,674,o),
(355,706,o),
(423,706,cs),
(559,706,o),
(655,655,o),
(711,552,cs),
(716,543,o),
(723,539,o),
(733,539,cs),
(742,539,o),
(752,545,o),
(752,562,cs),
(752,570,o),
(746,597,o),
(735,640,cs),
(730,659,o),
(726,679,o),
(723,698,cs),
(718,734,o),
(727,785,o),
(706,785,cs),
(658,785,o),
(662,734,o),
(631,734,cs),
(625,734,o),
(618,735,o),
(609,740,cs),
(557,765,o),
(504,777,o),
(449,777,cs),
(372,777,o),
(302,760,o),
(241,728,cs),
(147,678,o),
(85,594,o),
(57,489,cs),
(47,455,o),
(42,417,o),
(42,376,cs),
(42,327,o),
(50,275,o),
(71,225,cs),
(90,177,o),
(116,138,o),
(152,103,cs),
(228,27,o),
(329,-11,o),
(454,-11,cs)
);
}
);
userData = {
assembly = "NPUSHB[ ]	/* 18 values pushed */
50 48 44 42 35 33 31 29 21 19 17 16 14 12 3 1 8 8
CALL[ ]	/* CallFunction */
MPPEM[ ]	/* MeasurePixelPerEm */
PUSHB[ ]	/* 1 value pushed */
13
LT[ ]	/* LessThan */
IF[ ]	/* If */
NPUSHB[ ]	/* 55 values pushed */
0 1 6 7 1 33 0 2 1 5 1 2 45 0 4 5 7 5 4 7 53 0 7 6 5 7 6 51 0 5 5 1 1 0 39 3 1 1 1 12 34 0 6 6 0 1 0 39 0 0 0 13 0 35 8
ELSE[ ]	/* Else */
MPPEM[ ]	/* MeasurePixelPerEm */
PUSHB[ ]	/* 1 value pushed */
17
LT[ ]	/* LessThan */
IF[ ]	/* If */
NPUSHB[ ]	/* 55 values pushed */
0 1 6 7 1 33 0 2 1 5 1 2 45 0 4 5 7 5 4 7 53 0 7 6 5 7 6 51 0 5 5 1 1 0 39 3 1 1 1 12 34 0 6 6 0 1 0 39 0 0 0 16 0 35 8
ELSE[ ]	/* Else */
MPPEM[ ]	/* MeasurePixelPerEm */
PUSHB[ ]	/* 1 value pushed */
21
LT[ ]	/* LessThan */
IF[ ]	/* If */
NPUSHB[ ]	/* 55 values pushed */
0 1 6 7 1 33 0 2 1 5 1 2 45 0 4 5 7 5 4 7 53 0 7 6 5 7 6 51 0 5 5 1 1 0 39 3 1 1 1 12 34 0 6 6 0 1 0 39 0 0 0 13 0 35 8
ELSE[ ]	/* Else */
NPUSHB[ ]	/* 55 values pushed */
0 1 6 7 1 33 0 2 1 5 1 2 45 0 4 5 7 5 4 7 53 0 7 6 5 7 6 51 0 5 5 1 1 0 39 3 1 1 1 12 34 0 6 6 0 1 0 39 0 0 0 16 0 35 8
EIF[ ]	/* EndIf */
EIF[ ]	/* EndIf */
EIF[ ]	/* EndIf */
PUSHB[ ]	/* 1 value pushed */
59
CALL[ ]	/* CallFunction */";
};
width = 800;
},
{
associatedMasterId = "792D4558-F830-44B3-9794-52A6ACE12B02";
layerId = "6B1252CF-E426-46DC-A9C6-391C8BFD5F20";
shapes = (
{
closed = 1;
nodes = (
(1320,-23,o),
(1557,202,q),
(1557,485,ls),
(1557,544,o),
(1519,544,o),
(1504,511,o),
(1497,485,qs),
(1469,374,o),
(1420,298,qs),
(1286,92,o),
(1050,92,qs),
(909,92,o),
(660,211,o),
(473,422,o),
(364,709,o),
(364,877,qs),
(364,1134,o),
(530,1300,qs),
(693,1463,o),
(934,1463,qs),
(1105,1463,o),
(1264,1368,qs),
(1426,1272,o),
(1509,1112,qs),
(1520,1089,o),
(1540,1089,qs),
(1564,1089,o),
(1564,1131,qs),
(1564,1154,o),
(1554,1189,qs),
(1530,1282,ls),
(1514,1341,o),
(1505,1406,qs),
(1501,1434,o),
(1498,1493,o),
(1498,1576,o),
(1473,1576,qs),
(1460,1576,o),
(1432,1548,qs),
(1389,1505,ls),
(1357,1473,o),
(1325,1473,qs),
(1309,1473,o),
(1244,1500,qs),
(1200,1518,o),
(1138,1535,qs),
(1098,1546,o),
(999,1561,o),
(832,1561,o),
(732,1534,qs),
(528,1479,o),
(382,1332,qs),
(149,1095,o),
(149,729,qs),
(149,406,o),
(367,196,qs),
(593,-23,o),
(957,-23,qs)
);
}
);
width = 1707;
},
{
layerId = "792D4558-F830-44B3-9794-52A6ACE12B02";
shapes = (
{
closed = 1;
nodes = (
(557,-11,o),
(655,26,o),
(731,99,c),
(731,237,ls),
(731,254,o),
(726,260,o),
(721,260,cs),
(714,260,o),
(705,249,o),
(702,237,cs),
(693,202,o),
(680,171,o),
(664,146,cs),
(621,79,o),
(561,45,o),
(484,45,cs),
(301,45,o),
(149,207,o),
(149,428,cs),
(149,512,o),
(176,581,o),
(230,635,cs),
(283,688,o),
(348,714,o),
(427,714,cs),
(483,714,o),
(536,699,o),
(588,668,cs),
(640,637,o),
(680,596,o),
(708,543,cs),
(711,536,o),
(716,532,o),
(723,532,cs),
(731,532,o),
(735,539,o),
(735,552,cs),
(735,559,o),
(733,570,o),
(730,581,cs),
(718,626,ls),
(713,645,o),
(709,665,o),
(706,687,cs),
(700,726,o),
(708,770,o),
(690,770,cs),
(686,770,o),
(679,765,o),
(670,756,cs),
(649,735,ls),
(639,724,o),
(629,719,o),
(618,719,cs),
(613,719,o),
(600,723,o),
(578,732,cs),
(564,738,o),
(547,744,o),
(527,750,cs),
(505,756,o),
(471,762,o),
(429,762,cs),
(399,762,o),
(365,759,o),
(328,749,cs),
(262,731,o),
(206,699,o),
(158,650,cs),
(82,573,o),
(44,475,o),
(44,356,cs),
(44,251,o),
(79,164,o),
(150,96,cs),
(225,24,o),
(320,-11,o),
(438,-11,cs)
);
}
);
width = 789;
}
);
metricLeft = O;
note = C;
unicode = 67;
},
{
glyphname = D;
kernLeft = H;
kernRight = O;
lastChange = "2025-07-10 17:50:37 +0000";
layers = (
{
layerId = m01;
shapes = (
{
closed = 1;
nodes = (
(519,-12,o),
(593,5,o),
(661,40,cs),
(728,74,o),
(781,120,o),
(819,179,cs),
(859,240,o),
(879,308,o),
(879,383,cs),
(879,505,o),
(843,600,o),
(771,668,cs),
(694,740,o),
(579,777,o),
(428,777,cs),
(403,777,o),
(369,775,o),
(323,770,cs),
(294,767,o),
(260,762,o),
(220,762,cs),
(201,762,o),
(180,763,o),
(158,766,cs),
(148,767,o),
(129,770,o),
(110,770,cs),
(91,770,o),
(73,767,o),
(62,758,c),
(55,753,o),
(52,746,o),
(52,739,cs),
(52,728,o),
(59,718,o),
(71,718,c),
(95,721,l),
(122,721,o),
(136,714,o),
(148,687,cs),
(154,673,o),
(157,645,o),
(157,602,cs),
(157,153,ls),
(157,111,o),
(154,83,o),
(147,66,cs),
(140,49,o),
(125,40,o),
(103,40,c),
(71,43,ls),
(58,43,o),
(52,35,o),
(52,20,cs),
(52,14,o),
(56,8,o),
(62,3,cs),
(71,-4,o),
(82,-8,o),
(105,-8,cs),
(119,-8,o),
(137,-7,o),
(162,-4,cs),
(178,-2,o),
(198,0,o),
(221,0,cs),
(235,0,o),
(251,0,o),
(269,-2,cs),
(335,-8,ls),
(364,-11,o),
(397,-12,o),
(436,-12,cs)
);
},
{
closed = 1;
nodes = (
(366,61,o),
(326,66,o),
(306,75,cs),
(285,85,o),
(274,104,o),
(274,131,cs),
(274,650,ls),
(274,673,o),
(285,685,o),
(319,697,cs),
(336,703,o),
(368,706,o),
(417,706,cs),
(524,706,o),
(606,679,o),
(663,625,cs),
(722,569,o),
(753,484,o),
(753,373,cs),
(753,258,o),
(724,176,o),
(668,127,cs),
(613,79,o),
(537,61,o),
(423,61,cs)
);
}
);
userData = {
assembly = "NPUSHB[ ]	/* 30 values pushed */
0 0 64 62 55 54 0 50 0 50 43 42 41 40 35 34 31 30 27 25 17 15 12 11 8 7 2 1 13 8
CALL[ ]	/* CallFunction */
MPPEM[ ]	/* MeasurePixelPerEm */
PUSHB[ ]	/* 1 value pushed */
9
LT[ ]	/* LessThan */
IF[ ]	/* If */
NPUSHB[ ]	/* 48 values pushed */
11 12 9 3 0 0 1 1 0 39 3 2 2 1 1 12 34 0 10 10 4 1 0 39 6 5 2 4 4 13 34 8 1 7 7 4 1 0 39 6 5 2 4 4 13 4 35 6
ELSE[ ]	/* Else */
MPPEM[ ]	/* MeasurePixelPerEm */
PUSHB[ ]	/* 1 value pushed */
13
LT[ ]	/* LessThan */
IF[ ]	/* If */
NPUSHB[ ]	/* 48 values pushed */
11 12 9 3 0 0 1 1 0 39 3 2 2 1 1 12 34 0 10 10 4 1 0 39 6 5 2 4 4 16 34 8 1 7 7 4 1 0 39 6 5 2 4 4 16 4 35 6
ELSE[ ]	/* Else */
MPPEM[ ]	/* MeasurePixelPerEm */
PUSHB[ ]	/* 1 value pushed */
17
LT[ ]	/* LessThan */
IF[ ]	/* If */
NPUSHB[ ]	/* 48 values pushed */
11 12 9 3 0 0 1 1 0 39 3 2 2 1 1 12 34 0 10 10 4 1 0 39 6 5 2 4 4 13 34 8 1 7 7 4 1 0 39 6 5 2 4 4 13 4 35 6
ELSE[ ]	/* Else */
MPPEM[ ]	/* MeasurePixelPerEm */
PUSHB[ ]	/* 1 value pushed */
21
LT[ ]	/* LessThan */
IF[ ]	/* If */
NPUSHB[ ]	/* 48 values pushed */
11 12 9 3 0 0 1 1 0 39 3 2 2 1 1 12 34 0 10 10 4 1 0 39 6 5 2 4 4 16 34 8 1 7 7 4 1 0 39 6 5 2 4 4 16 4 35 6
ELSE[ ]	/* Else */
NPUSHB[ ]	/* 64 values pushed */
12 9 2 0 0 1 1 0 39 3 2 2 1 1 12 34 0 11 11 1 1 0 39 3 2 2 1 1 12 34 0 10 10 4 1 0 39 6 1 4 4 13 34 0 5 5 13 34 8 1 7 7 4 1 0 39 6 1 4 4 13 4 35 9
EIF[ ]	/* EndIf */
EIF[ ]	/* EndIf */
EIF[ ]	/* EndIf */
EIF[ ]	/* EndIf */
PUSHB[ ]	/* 1 value pushed */
59
CALL[ ]	/* CallFunction */";
};
width = 921;
},
{
associatedMasterId = "792D4558-F830-44B3-9794-52A6ACE12B02";
layerId = "6B1252CF-E426-46DC-A9C6-391C8BFD5F20";
shapes = (
{
closed = 1;
nodes = (
(1249,-24,o),
(1505,200,qs),
(1765,428,o),
(1765,770,qs),
(1765,1122,o),
(1530,1332,qs),
(1295,1542,o),
(905,1542,qs),
(810,1542,o),
(632,1524,qs),
(534,1514,o),
(433,1514,qs),
(367,1514,o),
(298,1522,qs),
(250,1526,ls),
(225,1528,o),
(137,1528,o),
(100,1499,o),
(100,1483,qs),
(100,1455,o),
(133,1455,q),
(182,1462,l),
(250,1462,o),
(274,1418,qs),
(285,1396,o),
(313,1318,o),
(313,1195,qs),
(313,321,ls),
(313,279,o),
(306,157,o),
(275,102,qs),
(254,66,o),
(197,66,q),
(133,73,l),
(100,73,o),
(100,46,qs),
(100,30,o),
(118,15,qs),
(153,-13,o),
(300,8,qs),
(320,11,o),
(364,13,qs),
(382,14,o),
(418,15,o),
(513,15,o),
(623,-1,qs),
(730,-16,ls),
(789,-24,o),
(872,-24,qs)
);
},
{
closed = 1;
nodes = (
(539,149,o),
(539,239,qs),
(539,1311,ls),
(539,1445,o),
(1156,1445,o),
(1334,1271,qs),
(1518,1091,o),
(1518,748,qs),
(1518,396,o),
(1345,230,qs),
(1261,150,o),
(1017,76,o),
(676,76,o),
(604,114,qs)
);
}
);
width = 1880;
},
{
layerId = "792D4558-F830-44B3-9794-52A6ACE12B02";
shapes = (
{
closed = 1;
nodes = (
(552,-12,o),
(655,25,o),
(738,98,cs),
(823,172,o),
(865,265,o),
(865,376,cs),
(865,491,o),
(827,582,o),
(750,650,cs),
(673,719,o),
(572,753,o),
(445,753,cs),
(414,753,o),
(370,750,o),
(312,744,cs),
(281,741,o),
(247,739,o),
(214,739,cs),
(193,739,o),
(172,740,o),
(149,743,cs),
(125,745,ls),
(117,746,o),
(109,746,o),
(101,746,cs),
(74,746,o),
(52,741,o),
(52,724,cs),
(52,715,o),
(57,710,o),
(68,710,c),
(92,714,l),
(114,714,o),
(129,707,o),
(137,692,cs),
(140,686,o),
(144,676,o),
(149,663,cs),
(154,650,o),
(156,624,o),
(156,583,cs),
(156,157,ls),
(156,129,o),
(157,86,o),
(137,50,cs),
(131,39,o),
(118,32,o),
(99,32,c),
(68,36,l),
(57,36,o),
(52,31,o),
(52,22,cs),
(52,17,o),
(54,13,o),
(61,7,cs),
(68,2,o),
(80,-1,o),
(97,-1,cs),
(111,-1,o),
(128,1,o),
(149,4,cs),
(156,5,o),
(166,5,o),
(181,6,cs),
(189,7,o),
(199,7,o),
(210,7,cs),
(235,7,o),
(268,5,o),
(307,0,cs),
(359,-8,ls),
(379,-11,o),
(402,-12,o),
(429,-12,cs)
);
},
{
closed = 1;
nodes = (
(361,37,o),
(322,43,o),
(298,56,cs),
(277,67,o),
(266,88,o),
(266,117,cs),
(266,640,ls),
(266,684,o),
(316,706,o),
(417,706,cs),
(517,706,o),
(597,677,o),
(654,621,cs),
(713,563,o),
(744,477,o),
(744,365,cs),
(744,250,o),
(716,166,o),
(660,112,cs),
(605,60,o),
(528,37,o),
(417,37,cs)
);
}
);
width = 909;
}
);
metricLeft = H;
metricRight = O;
note = D;
unicode = 68;
},
{
glyphname = E;
kernLeft = H;
kernRight = E;
lastChange = "2025-07-10 17:50:37 +0000";
layers = (
{
layerId = m01;
shapes = (
{
closed = 1;
nodes = (
(189,-1,ls),
(199,0,o),
(210,0,o),
(223,0,cs),
(630,0,l),
(643,49,o),
(660,94,o),
(679,133,cs),
(689,153,o),
(695,168,o),
(695,177,cs),
(695,185,o),
(691,188,o),
(683,188,c),
(680,187,o),
(678,187,o),
(674,186,cs),
(669,185,o),
(663,180,o),
(651,169,cs),
(634,150,ls),
(624,139,o),
(612,127,o),
(601,117,cs),
(561,81,o),
(501,63,o),
(420,63,cs),
(318,63,ls),
(287,63,o),
(272,85,o),
(272,129,cs),
(272,328,ls),
(272,345,o),
(287,358,o),
(314,358,cs),
(436,358,ls),
(450,358,o),
(463,354,o),
(478,344,c),
(508,320,o),
(515,282,o),
(530,282,cs),
(540,282,o),
(545,291,o),
(545,310,cs),
(542,392,l),
(545,471,ls),
(545,489,o),
(540,498,o),
(530,498,cs),
(516,498,o),
(516,476,o),
(498,456,cs),
(479,432,o),
(459,421,o),
(436,421,cs),
(315,421,ls),
(286,421,o),
(272,430,o),
(272,447,cs),
(272,655,ls),
(272,683,o),
(283,699,o),
(318,699,cs),
(450,699,ls),
(477,699,o),
(498,697,o),
(515,693,cs),
(524,691,o),
(534,688,o),
(545,683,cs),
(556,677,o),
(570,665,o),
(588,646,cs),
(617,614,ls),
(628,602,o),
(636,595,o),
(641,595,cs),
(648,595,o),
(651,600,o),
(651,609,cs),
(651,614,o),
(650,621,o),
(647,632,cs),
(634,687,ls),
(628,714,o),
(624,739,o),
(622,762,c),
(218,762,ls),
(200,762,o),
(180,763,o),
(155,766,cs),
(130,769,ls),
(121,770,o),
(110,770,o),
(96,770,cs),
(81,770,o),
(71,767,o),
(62,759,cs),
(55,753,o),
(52,745,o),
(52,739,cs),
(52,728,o),
(59,719,o),
(71,719,c),
(95,722,l),
(120,722,o),
(136,714,o),
(148,687,cs),
(154,674,o),
(157,645,o),
(157,602,cs),
(157,161,ls),
(157,117,o),
(154,87,o),
(147,70,cs),
(140,51,o),
(125,41,o),
(102,41,c),
(71,44,l),
(61,44,o),
(52,35,o),
(52,23,cs),
(52,17,o),
(55,10,o),
(62,3,cs),
(69,-4,o),
(83,-7,o),
(106,-7,cs),
(114,-7,o),
(122,-7,o),
(132,-6,cs)
);
}
);
userData = {
assembly = "NPUSHB[ ]	/* 34 values pushed */
94 91 86 84 80 78 74 71 67 64 58 56 50 48 45 44 39 38 37 36 29 28 27 26 21 20 18 15 12 11 4 1 16 8
CALL[ ]	/* CallFunction */
NPUSHB[ ]	/* 94 values pushed */
0 10 11 13 11 10 13 53 0 1 14 0 14 1 0 53 0 12 0 15 14 12 15 1 0 41 7 1 6 6 8 1 0 39 9 1 8 8 12 34 0 11 11 8 1 0 39 9 1 8 8 12 34 0 14 14 13 1 0 39 0 13 13 15 34 0 0 0 2 1 0 39 3 1 2 2 13 34 5 1 4 4 2 1 0 39 3 1 2 2 13 2 35 13
PUSHB[ ]	/* 1 value pushed */
59
CALL[ ]	/* CallFunction */";
};
width = 704;
},
{
associatedMasterId = "792D4558-F830-44B3-9794-52A6ACE12B02";
layerId = "6B1252CF-E426-46DC-A9C6-391C8BFD5F20";
shapes = (
{
closed = 1;
nodes = (
(298,0,o),
(393,0,qs),
(1213,0,l),
(1238,72,ls),
(1250,105,o),
(1278,168,o),
(1312,231,o),
(1369,327,o),
(1369,354,qs),
(1369,368,o),
(1327,368,o),
(1291,332,qs),
(1242,282,ls),
(1217,257,o),
(1189,232,qs),
(1034,97,o),
(791,97,qs),
(584,97,ls),
(487,97,o),
(487,236,qs),
(487,678,ls),
(487,706,o),
(534,745,o),
(577,745,qs),
(823,745,ls),
(864,745,o),
(910,710,qs),
(933,693,o),
(974,641,o),
(999,581,o),
(1013,581,qs),
(1039,581,o),
(1039,631,q),
(1031,787,l),
(1039,946,l),
(1039,997,o),
(1013,997,qs),
(1004,997,o),
(993,981,o),
(974,937,o),
(954,912,qs),
(895,842,o),
(823,842,qs),
(578,842,ls),
(487,842,o),
(487,899,qs),
(487,1323,ls),
(487,1368,o),
(528,1415,o),
(584,1415,qs),
(851,1415,ls),
(932,1415,o),
(986,1395,qs),
(1012,1385,o),
(1056,1358,o),
(1110,1314,o),
(1229,1179,qs),
(1244,1161,o),
(1258,1161,qs),
(1274,1161,o),
(1274,1209,o),
(1228,1356,qs),
(1202,1442,o),
(1194,1513,q),
(382,1513,ls),
(328,1513,o),
(250,1522,qs),
(202,1526,ls),
(177,1528,o),
(89,1528,o),
(52,1499,o),
(52,1483,qs),
(52,1455,o),
(85,1455,q),
(134,1462,l),
(202,1462,o),
(226,1418,qs),
(237,1396,o),
(265,1318,o),
(265,1195,qs),
(265,321,ls),
(265,153,o),
(227,86,qs),
(206,51,o),
(149,51,q),
(85,58,l),
(52,58,o),
(52,31,qs),
(52,15,o),
(89,-15,o),
(199,-15,o),
(265,-5,qs)
);
}
);
width = 1367;
},
{
layerId = "792D4558-F830-44B3-9794-52A6ACE12B02";
shapes = (
{
closed = 1;
nodes = (
(167,-1,o),
(188,0,o),
(219,0,cs),
(619,0,l),
(631,35,ls),
(639,56,o),
(649,78,o),
(660,98,cs),
(672,120,o),
(695,155,o),
(695,173,cs),
(695,178,o),
(692,180,o),
(685,180,cs),
(678,180,o),
(669,174,o),
(657,162,cs),
(633,138,ls),
(625,129,o),
(617,121,o),
(608,113,cs),
(557,69,o),
(492,47,o),
(413,47,cs),
(312,47,ls),
(281,47,o),
(265,70,o),
(265,115,cs),
(265,331,ls),
(265,350,o),
(281,364,o),
(309,364,cs),
(429,364,ls),
(442,364,o),
(457,358,o),
(471,347,cs),
(503,323,o),
(511,284,o),
(522,284,cs),
(530,284,o),
(534,292,o),
(534,308,cs),
(530,384,l),
(534,462,ls),
(534,479,o),
(530,487,o),
(522,487,cs),
(510,487,o),
(510,467,o),
(493,445,cs),
(474,423,o),
(452,411,o),
(429,411,cs),
(309,411,ls),
(280,411,o),
(265,420,o),
(265,439,cs),
(265,646,ls),
(265,675,o),
(276,691,o),
(312,691,cs),
(443,691,ls),
(469,691,o),
(490,688,o),
(508,681,cs),
(526,674,o),
(539,667,o),
(556,653,cs),
(564,646,o),
(589,619,o),
(627,576,cs),
(631,571,o),
(636,567,o),
(641,567,cs),
(646,567,o),
(649,571,o),
(649,579,cs),
(649,586,o),
(642,613,o),
(627,662,cs),
(618,691,o),
(613,715,o),
(610,739,c),
(214,739,ls),
(196,739,o),
(175,740,o),
(149,743,cs),
(126,745,ls),
(118,746,o),
(109,746,o),
(100,746,cs),
(74,746,o),
(52,741,o),
(52,724,cs),
(52,715,o),
(58,710,o),
(69,710,c),
(92,714,l),
(115,714,o),
(130,706,o),
(137,692,cs),
(141,685,o),
(145,676,o),
(150,663,cs),
(154,650,o),
(156,624,o),
(156,583,cs),
(156,157,ls),
(156,102,o),
(150,64,o),
(138,42,cs),
(131,30,o),
(119,25,o),
(100,25,c),
(69,28,ls),
(58,28,o),
(52,24,o),
(52,15,cs),
(52,-1,o),
(71,-7,o),
(101,-7,cs),
(117,-7,o),
(135,-5,o),
(156,-2,cs)
);
}
);
width = 694;
}
);
metricLeft = H;
note = E;
unicode = 69;
},
{
glyphname = F;
kernLeft = H;
kernRight = F;
lastChange = "2025-07-10 18:06:31 +0000";
layers = (
{
layerId = m01;
shapes = (
{
closed = 1;
nodes = (
(356,-7,l),
(372,-7,o),
(386,-3,o),
(396,4,cs),
(403,9,o),
(406,18,o),
(406,26,cs),
(406,36,o),
(401,45,o),
(389,45,cs),
(327,41,ls),
(304,41,o),
(291,48,o),
(280,73,cs),
(275,84,o),
(272,112,o),
(272,154,cs),
(272,326,ls),
(272,343,o),
(287,356,o),
(314,356,cs),
(449,356,ls),
(456,356,o),
(462,355,o),
(469,353,cs),
(495,344,o),
(514,325,o),
(528,295,c),
(531,286,o),
(536,280,o),
(543,280,cs),
(553,280,o),
(558,289,o),
(558,308,cs),
(554,384,l),
(558,469,ls),
(558,487,o),
(553,496,o),
(543,496,cs),
(527,496,o),
(531,476,o),
(511,454,cs),
(492,431,o),
(471,419,o),
(449,419,cs),
(315,419,ls),
(286,419,o),
(272,428,o),
(272,445,cs),
(272,646,ls),
(272,678,o),
(289,699,o),
(318,699,cs),
(459,699,ls),
(502,699,o),
(538,689,o),
(569,667,cs),
(614,633,o),
(642,583,o),
(656,583,cs),
(663,583,o),
(667,589,o),
(667,600,cs),
(667,611,o),
(662,635,o),
(653,669,cs),
(641,716,ls),
(636,732,o),
(633,747,o),
(631,762,c),
(222,762,ls),
(210,762,o),
(199,763,o),
(190,764,cs),
(133,769,ls),
(122,770,o),
(111,770,o),
(97,770,cs),
(82,770,o),
(70,766,o),
(62,759,cs),
(55,752,o),
(52,744,o),
(52,738,cs),
(52,727,o),
(59,719,o),
(71,719,c),
(95,722,l),
(122,722,o),
(137,714,o),
(149,688,cs),
(154,675,o),
(157,646,o),
(157,602,cs),
(157,154,ls),
(157,111,o),
(154,83,o),
(147,67,cs),
(140,50,o),
(125,41,o),
(103,41,c),
(71,44,ls),
(58,44,o),
(52,36,o),
(52,21,cs),
(52,15,o),
(56,9,o),
(62,4,cs),
(71,-3,o),
(83,-7,o),
(106,-7,cs),
(121,-7,o),
(141,-6,o),
(169,-2,cs),
(183,-1,o),
(199,0,o),
(215,0,cs),
(356,-7,l)
);
}
);
userData = {
assembly = "NPUSHB[ ]	/* 36 values pushed */
2 0 83 80 74 71 67 65 61 59 55 52 48 45 41 39 34 32 30 28 23 22 21 20 13 12 11 10 5 4 0 88 2 88 16 8
CALL[ ]	/* CallFunction */
NPUSHB[ ]	/* 75 values pushed */
0 8 9 11 9 8 11 53 0 10 0 13 12 10 13 1 0 41 5 1 4 4 6 1 0 39 7 1 6 6 12 34 0 9 9 6 1 0 39 7 1 6 6 12 34 0 12 12 11 1 0 39 0 11 11 15 34 14 3 2 2 2 0 1 0 39 1 15 2 0 0 13 0 35 10
PUSHB[ ]	/* 1 value pushed */
59
CALL[ ]	/* CallFunction */";
};
width = 689;
},
{
associatedMasterId = "792D4558-F830-44B3-9794-52A6ACE12B02";
layerId = "6B1252CF-E426-46DC-A9C6-391C8BFD5F20";
shapes = (
{
closed = 1;
nodes = (
(587,1,o),
(624,0,o),
(690,0,o),
(737,30,o),
(737,58,o),
(720,76,o),
(704,76,q),
(610,66,l),
(553,66,o),
(532,102,qs),
(522,120,o),
(494,197,o),
(494,321,qs),
(494,674,ls),
(494,702,o),
(541,740,o),
(584,740,qs),
(877,740,ls),
(917,740,o),
(964,705,qs),
(986,688,o),
(1026,637,o),
(1053,577,o),
(1067,577,qs),
(1092,577,o),
(1092,627,q),
(1084,782,l),
(1092,942,l),
(1092,993,o),
(1067,993,qs),
(1057,993,o),
(1046,977,o),
(1026,932,o),
(1006,908,qs),
(948,838,o),
(877,838,qs),
(585,838,ls),
(494,838,o),
(494,895,qs),
(494,1303,ls),
(494,1356,o),
(545,1415,o),
(591,1415,qs),
(867,1415,ls),
(948,1415,o),
(1002,1395,qs),
(1029,1385,o),
(1073,1358,o),
(1123,1317,o),
(1212,1218,qs),
(1231,1197,o),
(1259,1161,o),
(1291,1161,o),
(1291,1210,o),
(1246,1351,qs),
(1221,1433,o),
(1210,1513,q),
(396,1513,ls),
(380,1513,o),
(362,1514,qs),
(312,1517,ls),
(281,1518,o),
(257,1522,q),
(209,1526,ls),
(184,1528,o),
(96,1528,o),
(59,1499,o),
(59,1483,qs),
(59,1455,o),
(92,1455,q),
(141,1462,l),
(209,1462,o),
(232,1418,qs),
(244,1396,o),
(272,1318,o),
(272,1195,qs),
(272,321,ls),
(272,279,o),
(265,157,o),
(234,102,qs),
(213,66,o),
(156,66,q),
(92,73,l),
(59,73,o),
(59,46,qs),
(59,30,o),
(78,15,qs),
(113,-14,o),
(272,10,qs),
(305,15,o),
(383,15,qs),
(412,15,o),
(448,13,qs),
(465,12,o),
(497,9,o),
(540,4,o),
(568,2,qs)
);
}
);
width = 1363;
},
{
layerId = "792D4558-F830-44B3-9794-52A6ACE12B02";
shapes = (
{
closed = 1;
nodes = (
(325,0,o),
(333,0,o),
(344,0,cs),
(365,0,o),
(383,13,o),
(383,22,cs),
(383,30,o),
(378,37,o),
(367,37,c),
(321,32,l),
(302,32,o),
(289,39,o),
(283,50,cs),
(279,57,o),
(276,65,o),
(271,78,cs),
(266,91,o),
(264,116,o),
(264,157,cs),
(264,329,ls),
(264,348,o),
(280,361,o),
(308,361,cs),
(451,361,ls),
(464,361,o),
(479,355,o),
(494,344,cs),
(524,320,o),
(533,282,o),
(544,282,cs),
(552,282,o),
(556,290,o),
(556,306,cs),
(552,382,l),
(556,460,ls),
(556,477,o),
(552,485,o),
(544,485,cs),
(533,485,o),
(530,462,o),
(514,443,cs),
(495,420,o),
(474,409,o),
(451,409,cs),
(309,409,ls),
(279,409,o),
(264,418,o),
(264,437,cs),
(264,636,ls),
(264,671,o),
(281,691,o),
(312,691,cs),
(446,691,ls),
(473,691,o),
(494,688,o),
(512,681,cs),
(530,674,o),
(542,667,o),
(559,653,cs),
(566,647,o),
(585,628,o),
(615,595,cs),
(627,580,o),
(636,567,o),
(646,567,cs),
(651,567,o),
(653,570,o),
(653,577,cs),
(653,591,o),
(644,618,o),
(631,660,cs),
(623,687,o),
(617,714,o),
(614,739,c),
(216,739,ls),
(211,739,o),
(206,739,o),
(200,739,cs),
(175,741,ls),
(165,741,o),
(155,742,o),
(148,743,cs),
(125,745,ls),
(117,746,o),
(109,746,o),
(101,746,cs),
(74,746,o),
(52,741,o),
(52,724,cs),
(52,715,o),
(57,710,o),
(68,710,c),
(92,714,l),
(114,714,o),
(129,706,o),
(136,692,cs),
(140,685,o),
(144,676,o),
(149,663,cs),
(154,650,o),
(156,624,o),
(156,583,cs),
(156,157,ls),
(156,129,o),
(157,86,o),
(137,50,cs),
(131,39,o),
(118,32,o),
(99,32,c),
(68,36,l),
(57,36,o),
(52,31,o),
(52,22,cs),
(52,17,o),
(54,13,o),
(61,7,cs),
(67,2,o),
(79,0,o),
(97,0,cs),
(113,0,o),
(132,1,o),
(156,5,cs),
(166,6,o),
(185,7,o),
(210,7,cs),
(219,7,o),
(229,7,o),
(242,6,cs),
(255,6,o),
(274,3,o),
(300,1,cs),
(307,0,o),
(313,0,o),
(319,0,cs)
);
}
);
width = 689;
}
);
metricLeft = H;
note = F;
unicode = 70;
},
{
glyphname = G;
kernLeft = O;
kernRight = G;
lastChange = "2025-07-10 17:44:34 +0000";
layers = (
{
layerId = m01;
shapes = (
{
closed = 1;
nodes = (
(524,-11,o),
(576,-5,o),
(617,7,cs),
(686,27,o),
(707,51,o),
(752,76,cs),
(796,99,l),
(796,250,ls),
(796,262,o),
(796,274,o),
(797,288,cs),
(797,339,o),
(805,364,o),
(822,364,c),
(857,359,l),
(864,359,o),
(876,367,o),
(876,381,cs),
(876,384,o),
(875,387,o),
(874,391,cs),
(868,405,o),
(853,412,o),
(830,412,c),
(739,404,l),
(727,404,o),
(709,405,o),
(684,408,cs),
(671,409,o),
(649,412,o),
(629,412,cs),
(610,412,o),
(593,410,o),
(583,400,c),
(577,395,o),
(575,388,o),
(575,381,cs),
(575,369,o),
(581,358,o),
(593,358,c),
(629,364,l),
(652,364,o),
(664,358,o),
(675,332,cs),
(680,320,o),
(683,292,o),
(683,250,cs),
(683,157,ls),
(683,128,o),
(663,104,o),
(621,85,cs),
(584,68,o),
(546,60,o),
(505,60,cs),
(407,60,o),
(326,90,o),
(262,150,cs),
(196,213,o),
(162,296,o),
(162,398,cs),
(162,487,o),
(190,561,o),
(246,619,cs),
(299,674,o),
(382,707,o),
(472,707,cs),
(523,707,o),
(576,697,o),
(628,674,cs),
(681,651,o),
(720,618,o),
(744,576,cs),
(748,568,o),
(754,564,o),
(761,564,cs),
(770,564,o),
(774,572,o),
(774,587,cs),
(774,594,o),
(772,606,o),
(769,619,cs),
(759,665,l),
(737,744,o),
(751,791,o),
(728,791,cs),
(721,791,o),
(709,782,o),
(689,761,cs),
(678,749,o),
(667,742,o),
(657,742,cs),
(651,742,o),
(641,745,o),
(628,750,cs),
(581,768,o),
(532,777,o),
(481,777,cs),
(351,777,o),
(244,737,o),
(163,659,cs),
(86,586,o),
(42,482,o),
(42,363,cs),
(42,256,o),
(80,168,o),
(154,99,cs),
(227,31,o),
(337,-11,o),
(462,-11,cs)
);
}
);
userData = {
assembly = "NPUSHB[ ]	/* 34 values pushed */
0 0 0 80 0 80 76 75 74 73 70 69 64 63 62 61 54 52 45 44 40 38 31 29 27 25 23 21 13 12 2 1 15 8
CALL[ ]	/* CallFunction */
MPPEM[ ]	/* MeasurePixelPerEm */
PUSHB[ ]	/* 1 value pushed */
13
LT[ ]	/* LessThan */
IF[ ]	/* If */
NPUSHB[ ]	/* 65 values pushed */
6 1 7 0 1 33 0 3 2 6 2 3 6 53 0 5 6 10 6 5 10 53 12 11 2 10 14 13 9 8 4 0 7 10 0 1 0 41 0 6 6 2 1 0 39 4 1 2 2 12 34 0 7 7 1 1 0 39 0 1 1 13 1 35 8
ELSE[ ]	/* Else */
MPPEM[ ]	/* MeasurePixelPerEm */
PUSHB[ ]	/* 1 value pushed */
17
LT[ ]	/* LessThan */
IF[ ]	/* If */
NPUSHB[ ]	/* 65 values pushed */
6 1 7 0 1 33 0 3 2 6 2 3 6 53 0 5 6 10 6 5 10 53 12 11 2 10 14 13 9 8 4 0 7 10 0 1 0 41 0 6 6 2 1 0 39 4 1 2 2 12 34 0 7 7 1 1 0 39 0 1 1 16 1 35 8
ELSE[ ]	/* Else */
MPPEM[ ]	/* MeasurePixelPerEm */
PUSHB[ ]	/* 1 value pushed */
19
LT[ ]	/* LessThan */
IF[ ]	/* If */
NPUSHB[ ]	/* 65 values pushed */
6 1 7 0 1 33 0 3 2 6 2 3 6 53 0 5 6 10 6 5 10 53 12 11 2 10 14 13 9 8 4 0 7 10 0 1 0 41 0 6 6 2 1 0 39 4 1 2 2 12 34 0 7 7 1 1 0 39 0 1 1 13 1 35 8
ELSE[ ]	/* Else */
MPPEM[ ]	/* MeasurePixelPerEm */
PUSHB[ ]	/* 1 value pushed */
21
LT[ ]	/* LessThan */
IF[ ]	/* If */
NPUSHB[ ]	/* 69 values pushed */
6 1 7 0 1 33 0 3 2 6 2 3 6 53 0 5 6 10 6 5 10 53 12 11 2 10 14 13 9 8 4 0 7 10 0 1 0 41 0 4 4 18 34 0 6 6 2 1 0 39 0 2 2 12 34 0 7 7 1 1 0 39 0 1 1 13 1 35 9
ELSE[ ]	/* Else */
NPUSHB[ ]	/* 69 values pushed */
6 1 7 0 1 33 0 3 2 6 2 3 6 53 0 5 6 10 6 5 10 53 12 11 2 10 14 13 9 8 4 0 7 10 0 1 0 41 0 4 4 18 34 0 6 6 2 1 0 39 0 2 2 12 34 0 7 7 1 1 0 39 0 1 1 16 1 35 9
EIF[ ]	/* EndIf */
EIF[ ]	/* EndIf */
EIF[ ]	/* EndIf */
EIF[ ]	/* EndIf */
PUSHB[ ]	/* 1 value pushed */
59
CALL[ ]	/* CallFunction */";
};
width = 886;
},
{
associatedMasterId = "792D4558-F830-44B3-9794-52A6ACE12B02";
layerId = "6B1252CF-E426-46DC-A9C6-391C8BFD5F20";
shapes = (
{
closed = 1;
nodes = (
(1235,31,o),
(1339,83,o),
(1408,133,o),
(1448,154,qs),
(1532,199,l),
(1532,500,ls),
(1532,536,o),
(1532,580,qs),
(1534,755,o),
(1589,755,q),
(1660,747,l),
(1693,747,o),
(1693,775,qs),
(1693,791,o),
(1656,821,o),
(1565,821,o),
(1475,806,o),
(1401,806,qs),
(1348,806,o),
(1300,814,q),
(1276,816,ls),
(1262,818,o),
(1229,820,o),
(1195,821,o),
(1129,821,o),
(1092,791,o),
(1092,763,o),
(1109,745,o),
(1125,745,q),
(1199,755,l),
(1256,755,o),
(1276,720,qs),
(1287,701,o),
(1315,624,o),
(1315,500,qs),
(1315,293,ls),
(1315,197,o),
(1238,142,qs),
(1202,117,o),
(1105,91,o),
(960,91,o),
(872,116,qs),
(692,166,o),
(557,303,qs),
(332,531,o),
(332,889,qs),
(332,1138,o),
(490,1294,qs),
(565,1368,o),
(779,1451,o),
(1085,1451,o),
(1232,1374,qs),
(1383,1294,o),
(1454,1162,qs),
(1467,1140,o),
(1486,1140,qs),
(1508,1140,o),
(1508,1222,o),
(1485,1297,qs),
(1472,1342,o),
(1458,1415,qs),
(1451,1448,o),
(1443,1512,o),
(1443,1587,o),
(1419,1587,qs),
(1403,1587,o),
(1377,1561,qs),
(1348,1531,ls),
(1320,1503,o),
(1308,1496,qs),
(1300,1491,o),
(1289,1489,o),
(1258,1489,o),
(1216,1505,qs),
(1080,1561,o),
(904,1561,qs),
(802,1561,o),
(696,1532,qs),
(484,1475,o),
(341,1324,qs),
(118,1088,o),
(118,729,qs),
(118,412,o),
(326,198,qs),
(425,96,o),
(706,-23,o),
(1050,-23,o),
(1174,13,qs)
);
}
);
width = 1707;
},
{
layerId = "792D4558-F830-44B3-9794-52A6ACE12B02";
shapes = (
{
closed = 1;
nodes = (
(471,-11,o),
(520,-5,o),
(559,6,cs),
(626,26,o),
(647,51,o),
(693,75,cs),
(734,97,l),
(734,244,ls),
(734,256,o),
(734,269,o),
(734,283,cs),
(735,341,o),
(744,369,o),
(762,369,c),
(797,365,l),
(808,365,o),
(813,369,o),
(813,378,cs),
(813,396,o),
(798,400,o),
(775,400,cs),
(748,400,o),
(710,394,o),
(670,394,cs),
(653,394,o),
(636,395,o),
(621,397,cs),
(609,398,ls),
(594,400,o),
(574,401,o),
(553,401,cs),
(532,401,o),
(519,388,o),
(519,380,cs),
(519,371,o),
(526,364,o),
(535,364,c),
(571,369,l),
(590,369,o),
(602,364,o),
(609,352,cs),
(612,346,o),
(616,337,o),
(621,324,cs),
(626,310,o),
(628,285,o),
(628,244,cs),
(628,143,ls),
(628,112,o),
(615,87,o),
(590,69,cs),
(569,54,o),
(537,44,o),
(496,44,cs),
(471,44,o),
(443,48,o),
(412,57,cs),
(353,73,o),
(302,103,o),
(258,148,cs),
(184,223,o),
(148,317,o),
(148,434,cs),
(148,515,o),
(173,581,o),
(225,632,cs),
(274,680,o),
(341,708,o),
(441,708,cs),
(491,708,o),
(541,695,o),
(588,671,cs),
(637,645,o),
(673,610,o),
(696,567,cs),
(700,560,o),
(705,557,o),
(712,557,cs),
(719,557,o),
(722,564,o),
(722,577,cs),
(722,590,o),
(718,610,o),
(711,633,cs),
(707,648,o),
(703,666,o),
(698,691,cs),
(687,735,o),
(698,775,o),
(679,775,cs),
(674,775,o),
(667,771,o),
(658,762,cs),
(644,748,ls),
(635,738,o),
(628,732,o),
(625,730,cs),
(621,728,o),
(617,727,o),
(612,727,cs),
(604,727,o),
(595,729,o),
(580,735,cs),
(535,753,o),
(484,762,o),
(427,762,cs),
(394,762,o),
(360,757,o),
(326,748,cs),
(256,729,o),
(199,695,o),
(153,646,cs),
(80,569,o),
(44,473,o),
(44,356,cs),
(44,253,o),
(78,166,o),
(145,97,cs),
(210,31,o),
(303,-11,o),
(415,-11,cs)
);
}
);
width = 819;
}
);
metricLeft = O;
note = G;
unicode = 71;
},
{
glyphname = H;
kernLeft = H;
kernRight = H;
lastChange = "2025-07-10 17:50:21 +0000";
layers = (
{
guides = (
{
pos = (444,771);
}
);
layerId = m01;
shapes = (
{
closed = 1;
nodes = (
(306,-7,o),
(314,-7,o),
(321,-7,cs),
(344,-7,o),
(360,-4,o),
(368,3,cs),
(374,9,o),
(377,17,o),
(377,24,cs),
(377,34,o),
(371,43,o),
(358,43,cs),
(327,41,ls),
(304,41,o),
(291,47,o),
(280,72,cs),
(275,83,o),
(272,111,o),
(272,154,cs),
(272,374,ls),
(272,391,o),
(287,405,o),
(324,405,cs),
(624,405,ls),
(660,405,o),
(676,391,o),
(676,374,cs),
(676,154,ls),
(676,112,o),
(673,84,o),
(666,67,cs),
(658,50,o),
(643,41,o),
(621,41,cs),
(589,43,ls),
(579,43,o),
(571,34,o),
(571,22,cs),
(571,16,o),
(574,9,o),
(580,3,c),
(589,-4,o),
(602,-7,o),
(624,-7,cs),
(638,-7,o),
(656,-6,o),
(679,-4,cs),
(705,-1,ls),
(714,0,o),
(723,0,o),
(734,0,cs),
(744,0,o),
(753,0,o),
(762,-1,cs),
(788,-4,ls),
(797,-5,o),
(805,-5,o),
(815,-6,cs),
(824,-7,o),
(832,-7,o),
(840,-7,cs),
(863,-7,o),
(879,-4,o),
(887,3,cs),
(893,9,o),
(896,16,o),
(896,23,cs),
(896,34,o),
(888,43,o),
(877,43,cs),
(846,41,ls),
(823,41,o),
(810,46,o),
(799,72,cs),
(794,84,o),
(791,112,o),
(791,154,cs),
(791,608,ls),
(791,650,o),
(794,678,o),
(801,695,cs),
(809,713,o),
(824,722,o),
(846,722,c),
(877,719,l),
(888,719,o),
(896,728,o),
(896,739,cs),
(896,746,o),
(893,753,o),
(887,759,c),
(876,766,o),
(864,770,o),
(843,770,cs),
(829,770,o),
(812,768,o),
(788,766,cs),
(762,764,ls),
(754,763,o),
(744,762,o),
(734,762,cs),
(723,762,o),
(713,763,o),
(705,764,cs),
(679,766,ls),
(665,767,o),
(643,771,o),
(623,771,cs),
(596,771,o),
(571,764,o),
(571,738,cs),
(571,728,o),
(577,719,o),
(589,719,cs),
(610,721,o),
(621,722,o),
(621,722,c),
(644,722,o),
(657,716,o),
(668,690,cs),
(673,678,o),
(676,650,o),
(676,608,cs),
(676,500,ls),
(676,483,o),
(659,475,o),
(624,475,cs),
(324,475,ls),
(289,475,o),
(272,483,o),
(272,500,cs),
(272,608,ls),
(272,651,o),
(275,679,o),
(282,695,cs),
(289,712,o),
(304,722,o),
(327,722,c),
(358,719,ls),
(371,719,o),
(377,726,o),
(377,741,cs),
(377,747,o),
(374,753,o),
(368,759,c),
(357,767,o),
(346,770,o),
(326,770,cs),
(312,770,o),
(294,768,o),
(269,766,cs),
(242,764,ls),
(235,763,o),
(225,762,o),
(214,762,cs),
(204,762,o),
(194,763,o),
(187,764,cs),
(161,766,ls),
(146,767,o),
(125,770,o),
(105,770,cs),
(88,770,o),
(72,768,o),
(62,759,cs),
(55,754,o),
(52,746,o),
(52,738,cs),
(52,728,o),
(58,719,o),
(70,719,c),
(103,722,l),
(126,722,o),
(138,716,o),
(149,690,cs),
(154,678,o),
(157,650,o),
(157,608,cs),
(157,154,ls),
(157,112,o),
(154,84,o),
(147,67,cs),
(140,50,o),
(125,41,o),
(103,41,cs),
(70,43,ls),
(60,43,o),
(52,33,o),
(52,23,cs),
(52,16,o),
(55,9,o),
(62,3,cs),
(71,-4,o),
(83,-7,o),
(105,-7,cs),
(119,-7,o),
(137,-6,o),
(161,-4,cs),
(187,-1,ls),
(196,0,o),
(204,0,o),
(214,0,cs),
(225,0,o),
(233,0,o),
(242,-1,cs),
(269,-4,ls),
(278,-5,o),
(286,-5,o),
(297,-6,cs)
);
}
);
userData = {
assembly = "NPUSHB[ ]	/* 66 values pushed */
0 0 0 148 0 148 142 139 133 132 131 130 125 124 121 120 117 116 110 109 108 107 100 99 98 97 92 91 88 87 83 82 77 76 74 73 68 65 60 59 58 57 52 51 48 46 42 41 36 35 34 33 26 25 24 23 18 17 14 12 9 8 2 1 31 8
CALL[ ]	/* CallFunction */
NPUSHB[ ]	/* 61 values pushed */
0 13 0 28 0 13 28 1 0 41 20 19 15 14 12 11 7 7 6 6 8 1 0 39 18 17 16 10 9 5 8 8 12 34 30 29 27 26 22 21 5 4 8 0 0 1 1 0 39 25 24 23 3 2 5 1 1 13 1 35 5
PUSHB[ ]	/* 1 value pushed */
59
CALL[ ]	/* CallFunction */";
};
width = 948;
},
{
associatedMasterId = "792D4558-F830-44B3-9794-52A6ACE12B02";
layerId = "6B1252CF-E426-46DC-A9C6-391C8BFD5F20";
shapes = (
{
closed = 1;
nodes = (
(701,0,o),
(738,30,o),
(738,46,qs),
(738,73,o),
(705,73,q),
(641,66,l),
(584,66,o),
(564,102,qs),
(553,120,o),
(525,197,o),
(525,321,qs),
(525,781,ls),
(525,809,o),
(577,849,o),
(635,849,qs),
(1241,849,ls),
(1298,849,o),
(1351,809,o),
(1351,781,qs),
(1351,321,ls),
(1351,279,o),
(1344,157,o),
(1313,102,qs),
(1292,66,o),
(1235,66,q),
(1171,73,l),
(1138,73,o),
(1138,46,qs),
(1138,30,o),
(1156,15,qs),
(1192,-14,o),
(1351,10,qs),
(1384,15,o),
(1462,15,qs),
(1492,15,o),
(1526,13,qs),
(1544,12,o),
(1576,9,o),
(1651,0,o),
(1709,0,qs),
(1749,0,o),
(1786,30,o),
(1786,46,qs),
(1786,73,o),
(1753,73,q),
(1689,66,l),
(1632,66,o),
(1612,102,qs),
(1601,120,o),
(1573,197,o),
(1573,321,qs),
(1573,1207,ls),
(1573,1249,o),
(1580,1371,o),
(1611,1426,qs),
(1632,1462,o),
(1689,1462,q),
(1753,1455,l),
(1786,1455,o),
(1786,1482,qs),
(1786,1498,o),
(1749,1528,o),
(1639,1528,o),
(1573,1518,qs),
(1540,1513,o),
(1462,1513,qs),
(1432,1513,o),
(1398,1515,qs),
(1380,1516,o),
(1348,1519,o),
(1273,1528,o),
(1215,1528,qs),
(1175,1528,o),
(1138,1498,o),
(1138,1482,qs),
(1138,1455,o),
(1171,1455,q),
(1235,1462,l),
(1292,1462,o),
(1312,1426,qs),
(1323,1408,o),
(1351,1331,o),
(1351,1207,qs),
(1351,1005,ls),
(1351,949,o),
(1241,949,qs),
(635,949,ls),
(574,949,o),
(542,967,qs),
(525,977,o),
(525,1005,qs),
(525,1207,ls),
(525,1249,o),
(532,1371,o),
(563,1426,qs),
(584,1462,o),
(641,1462,q),
(705,1455,l),
(738,1455,o),
(738,1482,qs),
(738,1498,o),
(701,1528,o),
(591,1528,o),
(525,1518,qs),
(492,1513,o),
(414,1513,qs),
(384,1513,o),
(350,1515,qs),
(332,1516,o),
(300,1519,o),
(225,1528,o),
(167,1528,qs),
(127,1528,o),
(90,1498,o),
(90,1482,qs),
(90,1455,o),
(123,1455,q),
(187,1462,l),
(244,1462,o),
(264,1426,qs),
(275,1408,o),
(303,1331,o),
(303,1207,qs),
(303,321,ls),
(303,279,o),
(296,157,o),
(265,102,qs),
(244,66,o),
(187,66,q),
(123,73,l),
(90,73,o),
(90,46,qs),
(90,30,o),
(108,15,qs),
(144,-14,o),
(303,10,qs),
(336,15,o),
(414,15,qs),
(444,15,o),
(478,13,qs),
(496,12,o),
(528,9,o),
(603,0,o),
(661,0,qs)
);
}
);
width = 1877;
},
{
layerId = "792D4558-F830-44B3-9794-52A6ACE12B02";
shapes = (
{
closed = 1;
nodes = (
(356,0,o),
(368,13,o),
(368,22,cs),
(368,31,o),
(363,36,o),
(352,36,c),
(321,32,l),
(302,32,o),
(289,39,o),
(283,50,cs),
(279,57,o),
(276,65,o),
(271,78,cs),
(266,91,o),
(264,116,o),
(264,157,cs),
(264,381,ls),
(264,400,o),
(281,415,o),
(318,415,cs),
(614,415,ls),
(651,415,o),
(668,400,o),
(668,381,cs),
(668,157,ls),
(668,129,o),
(669,86,o),
(649,50,cs),
(643,39,o),
(630,32,o),
(611,32,c),
(580,36,l),
(569,36,o),
(564,31,o),
(564,22,cs),
(564,17,o),
(567,12,o),
(572,7,cs),
(579,2,o),
(591,-1,o),
(608,-1,cs),
(624,-1,o),
(643,1,o),
(668,5,cs),
(678,6,o),
(697,7,o),
(722,7,cs),
(732,7,o),
(742,7,o),
(753,6,cs),
(774,6,o),
(796,0,o),
(842,0,cs),
(855,0,o),
(865,3,o),
(871,8,cs),
(878,13,o),
(880,17,o),
(880,22,cs),
(880,31,o),
(875,36,o),
(864,36,c),
(833,32,l),
(814,32,o),
(801,39,o),
(795,50,cs),
(791,57,o),
(788,65,o),
(783,78,cs),
(778,91,o),
(776,116,o),
(776,157,cs),
(776,589,ls),
(776,617,o),
(773,659,o),
(795,696,cs),
(801,707,o),
(814,714,o),
(833,714,c),
(864,710,l),
(875,710,o),
(880,715,o),
(880,724,cs),
(880,739,o),
(860,746,o),
(830,746,cs),
(814,746,o),
(796,744,o),
(776,741,cs),
(766,740,o),
(747,739,o),
(722,739,cs),
(712,739,o),
(702,739,o),
(691,740,cs),
(670,740,o),
(648,746,o),
(601,746,cs),
(576,746,o),
(564,733,o),
(564,724,cs),
(564,715,o),
(569,710,o),
(580,710,c),
(611,714,l),
(630,714,o),
(643,707,o),
(649,696,cs),
(652,691,o),
(656,682,o),
(661,669,cs),
(666,656,o),
(668,630,o),
(668,589,cs),
(668,491,ls),
(668,472,o),
(650,463,o),
(614,463,cs),
(318,463,ls),
(298,463,o),
(283,466,o),
(273,472,cs),
(266,476,o),
(264,482,o),
(264,491,cs),
(264,589,ls),
(264,617,o),
(263,660,o),
(283,696,cs),
(289,707,o),
(302,714,o),
(321,714,c),
(352,710,l),
(363,710,o),
(368,715,o),
(368,724,cs),
(368,739,o),
(350,746,o),
(319,746,cs),
(304,746,o),
(285,744,o),
(264,741,cs),
(254,740,o),
(235,739,o),
(210,739,cs),
(201,739,o),
(191,739,o),
(179,740,cs),
(158,740,o),
(136,746,o),
(90,746,cs),
(77,746,o),
(67,744,o),
(61,739,cs),
(54,733,o),
(52,729,o),
(52,724,cs),
(52,715,o),
(57,710,o),
(68,710,c),
(99,714,l),
(118,714,o),
(131,707,o),
(137,696,cs),
(140,691,o),
(144,682,o),
(149,669,cs),
(154,656,o),
(156,630,o),
(156,589,cs),
(156,157,ls),
(156,129,o),
(159,87,o),
(137,50,cs),
(131,39,o),
(118,32,o),
(99,32,c),
(68,36,l),
(57,36,o),
(52,31,o),
(52,22,cs),
(52,17,o),
(54,13,o),
(61,7,cs),
(67,2,o),
(79,0,o),
(97,0,cs),
(113,0,o),
(132,1,o),
(156,5,cs),
(166,6,o),
(185,7,o),
(210,7,cs),
(220,7,o),
(230,7,o),
(241,6,cs),
(262,6,o),
(284,0,o),
(331,0,cs)
);
}
);
width = 932;
}
);
note = H;
unicode = 72;
},
{
glyphname = I;
kernLeft = H;
kernRight = H;
lastChange = "2025-07-10 17:50:37 +0000";
layers = (
{
layerId = m01;
shapes = (
{
closed = 1;
nodes = (
(280,-5,o),
(299,-7,o),
(319,-7,cs),
(348,-7,o),
(377,-1,o),
(377,23,cs),
(377,34,o),
(370,44,o),
(359,44,c),
(327,41,l),
(304,41,o),
(292,48,o),
(281,73,cs),
(274,86,o),
(272,112,o),
(272,154,cs),
(272,608,ls),
(272,650,o),
(276,680,o),
(283,695,cs),
(290,712,o),
(305,722,o),
(327,722,c),
(359,719,ls),
(371,719,o),
(377,726,o),
(377,741,cs),
(377,747,o),
(374,753,o),
(368,759,cs),
(359,766,o),
(348,770,o),
(326,770,cs),
(312,770,o),
(294,768,o),
(269,766,cs),
(243,764,ls),
(235,763,o),
(225,762,o),
(215,762,cs),
(205,762,o),
(195,763,o),
(187,764,cs),
(161,766,ls),
(147,767,o),
(126,771,o),
(106,771,cs),
(78,771,o),
(53,764,o),
(53,737,cs),
(53,727,o),
(58,719,o),
(71,719,c),
(103,722,l),
(126,722,o),
(138,716,o),
(149,690,cs),
(154,678,o),
(157,650,o),
(157,608,cs),
(157,154,ls),
(157,112,o),
(154,84,o),
(147,67,cs),
(140,50,o),
(125,41,o),
(103,41,c),
(71,44,l),
(60,44,o),
(52,34,o),
(52,23,cs),
(52,17,o),
(55,10,o),
(62,4,cs),
(71,-3,o),
(83,-7,o),
(108,-7,cs),
(125,-7,o),
(149,-5,o),
(182,-1,cs),
(190,0,o),
(199,0,o),
(208,0,cs),
(226,0,o),
(246,-1,o),
(269,-3,cs)
);
}
);
userData = {
assembly = "NPUSHB[ ]	/* 32 values pushed */
0 0 0 62 0 62 55 54 53 52 47 46 43 42 38 37 32 31 30 29 22 21 20 19 14 13 9 7 2 1 14 8
CALL[ ]	/* CallFunction */
NPUSHB[ ]	/* 36 values pushed */
11 10 6 3 5 5 7 1 0 39 9 8 2 7 7 12 34 13 12 4 3 4 0 0 1 1 0 39 2 1 1 1 13 1 35 4
PUSHB[ ]	/* 1 value pushed */
59
CALL[ ]	/* CallFunction */";
};
width = 429;
},
{
associatedMasterId = "792D4558-F830-44B3-9794-52A6ACE12B02";
layerId = "6B1252CF-E426-46DC-A9C6-391C8BFD5F20";
shapes = (
{
closed = 1;
nodes = (
(714,0,o),
(751,30,o),
(751,46,qs),
(751,73,o),
(718,73,q),
(654,66,l),
(597,66,o),
(576,102,qs),
(566,120,o),
(538,197,o),
(538,321,qs),
(538,1207,ls),
(538,1249,o),
(545,1371,o),
(576,1426,qs),
(597,1462,o),
(654,1462,q),
(718,1455,l),
(751,1455,o),
(751,1482,qs),
(751,1498,o),
(714,1528,o),
(604,1528,o),
(538,1518,qs),
(505,1513,o),
(427,1513,qs),
(398,1513,o),
(362,1515,qs),
(345,1516,o),
(313,1519,o),
(238,1528,o),
(180,1528,qs),
(140,1528,o),
(103,1498,o),
(103,1482,qs),
(103,1455,o),
(136,1455,q),
(200,1462,l),
(257,1462,o),
(278,1426,qs),
(288,1408,o),
(316,1331,o),
(316,1207,qs),
(316,321,ls),
(316,279,o),
(309,157,o),
(278,102,qs),
(257,66,o),
(200,66,q),
(136,73,l),
(103,73,o),
(103,46,qs),
(103,30,o),
(122,15,qs),
(157,-14,o),
(316,10,qs),
(349,15,o),
(427,15,qs),
(456,15,o),
(492,13,qs),
(509,12,o),
(541,9,o),
(616,0,o),
(674,0,qs)
);
}
);
width = 854;
},
{
layerId = "792D4558-F830-44B3-9794-52A6ACE12B02";
shapes = (
{
closed = 1;
nodes = (
(344,0,o),
(354,3,o),
(360,8,cs),
(367,13,o),
(369,17,o),
(369,22,cs),
(369,31,o),
(364,36,o),
(353,36,c),
(321,32,l),
(303,32,o),
(291,37,o),
(283,50,cs),
(279,57,o),
(276,66,o),
(272,78,cs),
(267,90,o),
(265,116,o),
(265,157,cs),
(265,589,ls),
(265,617,o),
(263,660,o),
(283,696,cs),
(291,709,o),
(303,714,o),
(321,714,c),
(353,710,l),
(364,710,o),
(369,715,o),
(369,724,cs),
(369,739,o),
(349,746,o),
(319,746,cs),
(303,746,o),
(285,744,o),
(265,741,cs),
(255,740,o),
(236,739,o),
(210,739,cs),
(201,739,o),
(191,739,o),
(179,740,cs),
(169,740,o),
(154,742,o),
(137,744,cs),
(125,745,o),
(109,746,o),
(90,746,cs),
(77,746,o),
(67,744,o),
(61,739,cs),
(54,733,o),
(52,729,o),
(52,724,cs),
(52,715,o),
(57,710,o),
(68,710,c),
(100,714,l),
(118,714,o),
(130,709,o),
(138,696,cs),
(141,691,o),
(145,682,o),
(150,669,cs),
(154,656,o),
(156,630,o),
(156,589,cs),
(156,157,ls),
(156,129,o),
(158,86,o),
(138,50,cs),
(130,37,o),
(118,32,o),
(100,32,c),
(68,36,l),
(57,36,o),
(52,31,o),
(52,22,cs),
(52,17,o),
(56,12,o),
(62,7,cs),
(68,2,o),
(80,0,o),
(98,0,cs),
(113,0,o),
(133,1,o),
(156,5,cs),
(166,6,o),
(185,7,o),
(210,7,cs),
(220,7,o),
(230,7,o),
(242,6,cs),
(252,6,o),
(267,4,o),
(285,2,cs),
(296,1,o),
(312,0,o),
(331,0,cs)
);
}
);
width = 421;
}
);
metricLeft = H;
metricRight = H;
note = I;
unicode = 73;
},
{
glyphname = J;
kernLeft = J;
kernRight = J;
lastChange = "2025-07-10 17:47:52 +0000";
layers = (
{
layerId = m01;
shapes = (
{
closed = 1;
nodes = (
(321,-11,o),
(387,10,o),
(440,50,cs),
(501,96,o),
(532,159,o),
(532,239,cs),
(532,608,ls),
(532,650,o),
(535,678,o),
(542,695,cs),
(549,712,o),
(564,722,o),
(586,722,c),
(618,719,ls),
(631,719,o),
(637,726,o),
(637,741,cs),
(637,747,o),
(634,753,o),
(627,759,cs),
(617,767,o),
(605,770,o),
(585,770,cs),
(570,770,o),
(552,768,o),
(528,766,cs),
(502,764,ls),
(495,763,o),
(485,762,o),
(475,762,cs),
(464,762,o),
(453,763,o),
(444,764,cs),
(383,769,ls),
(372,770,o),
(360,770,o),
(345,770,cs),
(330,770,o),
(319,766,o),
(312,759,cs),
(305,754,o),
(302,746,o),
(302,738,cs),
(302,728,o),
(308,719,o),
(320,719,cs),
(357,722,ls),
(381,722,o),
(395,715,o),
(408,690,cs),
(414,677,o),
(417,650,o),
(417,608,cs),
(417,256,ls),
(417,188,o),
(403,138,o),
(373,103,cs),
(347,72,o),
(310,57,o),
(269,57,cs),
(251,57,o),
(232,60,o),
(214,66,cs),
(156,87,o),
(112,154,o),
(84,265,cs),
(79,284,o),
(71,294,o),
(60,294,cs),
(44,294,o),
(36,274,o),
(36,235,cs),
(36,52,l),
(54,40,o),
(73,30,o),
(92,22,cs),
(145,0,o),
(196,-11,o),
(245,-11,cs)
);
}
);
userData = {
assembly = "NPUSHB[ ]	/* 26 values pushed */
0 0 0 53 0 53 48 47 44 43 41 39 34 33 32 31 23 22 18 16 11 9 2 1 11 8
CALL[ ]	/* CallFunction */
MPPEM[ ]	/* MeasurePixelPerEm */
PUSHB[ ]	/* 1 value pushed */
13
LT[ ]	/* LessThan */
IF[ ]	/* If */
NPUSHB[ ]	/* 46 values pushed */
14 1 1 3 1 33 0 2 0 3 0 2 3 53 10 9 5 4 4 0 0 6 1 0 39 8 7 2 6 6 12 34 0 3 3 1 1 0 39 0 1 1 13 1 35 6
ELSE[ ]	/* Else */
MPPEM[ ]	/* MeasurePixelPerEm */
PUSHB[ ]	/* 1 value pushed */
17
LT[ ]	/* LessThan */
IF[ ]	/* If */
NPUSHB[ ]	/* 46 values pushed */
14 1 1 3 1 33 0 2 0 3 0 2 3 53 10 9 5 4 4 0 0 6 1 0 39 8 7 2 6 6 12 34 0 3 3 1 1 0 39 0 1 1 16 1 35 6
ELSE[ ]	/* Else */
MPPEM[ ]	/* MeasurePixelPerEm */
PUSHB[ ]	/* 1 value pushed */
21
LT[ ]	/* LessThan */
IF[ ]	/* If */
NPUSHB[ ]	/* 46 values pushed */
14 1 1 3 1 33 0 2 0 3 0 2 3 53 10 9 5 4 4 0 0 6 1 0 39 8 7 2 6 6 12 34 0 3 3 1 1 0 39 0 1 1 13 1 35 6
ELSE[ ]	/* Else */
NPUSHB[ ]	/* 46 values pushed */
14 1 1 3 1 33 0 2 0 3 0 2 3 53 10 9 5 4 4 0 0 6 1 0 39 8 7 2 6 6 12 34 0 3 3 1 1 0 39 0 1 1 16 1 35 6
EIF[ ]	/* EndIf */
EIF[ ]	/* EndIf */
EIF[ ]	/* EndIf */
PUSHB[ ]	/* 1 value pushed */
59
CALL[ ]	/* CallFunction */";
};
width = 653;
},
{
associatedMasterId = "792D4558-F830-44B3-9794-52A6ACE12B02";
layerId = "6B1252CF-E426-46DC-A9C6-391C8BFD5F20";
shapes = (
{
closed = 1;
nodes = (
(801,-23,o),
(964,100,qs),
(1148,237,o),
(1148,477,qs),
(1148,1207,ls),
(1148,1249,o),
(1155,1371,o),
(1186,1426,qs),
(1207,1462,o),
(1264,1462,q),
(1328,1455,l),
(1361,1455,o),
(1361,1482,qs),
(1361,1498,o),
(1324,1528,o),
(1214,1528,o),
(1148,1518,qs),
(1115,1513,o),
(1037,1513,qs),
(1008,1513,o),
(972,1515,qs),
(955,1516,o),
(923,1519,o),
(848,1528,o),
(790,1528,qs),
(750,1528,o),
(713,1498,o),
(713,1482,qs),
(713,1455,o),
(746,1455,q),
(810,1462,l),
(867,1462,o),
(888,1426,qs),
(898,1408,o),
(926,1331,o),
(926,1207,qs),
(926,482,ls),
(926,371,o),
(902,294,qs),
(832,75,o),
(622,75,qs),
(491,75,o),
(396,169,qs),
(344,221,o),
(254,396,o),
(214,561,o),
(202,585,o),
(181,585,o),
(175,580,qs),
(157,565,o),
(157,470,qs),
(157,103,l),
(210,68,o),
(267,44,qs),
(426,-23,o),
(573,-23,qs)
);
}
);
width = 1363;
},
{
layerId = "792D4558-F830-44B3-9794-52A6ACE12B02";
shapes = (
{
closed = 1;
nodes = (
(324,-11,o),
(388,9,o),
(441,49,cs),
(500,93,o),
(531,155,o),
(531,233,cs),
(531,589,ls),
(531,617,o),
(529,660,o),
(549,696,cs),
(555,707,o),
(568,714,o),
(587,714,c),
(618,710,l),
(629,710,o),
(635,715,o),
(635,724,cs),
(635,739,o),
(616,746,o),
(585,746,cs),
(570,746,o),
(552,744,o),
(531,741,cs),
(520,740,o),
(501,739,o),
(476,739,cs),
(467,739,o),
(457,739,o),
(445,740,cs),
(435,740,o),
(420,742,o),
(403,744,cs),
(391,745,o),
(375,746,o),
(356,746,cs),
(343,746,o),
(333,744,o),
(327,739,cs),
(320,733,o),
(318,729,o),
(318,724,cs),
(318,715,o),
(323,710,o),
(334,710,c),
(366,714,l),
(384,714,o),
(396,709,o),
(404,696,cs),
(407,690,o),
(410,682,o),
(415,669,cs),
(420,656,o),
(422,630,o),
(422,589,cs),
(422,235,ls),
(422,199,o),
(418,169,o),
(410,144,cs),
(387,72,o),
(342,37,o),
(274,37,cs),
(231,37,o),
(195,52,o),
(163,83,cs),
(130,116,o),
(97,180,o),
(84,234,cs),
(77,261,o),
(73,277,o),
(72,280,cs),
(70,284,o),
(67,286,o),
(64,286,cs),
(60,286,o),
(57,285,o),
(55,283,cs),
(49,278,o),
(47,260,o),
(47,229,cs),
(47,50,l),
(64,39,o),
(82,29,o),
(100,21,cs),
(151,0,o),
(202,-11,o),
(250,-11,cs)
);
}
);
width = 636;
}
);
note = J;
unicode = 74;
},
{
glyphname = K;
kernLeft = H;
kernRight = K;
lastChange = "2025-07-10 17:50:37 +0000";
layers = (
{
layerId = m01;
shapes = (
{
closed = 1;
nodes = (
(280,-5,o),
(300,-7,o),
(320,-7,cs),
(339,-7,o),
(358,-5,o),
(368,4,cs),
(374,9,o),
(377,16,o),
(377,23,cs),
(377,34,o),
(371,44,o),
(358,44,c),
(327,41,l),
(304,41,o),
(291,48,o),
(280,73,cs),
(275,84,o),
(272,112,o),
(272,154,cs),
(272,360,l),
(292,358,o),
(311,354,o),
(328,349,cs),
(383,331,o),
(430,284,o),
(469,205,cs),
(505,132,o),
(543,79,o),
(586,45,cs),
(631,10,o),
(688,-6,o),
(730,-6,cs),
(767,-6,o),
(794,6,o),
(794,26,cs),
(794,28,o),
(793,30,o),
(793,32,cs),
(790,48,o),
(784,55,o),
(774,55,c),
(751,50,l),
(734,50,o),
(715,61,o),
(693,83,cs),
(667,110,o),
(643,147,o),
(622,191,cs),
(586,262,o),
(546,314,o),
(499,348,cs),
(458,378,o),
(405,398,o),
(338,409,c),
(407,442,o),
(511,526,o),
(650,662,cs),
(690,701,o),
(720,721,o),
(737,721,cs),
(770,718,ls),
(773,718,o),
(776,720,o),
(781,724,cs),
(785,727,o),
(788,734,o),
(788,744,cs),
(788,761,o),
(773,769,o),
(743,769,c),
(667,762,l),
(559,769,l),
(532,769,o),
(518,761,o),
(518,744,cs),
(518,733,o),
(525,723,o),
(537,723,cs),
(568,722,ls),
(582,722,o),
(589,717,o),
(589,708,cs),
(589,694,o),
(568,667,o),
(525,626,cs),
(464,568,o),
(406,519,o),
(356,482,cs),
(327,461,o),
(300,447,o),
(272,438,c),
(272,608,ls),
(272,650,o),
(275,678,o),
(282,695,cs),
(289,712,o),
(304,722,o),
(327,722,c),
(358,719,ls),
(371,719,o),
(377,726,o),
(377,741,cs),
(377,747,o),
(374,753,o),
(368,759,c),
(357,767,o),
(346,770,o),
(326,770,cs),
(312,770,o),
(294,768,o),
(269,766,cs),
(260,765,o),
(252,765,o),
(243,764,cs),
(235,763,o),
(225,762,o),
(214,762,cs),
(204,762,o),
(194,763,o),
(187,764,cs),
(160,766,ls),
(146,767,o),
(125,770,o),
(105,770,cs),
(88,770,o),
(72,768,o),
(62,759,cs),
(55,753,o),
(52,746,o),
(52,739,cs),
(52,729,o),
(60,719,o),
(71,719,c),
(103,722,l),
(126,722,o),
(138,716,o),
(149,690,cs),
(154,678,o),
(157,650,o),
(157,608,cs),
(157,154,ls),
(157,112,o),
(154,84,o),
(147,67,cs),
(140,50,o),
(125,41,o),
(103,41,c),
(71,44,ls),
(58,44,o),
(52,36,o),
(52,21,cs),
(52,15,o),
(56,9,o),
(62,4,cs),
(71,-3,o),
(83,-7,o),
(106,-7,cs),
(122,-7,o),
(142,-6,o),
(169,-2,cs),
(183,-1,o),
(199,0,o),
(214,0,cs),
(230,0,o),
(248,-1,o),
(269,-3,cs)
);
}
);
userData = {
assembly = "NPUSHB[ ]	/* 50 values pushed */
0 0 0 117 0 117 105 104 98 97 96 95 85 84 83 82 79 78 77 75 72 69 58 57 56 55 50 49 46 44 40 39 34 33 32 31 24 23 22 21 16 15 13 11 9 7 2 1 23 8
CALL[ ]	/* CallFunction */
NPUSHB[ ]	/* 53 values pushed */
113 88 62 3 0 6 1 33 17 16 13 12 11 7 6 6 6 8 1 0 39 15 14 10 9 4 8 8 12 34 22 21 19 18 5 4 6 0 0 1 1 0 39 20 3 2 3 1 1 13 1 35 5
PUSHB[ ]	/* 1 value pushed */
59
CALL[ ]	/* CallFunction */";
};
width = 794;
},
{
associatedMasterId = "792D4558-F830-44B3-9794-52A6ACE12B02";
layerId = "6B1252CF-E426-46DC-A9C6-391C8BFD5F20";
shapes = (
{
closed = 1;
nodes = (
(703,0,o),
(740,30,o),
(740,46,qs),
(740,73,o),
(707,73,q),
(643,66,l),
(586,66,o),
(566,102,qs),
(555,120,o),
(527,197,o),
(527,321,qs),
(527,750,l),
(590,746,o),
(648,728,qs),
(829,672,o),
(955,412,qs),
(1062,181,o),
(1188,82,qs),
(1252,32,o),
(1401,-12,o),
(1603,-12,o),
(1603,35,qs),
(1603,43,o),
(1586,66,o),
(1547,54,qs),
(1536,50,o),
(1514,50,qs),
(1497,50,o),
(1467,70,qs),
(1360,141,o),
(1254,359,qs),
(1145,578,o),
(992,689,qs),
(858,787,o),
(652,821,q),
(762,870,o),
(1077,1130,o),
(1294,1336,qs),
(1420,1462,o),
(1473,1462,q),
(1537,1455,l),
(1570,1455,o),
(1570,1482,qs),
(1570,1498,o),
(1535,1528,o),
(1484,1528,q),
(1330,1514,l),
(1302,1514,o),
(1235,1522,qs),
(1190,1526,ls),
(1168,1528,o),
(1093,1528,o),
(1054,1498,o),
(1054,1482,qs),
(1054,1455,o),
(1087,1455,q),
(1151,1463,l),
(1198,1463,o),
(1198,1430,qs),
(1198,1386,o),
(1078,1266,qs),
(871,1067,o),
(712,954,qs),
(618,887,o),
(527,864,q),
(527,1207,ls),
(527,1249,o),
(534,1371,o),
(565,1426,qs),
(586,1462,o),
(643,1462,q),
(707,1455,l),
(740,1455,o),
(740,1482,qs),
(740,1498,o),
(703,1528,o),
(593,1528,o),
(527,1518,qs),
(494,1513,o),
(416,1513,qs),
(386,1513,o),
(352,1515,qs),
(334,1516,o),
(302,1519,o),
(227,1528,o),
(169,1528,qs),
(129,1528,o),
(92,1498,o),
(92,1482,qs),
(92,1455,o),
(125,1455,q),
(189,1462,l),
(246,1462,o),
(266,1426,qs),
(277,1408,o),
(305,1331,o),
(305,1207,qs),
(305,321,ls),
(305,279,o),
(298,157,o),
(267,102,qs),
(246,66,o),
(189,66,q),
(125,73,l),
(92,73,o),
(92,46,qs),
(92,30,o),
(110,15,qs),
(146,-14,o),
(305,10,qs),
(338,15,o),
(416,15,qs),
(446,15,o),
(480,13,qs),
(498,12,o),
(530,9,o),
(605,0,o),
(663,0,qs)
);
}
);
width = 1539;
},
{
layerId = "792D4558-F830-44B3-9794-52A6ACE12B02";
shapes = (
{
closed = 1;
nodes = (
(356,0,o),
(368,13,o),
(368,22,cs),
(368,31,o),
(363,36,o),
(352,36,c),
(321,32,l),
(302,32,o),
(289,39,o),
(283,50,cs),
(279,57,o),
(276,65,o),
(271,78,cs),
(266,91,o),
(264,116,o),
(264,157,cs),
(264,366,l),
(284,365,o),
(304,361,o),
(323,355,cs),
(382,337,o),
(432,286,o),
(473,201,cs),
(508,126,o),
(546,72,o),
(587,40,cs),
(628,8,o),
(689,-7,o),
(734,-7,cs),
(766,-7,o),
(790,1,o),
(790,17,cs),
(790,20,o),
(789,23,o),
(786,27,cs),
(783,30,o),
(775,30,o),
(762,26,cs),
(759,25,o),
(753,24,o),
(746,24,cs),
(741,24,o),
(732,28,o),
(723,34,cs),
(689,57,o),
(654,104,o),
(619,175,cs),
(584,246,o),
(541,300,o),
(491,336,cs),
(448,368,o),
(392,390,o),
(325,401,c),
(397,433,o),
(498,519,o),
(639,652,cs),
(680,694,o),
(709,714,o),
(726,714,c),
(757,710,l),
(768,710,o),
(774,715,o),
(774,724,cs),
(774,729,o),
(771,734,o),
(766,739,cs),
(759,744,o),
(749,746,o),
(732,746,c),
(656,739,ls),
(647,739,o),
(633,740,o),
(610,743,cs),
(588,745,ls),
(558,748,o),
(522,744,o),
(522,724,cs),
(522,715,o),
(527,710,o),
(538,710,c),
(569,714,l),
(584,714,o),
(592,709,o),
(592,698,cs),
(592,684,o),
(572,657,o),
(533,618,cs),
(465,553,o),
(407,503,o),
(355,466,cs),
(324,444,o),
(293,429,o),
(264,422,c),
(264,589,ls),
(264,617,o),
(263,660,o),
(283,696,cs),
(289,707,o),
(302,714,o),
(321,714,c),
(352,710,l),
(363,710,o),
(368,715,o),
(368,724,cs),
(368,739,o),
(350,746,o),
(319,746,cs),
(304,746,o),
(285,744,o),
(264,741,cs),
(254,740,o),
(235,739,o),
(210,739,cs),
(200,739,o),
(190,739,o),
(179,740,cs),
(158,740,o),
(136,746,o),
(90,746,cs),
(77,746,o),
(67,744,o),
(61,739,cs),
(54,733,o),
(52,729,o),
(52,724,cs),
(52,715,o),
(57,710,o),
(68,710,c),
(99,714,l),
(118,714,o),
(131,707,o),
(137,696,cs),
(140,691,o),
(144,682,o),
(149,669,cs),
(154,656,o),
(156,630,o),
(156,589,cs),
(156,157,ls),
(156,129,o),
(159,87,o),
(137,50,cs),
(131,39,o),
(118,32,o),
(99,32,c),
(68,36,l),
(57,36,o),
(52,31,o),
(52,22,cs),
(52,17,o),
(54,13,o),
(61,7,cs),
(67,2,o),
(79,0,o),
(97,0,cs),
(113,0,o),
(132,1,o),
(156,5,cs),
(166,6,o),
(185,7,o),
(210,7,cs),
(220,7,o),
(230,7,o),
(241,6,cs),
(262,6,o),
(284,0,o),
(331,0,cs)
);
}
);
width = 758;
}
);
metricLeft = H;
note = K;
unicode = 75;
},
{
glyphname = L;
kernLeft = H;
kernRight = L;
lastChange = "2025-07-10 18:06:51 +0000";
layers = (
{
layerId = m01;
shapes = (
{
closed = 1;
nodes = (
(182,-2,ls),
(203,-1,o),
(225,0,o),
(248,0,cs),
(628,0,l),
(627,10,o),
(626,25,o),
(626,42,cs),
(626,59,o),
(631,89,o),
(641,134,cs),
(645,153,o),
(649,165,o),
(652,171,cs),
(655,178,o),
(656,182,o),
(656,185,cs),
(656,194,o),
(652,198,o),
(644,198,cs),
(638,198,o),
(630,193,o),
(619,182,c),
(578,132,o),
(549,104,o),
(506,81,cs),
(485,69,o),
(455,63,o),
(417,63,cs),
(317,63,ls),
(287,63,o),
(272,85,o),
(272,129,cs),
(272,608,ls),
(272,651,o),
(275,679,o),
(282,695,cs),
(290,713,o),
(305,722,o),
(327,722,c),
(359,719,l),
(370,719,o),
(378,728,o),
(378,739,cs),
(378,746,o),
(375,753,o),
(368,759,cs),
(359,766,o),
(348,770,o),
(326,770,cs),
(312,770,o),
(294,768,o),
(269,766,cs),
(243,764,ls),
(235,763,o),
(225,762,o),
(215,762,cs),
(204,762,o),
(194,763,o),
(187,764,cs),
(161,766,ls),
(146,767,o),
(125,770,o),
(105,770,cs),
(88,770,o),
(72,768,o),
(62,759,cs),
(56,753,o),
(53,745,o),
(53,737,cs),
(53,727,o),
(58,719,o),
(71,719,c),
(103,722,l),
(126,722,o),
(138,716,o),
(149,690,cs),
(154,678,o),
(157,650,o),
(157,608,cs),
(157,161,ls),
(157,116,o),
(154,86,o),
(148,70,cs),
(140,51,o),
(125,41,o),
(103,41,c),
(71,44,ls),
(61,44,o),
(52,35,o),
(52,23,cs),
(52,17,o),
(55,10,o),
(62,3,cs),
(70,-4,o),
(81,-7,o),
(105,-7,cs),
(113,-7,o),
(123,-7,o),
(134,-6,cs)
);
}
);
userData = {
assembly = "NPUSHB[ ]	/* 32 values pushed */
1 0 63 60 55 54 53 52 47 46 43 42 38 37 32 31 30 29 22 21 20 19 14 13 10 8 0 67 1 67 14 8
CALL[ ]	/* CallFunction */
NPUSHB[ ]	/* 55 values pushed */
13 1 0 5 12 5 0 12 53 11 10 6 3 5 5 7 1 0 39 9 8 2 7 7 12 34 0 12 12 1 1 2 39 2 1 1 1 13 34 4 1 3 3 1 1 0 39 2 1 1 1 13 1 35 7
PUSHB[ ]	/* 1 value pushed */
59
CALL[ ]	/* CallFunction */";
};
width = 670;
},
{
associatedMasterId = "792D4558-F830-44B3-9794-52A6ACE12B02";
layerId = "6B1252CF-E426-46DC-A9C6-391C8BFD5F20";
shapes = (
{
closed = 1;
nodes = (
(330,0,o),
(475,0,qs),
(1229,0,l),
(1264,147,o),
(1296,221,qs),
(1332,299,ls),
(1353,346,o),
(1353,369,qs),
(1353,391,o),
(1318,391,o),
(1288,359,qs),
(1231,299,ls),
(1201,269,o),
(1161,237,qs),
(1121,206,ls),
(1037,142,o),
(957,114,qs),
(906,97,o),
(806,97,qs),
(616,97,ls),
(519,97,o),
(519,236,qs),
(519,1207,ls),
(519,1249,o),
(526,1371,o),
(557,1426,qs),
(578,1462,o),
(635,1462,q),
(699,1455,l),
(732,1455,o),
(732,1482,qs),
(732,1498,o),
(695,1528,o),
(585,1528,o),
(519,1518,qs),
(486,1513,o),
(408,1513,qs),
(378,1513,o),
(344,1515,qs),
(326,1516,o),
(294,1519,o),
(219,1528,o),
(161,1528,qs),
(121,1528,o),
(84,1498,o),
(84,1482,qs),
(84,1455,o),
(117,1455,q),
(181,1462,l),
(238,1462,o),
(258,1426,qs),
(269,1408,o),
(297,1331,o),
(297,1207,qs),
(297,321,ls),
(297,153,o),
(259,86,qs),
(238,51,o),
(181,51,q),
(117,58,l),
(84,58,o),
(84,31,qs),
(84,15,o),
(121,-15,o),
(231,-15,o),
(297,-5,qs)
);
}
);
width = 1367;
},
{
layerId = "792D4558-F830-44B3-9794-52A6ACE12B02";
shapes = (
{
closed = 1;
nodes = (
(166,-1,o),
(196,0,o),
(243,0,cs),
(611,0,l),
(622,47,o),
(633,83,o),
(644,108,cs),
(661,146,ls),
(668,161,o),
(672,173,o),
(672,180,cs),
(672,187,o),
(669,191,o),
(664,191,cs),
(658,191,o),
(650,186,o),
(640,175,cs),
(612,146,ls),
(602,136,o),
(591,126,o),
(578,116,cs),
(558,101,ls),
(531,80,o),
(505,65,o),
(478,56,cs),
(461,50,o),
(437,47,o),
(405,47,cs),
(312,47,ls),
(280,47,o),
(264,70,o),
(264,115,cs),
(264,589,ls),
(264,617,o),
(263,660,o),
(283,696,cs),
(289,707,o),
(302,714,o),
(321,714,c),
(352,710,l),
(363,710,o),
(368,715,o),
(368,724,cs),
(368,739,o),
(350,746,o),
(319,746,cs),
(304,746,o),
(285,744,o),
(264,741,cs),
(254,740,o),
(235,739,o),
(210,739,cs),
(201,739,o),
(191,739,o),
(179,740,cs),
(169,740,o),
(154,742,o),
(137,744,cs),
(125,745,o),
(109,746,o),
(90,746,cs),
(77,746,o),
(67,744,o),
(61,739,cs),
(54,733,o),
(52,729,o),
(52,724,cs),
(52,715,o),
(57,710,o),
(68,710,c),
(99,714,l),
(118,714,o),
(131,707,o),
(137,696,cs),
(140,691,o),
(144,682,o),
(149,669,cs),
(154,656,o),
(156,630,o),
(156,589,cs),
(156,157,ls),
(156,102,o),
(149,63,o),
(137,42,cs),
(130,30,o),
(118,25,o),
(99,25,c),
(68,28,ls),
(57,28,o),
(52,24,o),
(52,15,cs),
(52,-1,o),
(71,-7,o),
(101,-7,cs),
(117,-7,o),
(135,-5,o),
(156,-2,cs)
);
}
);
width = 678;
}
);
metricLeft = H;
note = L;
unicode = 76;
},
{
glyphname = M;
kernLeft = N;
kernRight = N;
lastChange = "2025-07-10 17:51:30 +0000";
layers = (
{
layerId = m01;
shapes = (
{
closed = 1;
nodes = (
(271,-7,l),
(286,-7,o),
(298,-4,o),
(307,3,cs),
(314,9,o),
(317,16,o),
(317,23,cs),
(317,34,o),
(310,43,o),
(298,43,cs),
(267,41,ls),
(243,41,o),
(231,47,o),
(220,72,cs),
(214,84,o),
(211,112,o),
(211,154,cs),
(211,544,l),
(235,508,o),
(298,405,o),
(402,232,cs),
(456,147,ls),
(470,125,o),
(480,111,o),
(484,106,cs),
(487,101,o),
(493,97,o),
(498,97,cs),
(508,97,o),
(518,107,o),
(527,125,cs),
(785,617,l),
(780,154,ls),
(780,112,o),
(777,84,o),
(770,67,cs),
(763,50,o),
(748,41,o),
(726,41,cs),
(694,43,ls),
(681,43,o),
(675,36,o),
(675,21,cs),
(675,15,o),
(678,9,o),
(685,3,cs),
(694,-4,o),
(707,-7,o),
(729,-7,cs),
(743,-7,o),
(761,-6,o),
(784,-4,cs),
(810,-1,ls),
(819,0,o),
(827,0,o),
(837,0,cs),
(848,0,o),
(856,0,o),
(865,-1,cs),
(892,-4,ls),
(901,-5,o),
(909,-5,o),
(920,-6,cs),
(929,-7,o),
(937,-7,o),
(945,-7,cs),
(968,-7,o),
(984,-4,o),
(991,3,cs),
(997,9,o),
(1001,18,o),
(1001,25,cs),
(1001,35,o),
(995,43,o),
(982,43,cs),
(950,41,ls),
(927,41,o),
(914,47,o),
(904,72,cs),
(898,85,o),
(896,111,o),
(896,154,cs),
(896,607,ls),
(896,653,o),
(899,684,o),
(905,699,cs),
(912,716,o),
(926,723,o),
(947,723,c),
(979,719,l),
(988,719,o),
(997,728,o),
(997,740,cs),
(997,746,o),
(994,754,o),
(987,760,cs),
(977,768,o),
(964,771,o),
(942,771,cs),
(923,771,o),
(898,769,o),
(861,766,cs),
(838,764,o),
(813,763,o),
(784,763,c),
(527,264,l),
(209,762,l),
(180,762,o),
(153,763,o),
(126,766,cs),
(111,767,o),
(90,769,o),
(73,769,cs),
(56,769,o),
(42,767,o),
(36,760,cs),
(32,755,o),
(30,749,o),
(30,743,cs),
(30,728,o),
(91,712,o),
(116,676,cs),
(132,651,o),
(147,628,o),
(147,568,cs),
(146,154,ls),
(146,109,o),
(144,81,o),
(139,67,cs),
(132,50,o),
(117,41,o),
(96,41,cs),
(65,43,ls),
(54,43,o),
(46,34,o),
(46,23,cs),
(46,16,o),
(49,9,o),
(56,3,cs),
(65,-4,o),
(75,-7,o),
(95,-7,cs),
(106,-7,o),
(121,-6,o),
(140,-4,cs),
(160,-1,ls),
(167,0,o),
(174,0,o),
(181,0,cs),
(271,-7,l)
);
}
);
userData = {
assembly = "NPUSHB[ ]	/* 48 values pushed */
0 0 0 106 0 106 101 100 99 98 89 87 81 80 79 78 73 72 69 67 64 63 57 56 55 54 47 46 45 44 39 38 36 35 33 32 30 28 14 13 12 11 6 5 2 1 22 8
CALL[ ]	/* CallFunction */
NPUSHB[ ]	/* 59 values pushed */
94 85 34 3 17 8 1 33 0 17 8 2 8 17 2 53 9 1 8 8 4 1 0 39 7 6 5 3 4 4 12 34 19 18 16 15 11 10 3 7 2 2 0 1 2 39 21 20 14 13 12 1 6 0 0 13 0 35 6
PUSHB[ ]	/* 1 value pushed */
59
CALL[ ]	/* CallFunction */";
};
width = 1053;
},
{
associatedMasterId = "792D4558-F830-44B3-9794-52A6ACE12B02";
layerId = "6B1252CF-E426-46DC-A9C6-391C8BFD5F20";
shapes = (
{
closed = 1;
nodes = (
(593,0,o),
(630,30,o),
(630,46,qs),
(630,73,o),
(597,73,q),
(533,66,l),
(476,66,o),
(456,102,qs),
(445,120,o),
(417,197,o),
(417,321,qs),
(417,1064,l),
(938,268,ls),
(963,229,o),
(987,196,o),
(1001,196,qs),
(1029,196,o),
(1057,249,qs),
(1570,1242,l),
(1570,321,ls),
(1570,279,o),
(1563,157,o),
(1532,102,qs),
(1511,66,o),
(1454,66,q),
(1390,73,l),
(1357,73,o),
(1357,46,qs),
(1357,30,o),
(1376,15,qs),
(1411,-14,o),
(1570,10,qs),
(1603,15,o),
(1681,15,qs),
(1710,15,o),
(1746,13,qs),
(1763,12,o),
(1795,9,o),
(1870,0,o),
(1928,0,qs),
(1968,0,o),
(2005,30,o),
(2005,46,qs),
(2005,73,o),
(1972,73,q),
(1908,66,l),
(1851,66,o),
(1830,102,qs),
(1820,120,o),
(1792,197,o),
(1792,321,qs),
(1792,1203,ls),
(1792,1248,o),
(1801,1371,o),
(1830,1426,qs),
(1850,1462,o),
(1908,1462,q),
(1972,1454,l),
(2005,1454,o),
(2005,1482,qs),
(2005,1528,o),
(1916,1528,qs),
(1863,1528,o),
(1778,1518,qs),
(1727,1512,o),
(1591,1512,q),
(1070,509,l),
(423,1517,l),
(113,1528,ls),
(60,1528,o),
(60,1503,qs),
(60,1493,o),
(72,1479,o),
(95,1469,qs),
(171,1436,o),
(238,1339,qs),
(306,1244,o),
(306,1143,qs),
(305,321,ls),
(305,279,o),
(298,157,o),
(267,102,qs),
(246,66,o),
(189,66,q),
(125,73,l),
(92,73,o),
(92,46,qs),
(92,-18,o),
(294,10,qs),
(334,15,o),
(361,15,q),
(542,0,l)
);
}
);
width = 2048;
},
{
layerId = "792D4558-F830-44B3-9794-52A6ACE12B02";
shapes = (
{
closed = 1;
nodes = (
(272,0,l),
(289,0,o),
(300,3,o),
(306,8,cs),
(313,13,o),
(315,17,o),
(315,22,cs),
(315,31,o),
(310,36,o),
(299,36,c),
(267,32,l),
(248,32,o),
(236,38,o),
(230,50,cs),
(226,56,o),
(222,66,o),
(218,78,cs),
(213,90,o),
(211,116,o),
(211,157,cs),
(211,520,l),
(465,131,ls),
(473,118,o),
(479,109,o),
(483,104,cs),
(487,99,o),
(491,96,o),
(496,96,cs),
(505,96,o),
(514,105,o),
(523,122,cs),
(774,606,l),
(774,157,ls),
(774,129,o),
(775,86,o),
(755,50,cs),
(749,39,o),
(736,32,o),
(717,32,c),
(686,36,l),
(675,36,o),
(670,31,o),
(670,22,cs),
(670,17,o),
(672,13,o),
(679,7,cs),
(685,2,o),
(697,0,o),
(715,0,cs),
(731,0,o),
(750,1,o),
(774,5,cs),
(784,6,o),
(803,7,o),
(828,7,cs),
(837,7,o),
(847,7,o),
(860,6,cs),
(878,6,o),
(902,0,o),
(948,0,cs),
(961,0,o),
(971,3,o),
(977,8,cs),
(984,13,o),
(986,17,o),
(986,22,cs),
(986,31,o),
(981,36,o),
(970,36,c),
(939,32,l),
(920,32,o),
(907,39,o),
(901,50,cs),
(897,57,o),
(894,65,o),
(889,78,cs),
(884,91,o),
(882,116,o),
(882,157,cs),
(882,587,ls),
(882,616,o),
(881,660,o),
(901,696,cs),
(907,708,o),
(920,714,o),
(939,714,c),
(970,710,l),
(981,710,o),
(986,715,o),
(986,724,cs),
(986,739,o),
(972,746,o),
(943,746,cs),
(926,746,o),
(902,744,o),
(875,741,cs),
(858,739,o),
(828,738,o),
(784,738,c),
(529,249,l),
(214,741,l),
(62,746,ls),
(45,746,o),
(36,742,o),
(36,734,cs),
(36,731,o),
(38,727,o),
(39,726,cs),
(41,723,o),
(46,720,o),
(53,717,cs),
(78,706,o),
(101,685,o),
(123,654,cs),
(145,623,o),
(156,591,o),
(156,558,cs),
(156,157,ls),
(156,129,o),
(159,87,o),
(137,50,cs),
(131,39,o),
(118,32,o),
(99,32,c),
(68,36,l),
(57,36,o),
(52,31,o),
(52,22,cs),
(52,8,o),
(68,1,o),
(99,1,cs),
(113,1,o),
(131,2,o),
(151,5,cs),
(163,6,o),
(174,7,o),
(183,7,cs),
(272,0,l)
);
}
);
width = 1038;
}
);
metricLeft = N;
metricRight = H;
note = M;
unicode = 77;
},
{
glyphname = N;
kernLeft = N;
kernRight = N;
lastChange = "2025-07-10 17:51:39 +0000";
layers = (
{
background = {
guides = (
{
pos = (450,771);
},
{
pos = (450,771);
}
);
shapes = (
{
closed = 1;
nodes = (
(297,-7,o),
(305,-7,o),
(312,-7,cs),
(335,-7,o),
(351,-4,o),
(359,3,cs),
(365,9,o),
(368,17,o),
(368,24,cs),
(368,34,o),
(362,43,o),
(349,43,cs),
(318,41,ls),
(295,41,o),
(282,47,o),
(271,72,cs),
(266,83,o),
(263,111,o),
(263,154,cs),
(263,374,ls),
(263,391,o),
(278,405,o),
(315,405,cs),
(615,405,ls),
(651,405,o),
(667,391,o),
(667,374,cs),
(667,154,ls),
(667,112,o),
(664,84,o),
(657,67,cs),
(649,50,o),
(634,41,o),
(612,41,cs),
(580,43,ls),
(570,43,o),
(562,34,o),
(562,22,cs),
(562,16,o),
(565,9,o),
(571,3,c),
(580,-4,o),
(593,-7,o),
(615,-7,cs),
(629,-7,o),
(647,-6,o),
(670,-4,cs),
(696,-1,ls),
(705,0,o),
(714,0,o),
(725,0,cs),
(735,0,o),
(744,0,o),
(753,-1,cs),
(779,-4,ls),
(788,-5,o),
(796,-5,o),
(806,-6,cs),
(815,-7,o),
(823,-7,o),
(831,-7,cs),
(854,-7,o),
(870,-4,o),
(878,3,cs),
(884,9,o),
(887,16,o),
(887,23,cs),
(887,34,o),
(879,43,o),
(868,43,cs),
(837,41,ls),
(814,41,o),
(801,46,o),
(790,72,cs),
(785,84,o),
(782,112,o),
(782,154,cs),
(782,608,ls),
(782,650,o),
(785,678,o),
(792,695,cs),
(800,713,o),
(815,722,o),
(837,722,c),
(868,719,l),
(879,719,o),
(887,728,o),
(887,739,cs),
(887,746,o),
(884,753,o),
(878,759,c),
(867,766,o),
(855,770,o),
(834,770,cs),
(820,770,o),
(803,768,o),
(779,766,cs),
(753,764,ls),
(745,763,o),
(735,762,o),
(725,762,cs),
(714,762,o),
(704,763,o),
(696,764,cs),
(670,766,ls),
(656,767,o),
(634,771,o),
(614,771,cs),
(587,771,o),
(562,764,o),
(562,738,cs),
(562,728,o),
(568,719,o),
(580,719,cs),
(601,721,o),
(612,722,o),
(612,722,c),
(635,722,o),
(648,716,o),
(659,690,cs),
(664,678,o),
(667,650,o),
(667,608,cs),
(667,500,ls),
(667,483,o),
(650,475,o),
(615,475,cs),
(315,475,ls),
(280,475,o),
(263,483,o),
(263,500,cs),
(263,608,ls),
(263,651,o),
(266,679,o),
(273,695,cs),
(280,712,o),
(295,722,o),
(318,722,c),
(349,719,ls),
(362,719,o),
(368,726,o),
(368,741,cs),
(368,747,o),
(365,753,o),
(359,759,c),
(348,767,o),
(337,770,o),
(317,770,cs),
(303,770,o),
(285,768,o),
(260,766,cs),
(233,764,ls),
(226,763,o),
(216,762,o),
(205,762,cs),
(195,762,o),
(185,763,o),
(178,764,cs),
(152,766,ls),
(137,767,o),
(116,770,o),
(96,770,cs),
(79,770,o),
(63,768,o),
(53,759,cs),
(46,754,o),
(43,746,o),
(43,738,cs),
(43,728,o),
(49,719,o),
(61,719,c),
(94,722,l),
(117,722,o),
(129,716,o),
(140,690,cs),
(145,678,o),
(148,650,o),
(148,608,cs),
(148,154,ls),
(148,112,o),
(145,84,o),
(138,67,cs),
(131,50,o),
(116,41,o),
(94,41,cs),
(61,43,ls),
(51,43,o),
(43,33,o),
(43,23,cs),
(43,16,o),
(46,9,o),
(53,3,cs),
(62,-4,o),
(74,-7,o),
(96,-7,cs),
(110,-7,o),
(128,-6,o),
(152,-4,cs),
(178,-1,ls),
(187,0,o),
(195,0,o),
(205,0,cs),
(216,0,o),
(224,0,o),
(233,-1,cs),
(260,-4,ls),
(269,-5,o),
(277,-5,o),
(288,-6,cs)
);
}
);
};
layerId = m01;
shapes = (
{
closed = 1;
nodes = (
(794,-19,o),
(799,-14,o),
(799,-4,cs),
(799,1,o),
(796,6,o),
(792,9,cs),
(788,12,o),
(785,16,o),
(780,23,cs),
(776,28,o),
(773,44,o),
(773,69,cs),
(775,608,ls),
(775,653,o),
(777,682,o),
(782,696,cs),
(789,715,o),
(803,723,o),
(824,723,c),
(857,719,l),
(865,719,o),
(875,728,o),
(875,740,cs),
(875,746,o),
(872,753,o),
(865,759,cs),
(857,767,o),
(846,770,o),
(825,770,cs),
(813,770,o),
(798,769,o),
(779,767,cs),
(760,764,ls),
(753,763,o),
(746,763,o),
(739,763,cs),
(646,770,l),
(630,770,o),
(619,767,o),
(610,759,cs),
(603,753,o),
(599,745,o),
(599,738,cs),
(599,728,o),
(606,719,o),
(618,719,c),
(654,723,l),
(677,723,o),
(690,717,o),
(701,691,cs),
(706,679,o),
(709,651,o),
(709,608,cs),
(709,190,l),
(188,762,l),
(59,769,ls),
(38,769,o),
(30,757,o),
(30,750,cs),
(30,740,o),
(39,731,o),
(59,722,cs),
(103,700,o),
(148,633,o),
(148,581,cs),
(148,154,ls),
(148,109,o),
(145,80,o),
(140,67,cs),
(133,49,o),
(119,41,o),
(97,41,cs),
(66,43,ls),
(53,43,o),
(47,36,o),
(47,21,cs),
(47,14,o),
(51,8,o),
(57,3,cs),
(66,-4,o),
(77,-7,o),
(95,-7,cs),
(107,-7,o),
(122,-6,o),
(142,-4,cs),
(162,-1,ls),
(169,0,o),
(175,0,o),
(182,0,cs),
(276,-7,ls),
(291,-7,o),
(303,-4,o),
(313,3,c),
(319,9,o),
(323,18,o),
(323,25,cs),
(323,35,o),
(317,43,o),
(304,43,cs),
(268,41,ls),
(245,41,o),
(232,46,o),
(221,72,cs),
(216,84,o),
(213,112,o),
(213,154,cs),
(213,565,l),
(730,5,l),
(753,-11,o),
(771,-19,o),
(783,-19,cs)
);
}
);
userData = {
assembly = "NPUSHB[ ]	/* 38 values pushed */
0 0 0 82 0 82 77 76 75 74 68 66 56 55 54 53 48 47 44 43 42 41 36 35 34 33 28 26 14 13 12 11 6 5 2 1 17 8
CALL[ ]	/* CallFunction */
MPPEM[ ]	/* MeasurePixelPerEm */
PUSHB[ ]	/* 1 value pushed */
15
LT[ ]	/* LessThan */
IF[ ]	/* If */
NPUSHB[ ]	/* 50 values pushed */
70 29 2 2 5 1 33 11 10 6 3 5 5 4 1 0 39 9 8 7 3 4 4 12 34 14 13 3 3 2 2 0 1 2 39 1 1 0 0 13 34 16 15 2 12 12 13 12 35 6
ELSE[ ]	/* Else */
MPPEM[ ]	/* MeasurePixelPerEm */
PUSHB[ ]	/* 1 value pushed */
19
LT[ ]	/* LessThan */
IF[ ]	/* If */
NPUSHB[ ]	/* 50 values pushed */
70 29 2 2 5 1 33 11 10 6 3 5 5 4 1 0 39 9 8 7 3 4 4 12 34 14 13 3 3 2 2 0 1 2 39 1 1 0 0 13 34 16 15 2 12 12 16 12 35 6
ELSE[ ]	/* Else */
MPPEM[ ]	/* MeasurePixelPerEm */
PUSHB[ ]	/* 1 value pushed */
21
LT[ ]	/* LessThan */
IF[ ]	/* If */
NPUSHB[ ]	/* 50 values pushed */
70 29 2 2 5 1 33 11 10 6 3 5 5 4 1 0 39 9 8 7 3 4 4 12 34 14 13 3 3 2 2 0 1 2 39 1 1 0 0 13 34 16 15 2 12 12 13 12 35 6
ELSE[ ]	/* Else */
NPUSHB[ ]	/* 50 values pushed */
70 29 2 2 5 1 33 11 10 6 3 5 5 4 1 0 39 9 8 7 3 4 4 12 34 14 13 3 3 2 2 0 1 2 39 16 15 1 3 0 0 13 34 0 12 12 13 12 35 6
EIF[ ]	/* EndIf */
EIF[ ]	/* EndIf */
EIF[ ]	/* EndIf */
PUSHB[ ]	/* 1 value pushed */
59
CALL[ ]	/* CallFunction */";
};
width = 905;
},
{
associatedMasterId = "792D4558-F830-44B3-9794-52A6ACE12B02";
layerId = "6B1252CF-E426-46DC-A9C6-391C8BFD5F20";
shapes = (
{
closed = 1;
nodes = (
(1660,-65,o),
(1660,-41,qs),
(1660,-23,o),
(1640,-6,qs),
(1626,6,o),
(1618,20,qs),
(1596,60,o),
(1596,181,qs),
(1596,1200,ls),
(1596,1242,o),
(1603,1364,o),
(1634,1419,qs),
(1655,1455,o),
(1712,1455,q),
(1776,1448,l),
(1809,1448,o),
(1809,1475,qs),
(1809,1491,o),
(1772,1521,o),
(1676,1521,o),
(1607,1512,qs),
(1567,1506,o),
(1540,1506,q),
(1352,1521,l),
(1301,1521,o),
(1262,1491,o),
(1262,1475,qs),
(1262,1448,o),
(1295,1448,q),
(1368,1455,l),
(1425,1455,o),
(1446,1420,qs),
(1456,1401,o),
(1484,1324,o),
(1484,1200,qs),
(1484,418,l),
(444,1517,l),
(135,1528,ls),
(82,1528,o),
(82,1485,o),
(135,1466,qs),
(168,1454,o),
(218,1412,qs),
(240,1393,o),
(278,1352,o),
(310,1308,o),
(360,1202,o),
(360,1153,qs),
(359,321,ls),
(359,279,o),
(352,157,o),
(321,102,qs),
(300,66,o),
(243,66,q),
(179,73,l),
(146,73,o),
(146,46,qs),
(146,-18,o),
(348,10,qs),
(388,15,o),
(415,15,q),
(603,0,l),
(654,0,o),
(693,30,o),
(693,46,qs),
(693,73,o),
(660,73,q),
(587,66,l),
(530,66,o),
(510,102,qs),
(499,120,o),
(471,197,o),
(471,321,qs),
(471,1134,l),
(1525,8,ls),
(1592,-65,o),
(1631,-65,qs)
);
}
);
width = 1876;
},
{
layerId = "792D4558-F830-44B3-9794-52A6ACE12B02";
shapes = (
{
closed = 1;
nodes = (
(802,-32,o),
(807,-28,o),
(807,-20,cs),
(807,-14,o),
(803,-8,o),
(797,-3,cs),
(792,1,o),
(789,5,o),
(786,10,cs),
(779,22,o),
(775,49,o),
(775,88,cs),
(775,586,ls),
(775,613,o),
(774,657,o),
(794,693,cs),
(801,705,o),
(813,710,o),
(832,710,c),
(863,707,ls),
(874,707,o),
(879,711,o),
(879,720,cs),
(879,735,o),
(863,743,o),
(833,743,cs),
(819,743,o),
(801,741,o),
(781,738,cs),
(768,736,o),
(757,735,o),
(748,735,cs),
(656,743,l),
(639,743,o),
(627,740,o),
(622,736,cs),
(616,731,o),
(612,725,o),
(612,720,cs),
(612,711,o),
(617,707,o),
(628,707,cs),
(664,710,ls),
(683,710,o),
(695,705,o),
(702,693,cs),
(706,686,o),
(709,678,o),
(714,665,cs),
(719,652,o),
(721,626,o),
(721,586,cs),
(721,204,l),
(213,741,l),
(62,746,ls),
(45,746,o),
(36,743,o),
(36,736,cs),
(36,729,o),
(45,722,o),
(62,716,cs),
(73,712,o),
(86,703,o),
(102,689,cs),
(117,677,o),
(130,664,o),
(140,650,cs),
(150,635,o),
(172,595,o),
(172,563,cs),
(171,157,ls),
(171,129,o),
(173,86,o),
(153,50,cs),
(145,37,o),
(133,32,o),
(115,32,c),
(83,36,l),
(72,36,o),
(67,31,o),
(67,22,cs),
(67,8,o),
(83,1,o),
(114,1,cs),
(128,1,o),
(146,2,o),
(166,5,cs),
(178,6,o),
(190,7,o),
(199,7,cs),
(290,0,l),
(307,0,o),
(319,3,o),
(325,8,cs),
(330,12,o),
(334,17,o),
(334,22,cs),
(334,31,o),
(329,36,o),
(318,36,c),
(283,32,l),
(264,32,o),
(251,39,o),
(245,50,cs),
(241,57,o),
(238,65,o),
(233,78,cs),
(228,91,o),
(226,116,o),
(226,157,cs),
(226,554,l),
(741,4,ls),
(763,-21,o),
(779,-32,o),
(792,-32,cs)
);
}
);
width = 915;
}
);
note = N;
unicode = 78;
},
{
glyphname = O;
kernLeft = O;
kernRight = O;
lastChange = "2025-07-10 18:03:08 +0000";
layers = (
{
layerId = m01;
shapes = (
{
closed = 1;
nodes = (
(514,-11,o),
(582,5,o),
(642,36,cs),
(705,68,o),
(755,114,o),
(790,173,cs),
(828,236,o),
(847,309,o),
(847,392,cs),
(847,461,o),
(830,525,o),
(796,584,cs),
(762,643,o),
(717,689,o),
(659,724,cs),
(599,759,o),
(531,777,o),
(458,777,cs),
(331,777,o),
(230,739,o),
(154,662,cs),
(82,589,o),
(42,480,o),
(42,387,cs),
(42,226,o),
(105,110,o),
(229,41,cs),
(290,7,o),
(361,-11,o),
(439,-11,cs)
);
},
{
closed = 1;
nodes = (
(437,62,o),
(382,76,o),
(331,104,cs),
(217,167,o),
(150,287,o),
(150,440,cs),
(150,521,o),
(174,585,o),
(223,635,cs),
(270,683,o),
(329,706,o),
(402,706,cs),
(490,706,o),
(565,672,o),
(628,602,cs),
(694,529,o),
(727,436,o),
(727,323,cs),
(727,238,o),
(704,172,o),
(658,125,cs),
(616,83,o),
(562,62,o),
(495,62,cs)
);
}
);
userData = {
assembly = "NPUSHB[ ]	/* 10 values pushed */
37 35 29 27 18 16 6 4 4 8
CALL[ ]	/* CallFunction */
MPPEM[ ]	/* MeasurePixelPerEm */
PUSHB[ ]	/* 1 value pushed */
13
LT[ ]	/* LessThan */
IF[ ]	/* If */
NPUSHB[ ]	/* 26 values pushed */
0 3 3 0 1 0 39 0 0 0 12 34 0 2 2 1 1 0 39 0 1 1 13 1 35 4
ELSE[ ]	/* Else */
MPPEM[ ]	/* MeasurePixelPerEm */
PUSHB[ ]	/* 1 value pushed */
17
LT[ ]	/* LessThan */
IF[ ]	/* If */
NPUSHB[ ]	/* 26 values pushed */
0 3 3 0 1 0 39 0 0 0 12 34 0 2 2 1 1 0 39 0 1 1 16 1 35 4
ELSE[ ]	/* Else */
MPPEM[ ]	/* MeasurePixelPerEm */
PUSHB[ ]	/* 1 value pushed */
21
LT[ ]	/* LessThan */
IF[ ]	/* If */
NPUSHB[ ]	/* 26 values pushed */
0 3 3 0 1 0 39 0 0 0 12 34 0 2 2 1 1 0 39 0 1 1 13 1 35 4
ELSE[ ]	/* Else */
NPUSHB[ ]	/* 26 values pushed */
0 3 3 0 1 0 39 0 0 0 12 34 0 2 2 1 1 0 39 0 1 1 16 1 35 4
EIF[ ]	/* EndIf */
EIF[ ]	/* EndIf */
EIF[ ]	/* EndIf */
PUSHB[ ]	/* 1 value pushed */
59
CALL[ ]	/* CallFunction */";
};
width = 889;
},
{
associatedMasterId = "792D4558-F830-44B3-9794-52A6ACE12B02";
layerId = "6B1252CF-E426-46DC-A9C6-391C8BFD5F20";
shapes = (
{
closed = 1;
nodes = (
(1271,-23,o),
(1503,188,qs),
(1748,410,o),
(1748,786,qs),
(1748,994,o),
(1646,1172,qs),
(1544,1349,o),
(1369,1452,qs),
(1186,1561,o),
(966,1561,qs),
(587,1561,o),
(356,1324,qs),
(248,1213,o),
(132,908,o),
(132,734,qs),
(132,392,o),
(349,185,qs),
(568,-23,o),
(929,-23,qs)
);
},
{
closed = 1;
nodes = (
(867,91,o),
(708,187,qs),
(544,286,o),
(446,460,qs),
(340,651,o),
(340,889,qs),
(340,1133,o),
(490,1294,qs),
(636,1451,o),
(855,1451,qs),
(1026,1451,o),
(1180,1344,qs),
(1333,1236,o),
(1422,1058,qs),
(1516,867,o),
(1516,648,qs),
(1516,384,o),
(1375,232,qs),
(1244,91,o),
(1042,91,qs)
);
}
);
width = 1880;
},
{
layerId = "792D4558-F830-44B3-9794-52A6ACE12B02";
shapes = (
{
closed = 1;
nodes = (
(545,-11,o),
(638,23,o),
(714,92,cs),
(794,164,o),
(834,261,o),
(834,384,cs),
(834,451,o),
(818,513,o),
(784,572,cs),
(750,631,o),
(705,676,o),
(648,709,cs),
(589,744,o),
(523,762,o),
(452,762,cs),
(329,762,o),
(229,723,o),
(154,646,cs),
(84,575,o),
(44,471,o),
(44,358,cs),
(44,247,o),
(80,157,o),
(150,90,cs),
(221,23,o),
(316,-11,o),
(434,-11,cs)
);
},
{
closed = 1;
nodes = (
(432,44,o),
(377,60,o),
(326,91,cs),
(272,124,o),
(230,168,o),
(198,225,cs),
(164,286,o),
(146,357,o),
(146,434,cs),
(146,513,o),
(170,579,o),
(219,632,cs),
(267,683,o),
(326,708,o),
(397,708,cs),
(453,708,o),
(507,690,o),
(556,656,cs),
(605,622,o),
(645,576,o),
(674,517,cs),
(705,454,o),
(720,387,o),
(720,316,cs),
(720,231,o),
(697,163,o),
(651,113,cs),
(609,68,o),
(554,44,o),
(489,44,cs)
);
}
);
width = 878;
}
);
note = O;
unicode = 79;
},
{
glyphname = P;
kernLeft = H;
kernRight = P;
lastChange = "2025-07-10 18:15:52 +0000";
layers = (
{
layerId = m01;
shapes = (
{
closed = 1;
nodes = (
(85,-7,o),
(92,-7,o),
(103,-7,cs),
(119,-7,o),
(145,-5,o),
(180,-1,cs),
(188,0,o),
(197,0,o),
(207,0,cs),
(226,0,o),
(247,-1,o),
(272,-3,cs),
(283,-5,o),
(305,-8,o),
(327,-8,cs),
(347,-8,o),
(368,-5,o),
(380,4,cs),
(389,10,o),
(392,17,o),
(392,25,cs),
(392,43,o),
(375,45,o),
(362,45,c),
(351,43,ls),
(345,42,o),
(338,41,o),
(322,41,cs),
(289,41,o),
(272,64,o),
(272,154,cs),
(272,308,l),
(316,296,o),
(354,290,o),
(387,290,cs),
(475,290,o),
(546,311,o),
(601,354,cs),
(662,402,o),
(692,468,o),
(692,551,cs),
(692,620,o),
(672,674,o),
(631,713,cs),
(587,753,o),
(512,777,o),
(440,777,cs),
(403,777,o),
(372,776,o),
(345,773,cs),
(329,772,o),
(297,767,o),
(260,764,cs),
(248,762,o),
(235,762,o),
(220,762,cs),
(204,762,o),
(184,763,o),
(158,766,cs),
(146,767,o),
(125,770,o),
(106,770,cs),
(78,770,o),
(52,764,o),
(52,739,cs),
(52,728,o),
(59,719,o),
(71,719,c),
(95,722,l),
(120,722,o),
(136,714,o),
(148,687,cs),
(154,674,o),
(157,645,o),
(157,602,cs),
(157,154,ls),
(157,112,o),
(154,84,o),
(147,67,cs),
(140,50,o),
(125,41,o),
(102,41,c),
(71,44,l),
(60,44,o),
(52,34,o),
(52,23,cs),
(52,17,o),
(54,10,o),
(61,4,cs),
(64,2,o),
(72,-2,o),
(81,-5,cs)
);
},
{
closed = 1;
nodes = (
(359,358,o),
(314,369,o),
(272,392,c),
(272,650,ls),
(272,687,o),
(304,706,o),
(369,706,cs),
(398,706,o),
(426,702,o),
(450,695,cs),
(527,672,o),
(567,612,o),
(567,517,cs),
(567,469,o),
(553,430,o),
(526,402,cs),
(498,373,o),
(459,358,o),
(408,358,cs)
);
}
);
userData = {
assembly = "NPUSHB[ ]	/* 36 values pushed */
66 65 1 0 71 69 65 77 66 77 57 56 51 50 47 46 41 40 39 38 31 30 29 28 19 17 12 11 7 6 0 64 1 64 15 8
CALL[ ]	/* CallFunction */
NPUSHB[ ]	/* 68 values pushed */
68 1 12 11 2 1 0 12 2 33 0 12 13 1 0 1 12 0 1 0 41 7 1 6 6 8 1 0 39 10 9 2 8 8 12 34 14 1 11 11 8 1 0 39 10 9 2 8 8 12 34 5 4 2 3 1 1 3 1 0 39 0 3 3 13 3 35 8
PUSHB[ ]	/* 1 value pushed */
59
CALL[ ]	/* CallFunction */";
};
width = 722;
},
{
associatedMasterId = "792D4558-F830-44B3-9794-52A6ACE12B02";
layerId = "6B1252CF-E426-46DC-A9C6-391C8BFD5F20";
shapes = (
{
closed = 1;
nodes = (
(639,1,o),
(676,0,o),
(742,0,o),
(789,30,o),
(789,58,o),
(772,76,o),
(756,76,q),
(662,66,l),
(605,66,o),
(584,102,qs),
(574,120,o),
(546,197,o),
(546,321,qs),
(546,625,l),
(682,585,o),
(805,585,qs),
(1051,585,o),
(1230,716,qs),
(1426,859,o),
(1426,1109,qs),
(1426,1303,o),
(1266,1423,qs),
(1190,1480,o),
(979,1543,o),
(748,1543,o),
(675,1533,qs),
(594,1522,ls),
(535,1514,o),
(445,1514,qs),
(378,1514,o),
(309,1522,qs),
(261,1526,ls),
(236,1528,o),
(148,1528,o),
(111,1499,o),
(111,1483,qs),
(111,1455,o),
(144,1455,q),
(193,1462,l),
(261,1462,o),
(284,1418,qs),
(296,1396,o),
(324,1318,o),
(324,1195,qs),
(324,321,ls),
(324,279,o),
(317,157,o),
(286,102,qs),
(265,66,o),
(208,66,q),
(144,73,l),
(111,73,o),
(111,46,qs),
(111,30,o),
(130,15,qs),
(165,-14,o),
(324,10,qs),
(357,15,o),
(435,15,qs),
(464,15,o),
(500,13,qs),
(517,12,o),
(549,9,o),
(592,4,o),
(620,2,qs)
);
},
{
closed = 1;
nodes = (
(666,684,o),
(546,752,q),
(546,1311,ls),
(546,1345,o),
(562,1370,qs),
(611,1445,o),
(748,1445,qs),
(935,1445,o),
(1055,1335,qs),
(1183,1218,o),
(1183,1020,qs),
(1183,875,o),
(1084,780,qs),
(984,684,o),
(826,684,qs)
);
}
);
width = 1539;
},
{
layerId = "792D4558-F830-44B3-9794-52A6ACE12B02";
shapes = (
{
closed = 1;
nodes = (
(325,0,o),
(333,0,o),
(344,0,cs),
(365,0,o),
(383,13,o),
(383,22,cs),
(383,30,o),
(378,37,o),
(367,37,c),
(321,32,l),
(302,32,o),
(289,39,o),
(283,50,cs),
(279,57,o),
(276,66,o),
(272,78,cs),
(267,90,o),
(265,116,o),
(265,157,cs),
(265,305,l),
(310,292,o),
(351,286,o),
(391,286,cs),
(471,286,o),
(540,307,o),
(599,350,cs),
(662,396,o),
(694,460,o),
(694,542,cs),
(694,605,o),
(669,655,o),
(616,695,cs),
(567,732,o),
(495,753,o),
(420,753,cs),
(382,753,o),
(352,752,o),
(328,749,cs),
(288,743,ls),
(268,740,o),
(244,739,o),
(215,739,cs),
(194,739,o),
(172,740,o),
(149,743,cs),
(125,745,ls),
(117,746,o),
(109,746,o),
(101,746,cs),
(74,746,o),
(52,741,o),
(52,724,cs),
(52,715,o),
(57,710,o),
(68,710,c),
(92,714,l),
(114,714,o),
(129,707,o),
(137,692,cs),
(141,685,o),
(145,676,o),
(150,663,cs),
(154,650,o),
(156,624,o),
(156,583,cs),
(156,157,ls),
(156,129,o),
(158,86,o),
(138,50,cs),
(130,37,o),
(118,32,o),
(100,32,c),
(68,36,l),
(57,36,o),
(52,31,o),
(52,22,cs),
(52,17,o),
(54,13,o),
(61,7,cs),
(68,2,o),
(80,-1,o),
(97,-1,cs),
(112,-1,o),
(132,1,o),
(156,5,cs),
(166,6,o),
(185,7,o),
(210,7,cs),
(220,7,o),
(230,7,o),
(242,6,cs),
(255,6,o),
(274,3,o),
(301,1,cs),
(308,0,o),
(313,0,o),
(319,0,cs)
);
},
{
closed = 1;
nodes = (
(349,334,o),
(304,345,o),
(265,367,c),
(265,640,ls),
(265,651,o),
(268,662,o),
(272,669,cs),
(288,694,o),
(318,706,o),
(363,706,cs),
(424,706,o),
(474,688,o),
(513,652,cs),
(555,614,o),
(576,563,o),
(576,498,cs),
(576,451,o),
(560,412,o),
(527,381,cs),
(495,350,o),
(452,334,o),
(401,334,cs)
);
}
);
width = 732;
}
);
metricLeft = H;
note = P;
unicode = 80;
},
{
glyphname = Q;
kernLeft = O;
kernRight = Q;
lastChange = "2025-07-10 17:44:34 +0000";
layers = (
{
layerId = m01;
shapes = (
{
closed = 1;
nodes = (
(907,-177,o),
(920,-162,o),
(920,-147,cs),
(920,-141,o),
(918,-135,o),
(914,-129,cs),
(910,-124,o),
(905,-120,o),
(898,-120,cs),
(894,-120,o),
(890,-121,o),
(886,-124,cs),
(868,-135,ls),
(858,-140,o),
(846,-142,o),
(831,-142,cs),
(796,-142,o),
(765,-130,o),
(737,-105,cs),
(697,-72,ls),
(650,-33,o),
(596,-9,o),
(535,0,c),
(626,19,o),
(700,62,o),
(757,129,cs),
(813,196,o),
(847,290,o),
(847,379,cs),
(847,424,o),
(843,461,o),
(834,494,cs),
(816,559,o),
(783,617,o),
(737,664,cs),
(662,739,o),
(569,777,o),
(458,777,cs),
(332,777,o),
(230,737,o),
(154,660,cs),
(79,584,o),
(42,487,o),
(42,366,cs),
(42,262,o),
(73,177,o),
(136,110,cs),
(197,43,o),
(281,4,o),
(387,-6,c),
(363,-13,o),
(346,-21,o),
(335,-30,cs),
(322,-40,o),
(317,-47,o),
(317,-53,cs),
(317,-70,o),
(329,-80,o),
(339,-80,cs),
(343,-80,o),
(346,-79,o),
(349,-77,cs),
(367,-64,ls),
(388,-51,o),
(415,-41,o),
(443,-41,cs),
(459,-41,o),
(475,-44,o),
(492,-51,cs),
(500,-54,o),
(515,-65,o),
(536,-84,cs),
(581,-127,o),
(621,-158,o),
(660,-180,cs),
(698,-200,o),
(746,-216,o),
(794,-216,cs),
(827,-216,o),
(859,-208,o),
(888,-190,cs)
);
},
{
closed = 1;
nodes = (
(437,62,o),
(382,76,o),
(331,104,cs),
(217,170,o),
(150,290,o),
(150,443,cs),
(150,523,o),
(174,587,o),
(223,636,cs),
(271,683,o),
(330,706,o),
(402,706,cs),
(490,706,o),
(565,672,o),
(628,603,cs),
(694,532,o),
(727,439,o),
(727,326,cs),
(727,239,o),
(704,173,o),
(658,126,cs),
(616,83,o),
(562,62,o),
(495,62,cs)
);
}
);
userData = {
assembly = "NPUSHB[ ]	/* 22 values pushed */
0 0 69 67 61 59 0 52 0 52 48 47 40 39 32 31 28 26 13 11 9 8
CALL[ ]	/* CallFunction */
NPUSHB[ ]	/* 56 values pushed */
22 4 2 4 6 1 33 8 1 5 4 2 4 5 2 53 0 2 1 4 2 1 51 0 6 0 4 5 6 4 1 0 41 0 1 0 3 1 3 1 0 40 0 7 7 0 1 0 39 0 0 0 12 7 35 7
PUSHB[ ]	/* 1 value pushed */
59
CALL[ ]	/* CallFunction */";
};
width = 888;
},
{
associatedMasterId = "792D4558-F830-44B3-9794-52A6ACE12B02";
layerId = "6B1252CF-E426-46DC-A9C6-391C8BFD5F20";
shapes = (
{
closed = 1;
nodes = (
(1260,-23,o),
(1492,188,qs),
(1737,410,o),
(1737,786,qs),
(1737,994,o),
(1634,1172,qs),
(1533,1349,o),
(1358,1452,qs),
(1175,1561,o),
(955,1561,qs),
(576,1561,o),
(345,1324,qs),
(237,1213,o),
(121,908,o),
(121,734,qs),
(121,392,o),
(338,185,qs),
(557,-23,o),
(918,-23,qs)
);
},
{
closed = 1;
nodes = (
(1880,-338,o),
(1880,-301,qs),
(1880,-273,o),
(1851,-273,qs),
(1840,-273,o),
(1830,-278,qs),
(1792,-300,ls),
(1763,-317,o),
(1698,-317,qs),
(1659,-317,o),
(1569,-267,o),
(1519,-222,qs),
(1426,-142,ls),
(1377,-103,o),
(1254,-40,o),
(1098,-1,o),
(851,-1,o),
(758,-43,qs),
(678,-80,o),
(678,-117,qs),
(678,-151,o),
(706,-151,qs),
(723,-151,o),
(734,-142,qs),
(820,-72,o),
(926,-72,qs),
(980,-72,o),
(1029,-98,qs),
(1056,-112,o),
(1118,-172,qs),
(1237,-288,o),
(1368,-342,qs),
(1432,-369,o),
(1568,-395,o),
(1752,-395,o),
(1818,-366,qs)
);
},
{
closed = 1;
nodes = (
(856,91,o),
(697,187,qs),
(533,286,o),
(436,460,qs),
(329,651,o),
(329,889,qs),
(329,1133,o),
(478,1294,qs),
(625,1451,o),
(844,1451,qs),
(1015,1451,o),
(1168,1344,qs),
(1322,1236,o),
(1410,1058,qs),
(1505,867,o),
(1505,648,qs),
(1505,384,o),
(1364,232,qs),
(1233,91,o),
(1031,91,qs)
);
}
);
width = 1880;
},
{
layerId = "792D4558-F830-44B3-9794-52A6ACE12B02";
shapes = (
{
closed = 1;
nodes = (
(544,-11,o),
(639,24,o),
(714,92,cs),
(793,164,o),
(833,261,o),
(833,384,cs),
(833,451,o),
(817,513,o),
(783,572,cs),
(751,629,o),
(705,676,o),
(648,709,cs),
(589,744,o),
(523,762,o),
(451,762,cs),
(328,762,o),
(228,723,o),
(153,646,cs),
(83,573,o),
(44,471,o),
(44,358,cs),
(44,247,o),
(80,157,o),
(150,90,cs),
(221,23,o),
(316,-11,o),
(433,-11,cs)
);
},
{
closed = 1;
nodes = (
(892,-170,o),
(903,-159,o),
(903,-147,cs),
(903,-138,o),
(898,-133,o),
(889,-133,cs),
(885,-133,o),
(882,-134,o),
(879,-136,cs),
(860,-146,ls),
(851,-152,o),
(835,-155,o),
(814,-155,cs),
(789,-155,o),
(760,-138,o),
(727,-108,cs),
(681,-69,ls),
(632,-30,o),
(548,2,o),
(466,2,cs),
(427,2,o),
(389,-5,o),
(355,-21,cs),
(329,-33,o),
(316,-45,o),
(316,-57,cs),
(316,-68,o),
(321,-74,o),
(330,-74,cs),
(335,-74,o),
(340,-72,o),
(343,-69,cs),
(370,-47,o),
(402,-35,o),
(437,-35,cs),
(455,-35,o),
(471,-39,o),
(487,-48,cs),
(497,-53,o),
(510,-64,o),
(531,-84,cs),
(570,-122,o),
(611,-150,o),
(653,-167,cs),
(697,-185,o),
(745,-194,o),
(787,-194,cs),
(821,-194,o),
(851,-188,o),
(873,-179,cs)
);
},
{
closed = 1;
nodes = (
(431,44,o),
(378,59,o),
(325,91,cs),
(271,124,o),
(229,169,o),
(198,225,cs),
(164,286,o),
(146,357,o),
(146,434,cs),
(146,513,o),
(170,579,o),
(218,632,cs),
(266,683,o),
(326,708,o),
(397,708,cs),
(453,708,o),
(505,691,o),
(555,656,cs),
(606,621,o),
(645,575,o),
(673,517,cs),
(704,455,o),
(720,387,o),
(720,316,cs),
(720,231,o),
(697,163,o),
(651,113,cs),
(609,68,o),
(554,44,o),
(488,44,cs)
);
}
);
width = 899;
}
);
metricLeft = O;
note = Q;
unicode = 81;
},
